<svg xmlns="http://www.w3.org/2000/svg" xmlns:xlink="http://www.w3.org/1999/xlink" width="1200" zoomAndPan="magnify" viewBox="0 0 900 599.999999" height="800" preserveAspectRatio="xMidYMid meet" version="1.0"><path fill="#e6bd17" d="M 257.117188 70.410156 C 256.65625 70.921875 256.277344 71.683594 256.277344 72.105469 C 256.277344 72.527344 255.828125 73.890625 255.277344 75.136719 C 252.53125 81.347656 251.277344 93.167969 252.292969 103.296875 C 253.511719 115.460938 257.710938 124.429688 267.019531 134.757812 C 272.394531 140.71875 276.152344 143.8125 284.09375 148.804688 C 287.570312 150.992188 299.960938 157.441406 300.6875 157.441406 C 300.855469 157.441406 301.941406 157.851562 303.097656 158.359375 C 308.273438 160.621094 310.515625 161.46875 315.636719 163.109375 C 322.320312 165.25 337.351562 169.039062 343.699219 170.183594 C 359.460938 173.03125 369.257812 174.425781 379.710938 175.3125 C 406.640625 177.597656 428.140625 178.484375 428.140625 177.308594 C 428.140625 177.035156 426.855469 176.808594 425.285156 176.804688 C 423.714844 176.800781 422.09375 176.578125 421.683594 176.316406 C 421.066406 175.917969 421.109375 175.835938 421.933594 175.839844 C 424.339844 175.859375 430.371094 176.855469 430.820312 177.308594 C 431.097656 177.582031 432.183594 177.804688 433.242188 177.804688 C 435.011719 177.804688 435.101562 177.742188 434.363281 177.003906 C 433.882812 176.519531 432.128906 176.03125 429.980469 175.777344 C 428.011719 175.542969 424.167969 175.003906 421.433594 174.574219 C 418.703125 174.148438 414.902344 173.578125 412.992188 173.308594 C 411.078125 173.042969 408.621094 172.625 407.527344 172.382812 C 406.433594 172.144531 404.757812 171.789062 403.800781 171.601562 C 399.546875 170.753906 386.6875 167.441406 380.457031 165.585938 C 376.304688 164.351562 363.777344 160.175781 361.828125 159.378906 C 361.285156 159.15625 358.378906 158.042969 355.371094 156.90625 C 343.976562 152.59375 325.527344 142.871094 313.242188 134.695312 C 300.136719 125.976562 283.015625 109.398438 274.285156 96.980469 C 273.671875 96.105469 273.167969 95.269531 273.167969 95.125 C 273.167969 94.976562 272.441406 93.792969 271.550781 92.496094 C 268.816406 88.496094 267.113281 85.40625 263.121094 77.21875 C 261.789062 74.488281 260.425781 71.695312 260.085938 71.015625 C 259.308594 69.449219 258.195312 69.222656 257.117188 70.410156 M 642.230469 70.257812 C 641.894531 70.664062 640.574219 73.179688 639.304688 75.847656 C 631.195312 92.835938 625.339844 101.148438 611.445312 115.378906 C 598.410156 128.730469 581.789062 140.207031 560.554688 150.519531 C 555.527344 152.960938 551.277344 154.957031 551.105469 154.957031 C 550.933594 154.957031 547.726562 156.171875 543.980469 157.65625 C 525.089844 165.148438 502.277344 171.304688 483.027344 174.097656 C 480.023438 174.535156 476.492188 175.101562 475.179688 175.355469 C 473.867188 175.609375 471.816406 175.816406 470.621094 175.816406 C 468.761719 175.816406 466.882812 176.707031 466.882812 177.59375 C 466.882812 177.710938 468.28125 177.777344 469.988281 177.746094 C 472.371094 177.699219 472.746094 177.605469 471.601562 177.332031 C 470.171875 176.992188 470.199219 176.96875 472.347656 176.667969 C 477.621094 175.941406 480.359375 175.8125 480.050781 176.304688 C 479.882812 176.585938 478.761719 176.8125 477.5625 176.8125 C 476.367188 176.8125 475.226562 177.070312 475.03125 177.386719 C 474.640625 178.019531 489.503906 177.707031 502.152344 176.816406 C 505.839844 176.558594 511.09375 176.222656 513.824219 176.070312 C 529.289062 175.207031 553.378906 171.417969 571.195312 167.046875 C 573.84375 166.394531 576.492188 165.753906 579.140625 165.113281 C 592.222656 161.992188 611.578125 153.230469 623.347656 145.105469 C 628.03125 141.875 637.300781 132.222656 641.085938 126.640625 C 645.449219 120.199219 648.75 110.863281 649.613281 102.503906 C 650.390625 94.996094 649.457031 84.089844 647.664062 79.703125 C 647.441406 79.15625 647.15625 78.039062 647.035156 77.21875 C 646.800781 75.679688 645.238281 71.234375 644.546875 70.140625 C 644.015625 69.304688 642.976562 69.359375 642.230469 70.257812 M 618.628906 158.011719 C 615.167969 160.777344 601.425781 167.429688 594.289062 169.800781 C 578.90625 174.910156 564.789062 177.761719 540.894531 180.582031 C 530.515625 181.804688 500.074219 182.929688 488.675781 182.503906 C 483.09375 182.296875 479.808594 182.359375 479.613281 182.671875 C 479.246094 183.261719 481.402344 184.757812 482.636719 184.765625 C 483.125 184.769531 484.53125 185.125 485.761719 185.554688 C 491.53125 187.578125 512.570312 192.578125 524.007812 194.644531 C 541.402344 197.789062 552.027344 198.890625 564.984375 198.890625 C 579.652344 198.886719 589.894531 197.074219 600.5 192.605469 C 613.808594 186.992188 622.453125 175.632812 623.628906 162.210938 C 623.980469 158.238281 623.371094 155.925781 621.996094 155.988281 C 621.511719 156.011719 619.996094 156.921875 618.628906 158.011719 M 277.855469 158.179688 C 277.265625 161.324219 278.371094 167.921875 280.195312 172.144531 C 285 183.257812 292.578125 189.859375 305.949219 194.585938 C 321.5 200.082031 347.921875 200.304688 374.746094 195.164062 C 384.976562 193.207031 390.609375 192.015625 395.949219 190.683594 C 398.566406 190.03125 401.183594 189.386719 403.800781 188.753906 C 405.851562 188.257812 409.652344 187.257812 412.246094 186.523438 C 414.839844 185.792969 417.640625 185.019531 418.46875 184.804688 C 420.464844 184.289062 422.339844 183.261719 421.964844 182.886719 C 421.796875 182.722656 412.78125 182.546875 401.929688 182.5 C 383.71875 182.417969 377.835938 182.152344 362.824219 180.734375 C 354.207031 179.921875 342.058594 178.378906 337.859375 177.5625 L 331.28125 176.285156 C 312.265625 172.597656 293.832031 165.765625 282.980469 158.386719 C 279.355469 155.917969 278.285156 155.875 277.855469 158.179688 M 416.59375 175.152344 C 416.933594 175.292969 417.492188 175.292969 417.835938 175.152344 C 418.175781 175.015625 417.898438 174.902344 417.214844 174.902344 C 416.53125 174.902344 416.25 175.015625 416.59375 175.152344 M 416.097656 184.09375 C 416.4375 184.230469 416.996094 184.230469 417.335938 184.09375 C 417.679688 183.957031 417.398438 183.84375 416.71875 183.84375 C 416.035156 183.84375 415.753906 183.957031 416.097656 184.09375 M 477.085938 190.195312 C 476.515625 191.117188 477.21875 191.574219 496.9375 203.121094 C 507.738281 209.449219 525.140625 217.707031 534.585938 220.988281 C 554.214844 227.808594 569.296875 229.179688 580.878906 225.1875 C 588.179688 222.675781 595.726562 215.269531 598.441406 207.960938 C 599.601562 204.835938 599.796875 202.878906 599 202.382812 C 598.71875 202.210938 597.097656 202.53125 595.398438 203.09375 C 590.140625 204.835938 580.574219 206.273438 570.449219 206.839844 C 559.8125 207.4375 532.523438 204.59375 520.53125 201.640625 C 517.859375 200.984375 514.707031 200.28125 510.347656 199.371094 C 508.160156 198.914062 504.921875 198.121094 503.144531 197.613281 C 500.332031 196.808594 497.519531 196.019531 494.699219 195.238281 C 489.304688 193.738281 482.40625 191.597656 479.199219 190.425781 C 478.171875 190.046875 477.238281 189.945312 477.085938 190.195312 M 422.550781 190.515625 C 422.390625 190.675781 421.515625 190.992188 420.605469 191.214844 C 419.695312 191.441406 416.941406 192.226562 414.480469 192.964844 C 409.195312 194.542969 403.742188 196.082031 401.320312 196.675781 C 400.363281 196.910156 398.351562 197.425781 396.847656 197.828125 C 395.347656 198.226562 392.550781 198.894531 390.640625 199.3125 C 388.726562 199.730469 385.152344 200.515625 382.691406 201.058594 C 362.578125 205.5 343.898438 207.515625 328.300781 206.921875 C 319.164062 206.574219 314.90625 205.972656 308.050781 204.0625 C 305.246094 203.28125 302.746094 202.640625 302.496094 202.640625 C 300.65625 202.640625 302.363281 209.015625 305.351562 213.300781 C 310.96875 221.355469 316.574219 224.96875 326.75 227.085938 C 336.421875 229.097656 351.742188 226.996094 365.554688 221.769531 C 366.511719 221.40625 368.636719 220.617188 370.273438 220.015625 C 371.914062 219.414062 373.957031 218.609375 374.820312 218.230469 C 375.679688 217.851562 376.53125 217.542969 376.710938 217.542969 C 377.941406 217.542969 399.652344 206.285156 409.761719 200.402344 C 421.550781 193.542969 424.8125 191.363281 424.359375 190.632812 C 424.070312 190.160156 422.976562 190.089844 422.550781 190.515625 M 420.941406 192.203125 C 420.769531 192.484375 420.96875 192.570312 421.410156 192.398438 C 422.269531 192.070312 422.425781 191.714844 421.714844 191.714844 C 421.457031 191.714844 421.109375 191.933594 420.941406 192.203125 M 479.800781 191.953125 C 479.800781 192.082031 480.695312 192.644531 481.785156 193.203125 C 484.171875 194.421875 484.425781 194.082031 482.160156 192.699219 C 480.566406 191.730469 479.800781 191.484375 479.800781 191.953125 M 425.191406 198.648438 C 424.804688 198.886719 424.433594 199.433594 424.371094 199.863281 C 424.265625 200.574219 417.363281 208.601562 416.855469 208.601562 C 416.609375 208.601562 420.628906 203.707031 422.875 201.273438 C 423.691406 200.386719 424.207031 199.660156 424.019531 199.660156 C 423.832031 199.660156 420.492188 201.878906 416.597656 204.585938 C 407.738281 210.75 398.132812 216.402344 386.871094 222.078125 C 382.066406 224.5 377.996094 226.484375 377.820312 226.484375 C 377.648438 226.484375 376.324219 227.007812 374.882812 227.648438 C 373.441406 228.289062 370.921875 229.316406 369.28125 229.925781 C 367.640625 230.539062 365.769531 231.253906 365.121094 231.511719 C 360.679688 233.28125 350.085938 235.214844 342.960938 235.554688 C 339.605469 235.714844 339.511719 236.667969 342.507812 240.175781 C 345.214844 243.339844 348.851562 245.898438 352.285156 247.046875 C 357.386719 248.753906 368.316406 247.773438 373.601562 245.136719 C 374.449219 244.710938 375.316406 244.363281 375.527344 244.363281 C 376.042969 244.363281 385.355469 238.988281 386.914062 237.792969 C 387.597656 237.269531 389.917969 235.523438 392.070312 233.917969 C 396.335938 230.738281 411.253906 216.679688 411.253906 215.84375 C 411.253906 215.558594 409.070312 217.5 406.402344 220.160156 C 403.734375 222.816406 401.394531 224.992188 401.207031 224.992188 C 401.015625 224.992188 403.714844 222.085938 407.203125 218.535156 C 410.695312 214.984375 413.746094 212.078125 413.988281 212.078125 C 414.230469 212.078125 413.671875 212.859375 412.742188 213.816406 C 411.816406 214.773438 411.269531 215.535156 411.527344 215.511719 C 411.785156 215.488281 414.234375 213.003906 416.964844 209.984375 C 419.695312 206.96875 423.03125 203.292969 424.378906 201.820312 C 425.882812 200.164062 426.644531 198.957031 426.359375 198.671875 C 426.089844 198.402344 425.605469 198.394531 425.191406 198.648438 M 476.820312 199.824219 C 476.820312 199.960938 477.964844 200.984375 479.367188 202.101562 C 480.769531 203.21875 481.601562 204.128906 481.21875 204.128906 C 480.835938 204.128906 479.6875 203.445312 478.671875 202.605469 C 477.652344 201.765625 476.820312 201.226562 476.820312 201.410156 C 476.820312 202.320312 493.65625 220.117188 494.199219 219.78125 C 494.5625 219.554688 499.667969 224.167969 499.667969 224.71875 C 499.667969 224.902344 499.414062 224.894531 499.105469 224.703125 C 498.796875 224.515625 498.628906 224.574219 498.734375 224.84375 C 499.214844 226.074219 512.457031 236.949219 516.15625 239.144531 C 524.867188 244.316406 529.351562 246.484375 533.070312 247.316406 C 534.371094 247.605469 536.441406 248.066406 537.671875 248.339844 C 544.222656 249.789062 551.742188 247.628906 557.054688 242.769531 C 559.871094 240.199219 562.007812 237.226562 561.5625 236.5 C 561.414062 236.265625 559.109375 235.933594 556.433594 235.761719 C 550.390625 235.375 542.003906 233.800781 538.660156 232.421875 C 538.113281 232.195312 535.878906 231.402344 533.691406 230.65625 C 530.019531 229.402344 528.816406 228.929688 523.261719 226.582031 C 514.253906 222.765625 494.710938 211.753906 485.308594 205.191406 C 479.882812 201.402344 476.820312 199.464844 476.820312 199.824219 M 484.625 209.347656 C 485.476562 210.4375 487.011719 212.117188 488.046875 213.070312 L 489.921875 214.808594 L 487.890625 212.328125 C 486.773438 210.960938 485.234375 209.285156 484.472656 208.601562 C 483.109375 207.382812 483.113281 207.398438 484.625 209.347656 M 428.359375 209.148438 C 428.113281 209.546875 428.199219 209.617188 428.613281 209.359375 C 429.078125 209.074219 429.152344 209.257812 428.890625 210.074219 C 428.457031 211.441406 426.023438 216.613281 426.355469 215.464844 C 426.488281 215.003906 426.328125 214.53125 426.003906 214.417969 C 425.582031 214.269531 425.640625 213.9375 426.214844 213.269531 C 427.195312 212.121094 428.277344 210.089844 427.910156 210.089844 C 427.761719 210.089844 425.941406 212.382812 423.863281 215.183594 C 421.789062 217.984375 419.273438 221.167969 418.277344 222.265625 C 417.28125 223.359375 415.367188 225.59375 414.019531 227.230469 L 411.574219 230.207031 L 414.007812 227.972656 C 416.765625 225.4375 415.726562 226.949219 412.074219 230.789062 C 410.730469 232.199219 409.378906 233.273438 409.074219 233.175781 C 408.769531 233.074219 407.417969 234.308594 406.066406 235.917969 C 404.714844 237.527344 403.398438 238.707031 403.132812 238.546875 C 402.871094 238.382812 402.792969 238.472656 402.964844 238.746094 C 403.132812 239.019531 402.574219 239.894531 401.722656 240.6875 C 400.867188 241.480469 400.332031 241.851562 400.527344 241.507812 C 401.125 240.460938 400.457031 240.796875 397.476562 243.039062 C 391.125 247.820312 388.058594 249.546875 383.5625 250.886719 C 382.671875 251.148438 381.945312 251.699219 381.945312 252.109375 C 381.945312 253.25 384.472656 255.222656 386.417969 255.597656 C 387.375 255.78125 388.269531 256.101562 388.40625 256.308594 C 388.660156 256.695312 390.992188 256.925781 393.621094 256.824219 C 394.773438 256.78125 394.941406 256.65625 394.363281 256.285156 C 393.8125 255.929688 394.101562 255.800781 395.5 255.796875 C 396.53125 255.792969 398.195312 255.445312 399.199219 255.027344 C 401.761719 253.957031 406.128906 250.484375 406.449219 249.261719 C 406.617188 248.613281 406.9375 248.375 407.324219 248.613281 C 407.710938 248.855469 407.800781 248.78125 407.574219 248.410156 C 407.375 248.089844 407.558594 247.703125 407.988281 247.539062 C 408.414062 247.375 408.617188 247.007812 408.441406 246.71875 C 408.261719 246.429688 408.355469 246.34375 408.648438 246.523438 C 409.660156 247.152344 414.242188 241.207031 419.308594 232.691406 C 421.476562 229.042969 426.382812 219.242188 426.886719 217.542969 C 427.21875 216.4375 427.597656 215.488281 429.164062 211.828125 C 429.863281 210.207031 429.917969 208.964844 429.304688 208.75 C 428.988281 208.640625 428.5625 208.820312 428.359375 209.148438 M 414.976562 210.589844 C 414.480469 211.140625 414.191406 211.707031 414.335938 211.847656 C 414.476562 211.992188 414.964844 211.542969 415.417969 210.851562 C 416.410156 209.339844 416.210938 209.226562 414.976562 210.589844 M 471.605469 210.089844 C 471.773438 210.363281 472.007812 210.589844 472.128906 210.589844 C 472.25 210.589844 472.347656 210.363281 472.347656 210.089844 C 472.347656 209.816406 472.113281 209.59375 471.824219 209.59375 C 471.535156 209.59375 471.433594 209.816406 471.605469 210.089844 M 472.84375 209.816406 C 472.84375 209.933594 473.265625 210.773438 473.777344 211.675781 C 474.292969 212.582031 474.835938 214.101562 474.984375 215.058594 L 475.257812 216.796875 L 474.492188 215.058594 C 474.070312 214.101562 473.523438 212.785156 473.273438 212.132812 C 473.023438 211.480469 472.6875 211.078125 472.527344 211.234375 C 471.699219 212.066406 479.523438 228.984375 484.128906 236.320312 C 486.695312 240.40625 491.828125 247.195312 492.914062 247.933594 C 493.1875 248.121094 493.589844 248.164062 493.808594 248.027344 C 494.027344 247.894531 494.203125 248.125 494.203125 248.539062 C 494.203125 250.546875 501.8125 255.789062 504.726562 255.789062 C 505.449219 255.789062 506.132812 256.066406 506.246094 256.402344 C 506.503906 257.179688 512.171875 257.234375 513.136719 256.46875 C 513.515625 256.171875 514.382812 255.789062 515.066406 255.621094 C 517.035156 255.132812 519.257812 253.101562 518.886719 252.132812 C 518.710938 251.671875 518.167969 251.175781 517.683594 251.027344 C 517.199219 250.878906 516.039062 250.382812 515.105469 249.921875 C 514.171875 249.460938 513.277344 249.074219 513.117188 249.0625 C 512.960938 249.050781 512.046875 248.628906 511.09375 248.128906 C 506.789062 245.863281 501.003906 241.195312 494.160156 234.46875 C 490.085938 230.464844 486.753906 227.316406 486.753906 227.480469 C 486.753906 227.640625 487.03125 228.097656 487.375 228.496094 C 487.714844 228.890625 487.046875 228.332031 485.882812 227.25 C 483.90625 225.410156 483.019531 223.972656 484.382812 224.816406 C 484.71875 225.023438 484.550781 224.617188 484.011719 223.917969 C 478.683594 217.007812 473.839844 210.398438 473.839844 210.039062 C 473.839844 209.792969 473.617188 209.59375 473.34375 209.59375 C 473.070312 209.59375 472.84375 209.691406 472.84375 209.816406 M 475.8125 215.03125 C 476.09375 215.5625 476.574219 216.148438 476.875 216.332031 C 477.171875 216.519531 477.035156 216.085938 476.566406 215.367188 C 475.570312 213.851562 475.054688 213.621094 475.8125 215.03125 M 423.71875 216.695312 C 423.09375 217.742188 423.101562 217.753906 423.957031 216.933594 C 424.449219 216.460938 424.746094 215.96875 424.617188 215.835938 C 424.484375 215.707031 424.082031 216.09375 423.71875 216.695312 M 477.8125 217.730469 C 477.8125 217.832031 478.203125 218.222656 478.683594 218.597656 C 479.46875 219.214844 479.488281 219.199219 478.871094 218.410156 C 478.21875 217.582031 477.8125 217.320312 477.8125 217.730469 M 476.601562 220.171875 C 476.789062 220.660156 477.066406 220.9375 477.21875 220.785156 C 477.371094 220.628906 477.21875 220.230469 476.878906 219.894531 C 476.390625 219.40625 476.332031 219.464844 476.601562 220.171875 M 480.214844 220.894531 C 480.753906 221.644531 481.816406 222.820312 482.574219 223.503906 C 483.363281 224.207031 483.027344 223.621094 481.800781 222.136719 C 479.492188 219.34375 478.605469 218.652344 480.214844 220.894531 M 495.0625 221.265625 C 496.28125 223.046875 498.089844 224.75 498.417969 224.421875 C 498.546875 224.292969 497.617188 223.195312 496.347656 221.980469 C 494.5625 220.269531 494.273438 220.113281 495.0625 221.265625 M 419.660156 221.886719 L 418.457031 223.253906 L 419.820312 222.050781 C 421.097656 220.925781 421.414062 220.523438 421.027344 220.523438 C 420.9375 220.523438 420.320312 221.136719 419.660156 221.886719 M 477.847656 222.757812 C 477.847656 223.03125 478.167969 223.8125 478.558594 224.496094 C 478.949219 225.179688 479.265625 225.515625 479.265625 225.242188 C 479.265625 224.96875 478.949219 224.183594 478.558594 223.503906 C 478.167969 222.820312 477.847656 222.484375 477.847656 222.757812 M 480.046875 227.476562 C 480.472656 228.296875 480.929688 228.964844 481.066406 228.964844 C 481.203125 228.964844 480.96875 228.296875 480.542969 227.476562 C 480.121094 226.65625 479.664062 225.984375 479.527344 225.984375 C 479.390625 225.984375 479.625 226.65625 480.046875 227.476562 M 501.65625 226.671875 C 501.65625 226.773438 502.046875 227.164062 502.523438 227.539062 C 503.3125 228.15625 503.328125 228.140625 502.710938 227.351562 C 502.0625 226.523438 501.65625 226.261719 501.65625 226.671875 M 492.464844 234.429688 C 494.914062 236.890625 497.027344 238.902344 497.164062 238.902344 C 497.300781 238.902344 495.410156 236.890625 492.960938 234.429688 C 490.515625 231.972656 488.402344 229.960938 488.265625 229.960938 C 488.128906 229.960938 490.019531 231.972656 492.464844 234.429688 M 401.253906 240.265625 C 400.636719 241.054688 400.65625 241.070312 401.441406 240.453125 C 402.269531 239.804688 402.53125 239.398438 402.125 239.398438 C 402.023438 239.398438 401.628906 239.789062 401.253906 240.265625 M 487.746094 240.390625 C 488.039062 240.9375 488.390625 241.382812 488.527344 241.382812 C 488.664062 241.382812 488.535156 240.9375 488.242188 240.390625 C 487.949219 239.84375 487.601562 239.398438 487.464844 239.398438 C 487.328125 239.398438 487.453125 239.84375 487.746094 240.390625 M 489.980469 243.371094 C 490.476562 243.917969 490.992188 244.363281 491.128906 244.363281 C 491.265625 244.363281 490.972656 243.917969 490.480469 243.371094 C 489.984375 242.824219 489.46875 242.378906 489.332031 242.378906 C 489.195312 242.378906 489.488281 242.824219 489.980469 243.371094 M 828.242188 304.699219 C 817.414062 306.019531 810.175781 308.527344 802.664062 313.5625 C 799.960938 315.375 792.726562 322.636719 792.726562 323.535156 C 792.726562 323.890625 792.28125 324.585938 791.734375 325.078125 C 790.34375 326.339844 786.082031 335.320312 784.902344 339.484375 C 784.359375 341.398438 783.609375 344.636719 783.230469 346.6875 C 782.339844 351.527344 782.320312 366.199219 783.199219 370.53125 C 785.554688 382.152344 789.550781 390.644531 795.671875 397.039062 C 798.515625 400.015625 799.933594 401.164062 803.710938 403.550781 C 807.691406 406.066406 812.585938 407.894531 819.800781 409.558594 C 825.457031 410.863281 843.609375 410.875 850.097656 409.574219 C 854.136719 408.761719 858.878906 407.390625 861.523438 406.265625 C 862.070312 406.03125 863.335938 405.515625 864.339844 405.113281 C 865.34375 404.714844 866.53125 403.828125 866.980469 403.144531 C 867.742188 401.980469 867.730469 401.75 866.800781 399.503906 C 865.847656 397.203125 862.703125 388.328125 862.046875 386.097656 C 861.589844 384.539062 860.609375 384.367188 857.9375 385.378906 C 852.300781 387.519531 849.242188 388.1875 839.292969 389.457031 C 834.355469 390.085938 832.0625 389.898438 825.261719 388.304688 C 822.679688 387.699219 817.042969 384.417969 815.089844 382.382812 C 810.738281 377.84375 808.46875 371.8125 807.617188 362.519531 C 806.484375 350.195312 808.730469 340.605469 814.222656 334.269531 C 816.253906 331.925781 820.945312 328.421875 822.777344 327.871094 C 830.042969 325.699219 829.964844 325.710938 836.59375 325.941406 C 843.597656 326.191406 845.710938 326.59375 852.332031 328.9375 C 854.65625 329.757812 857.292969 330.457031 858.191406 330.488281 C 859.738281 330.542969 859.890625 330.382812 861.042969 327.5625 C 861.714844 325.925781 862.265625 324.394531 862.265625 324.160156 C 862.265625 323.929688 862.570312 323.035156 862.9375 322.175781 C 865.007812 317.347656 865.796875 314.789062 865.65625 313.351562 C 865.523438 312.003906 865.128906 311.554688 863.261719 310.605469 C 857.617188 307.734375 849.710938 305.621094 841.15625 304.699219 C 833.804688 303.90625 834.761719 303.90625 828.242188 304.699219 M 591.304688 305.1875 C 583.238281 306.277344 579.066406 307.757812 573.679688 311.4375 C 568.757812 314.796875 565.019531 319.988281 562.980469 326.289062 C 561.773438 330.019531 561.675781 330.902344 561.867188 336.417969 C 562.117188 343.652344 562.980469 346.257812 566.804688 351.339844 C 571.898438 358.105469 576.21875 360.59375 595.53125 367.871094 C 599.800781 369.480469 605.425781 372.359375 606.898438 373.6875 C 608.605469 375.222656 609.914062 378.378906 609.917969 380.960938 C 609.921875 384.457031 608.289062 386.875 604.722656 388.660156 L 601.742188 390.148438 L 591.433594 390.226562 C 585.765625 390.269531 581.238281 390.125 581.371094 389.90625 C 581.507812 389.691406 580.890625 389.378906 580.003906 389.210938 C 578.496094 388.929688 571.632812 386.347656 568.601562 384.925781 C 566.9375 384.144531 565.972656 384.777344 565.285156 387.097656 C 565.03125 387.957031 564.007812 390.894531 563.007812 393.625 C 559.640625 402.832031 559.78125 402.257812 560.679688 403.15625 C 562.300781 404.777344 570.066406 407.644531 577.402344 409.332031 C 581.535156 410.28125 606.058594 410.296875 609.9375 409.351562 C 622.082031 406.394531 629.074219 400.734375 632.867188 390.789062 C 634.351562 386.898438 634.691406 377.417969 633.539062 372.210938 C 632.234375 366.335938 629.132812 361.246094 624.488281 357.359375 C 621.566406 354.917969 611.332031 349.515625 606.035156 347.617188 C 596.691406 344.269531 594.289062 343.21875 590.703125 340.925781 C 587.355469 338.78125 586.097656 336.765625 586.097656 333.523438 C 586.097656 330.558594 587.273438 328.382812 589.644531 326.953125 C 592.226562 325.398438 599.25 324.703125 605.535156 325.378906 C 610.140625 325.875 617.816406 327.800781 619.125 328.789062 C 620.992188 330.195312 623.445312 329.578125 623.984375 327.5625 C 624.132812 327.015625 625.308594 323.886719 626.601562 320.609375 C 627.894531 317.332031 629.054688 313.929688 629.183594 313.050781 C 629.402344 311.535156 629.285156 311.394531 626.753906 310.253906 C 622.636719 308.398438 615 306.023438 611.429688 305.492188 C 605.570312 304.621094 596.515625 304.484375 591.304688 305.1875 M 334.757812 306.5 C 334.078125 306.695312 332.175781 306.886719 330.539062 306.929688 C 328.898438 306.976562 326.167969 307.277344 324.46875 307.601562 C 319.050781 308.636719 319.59375 302.847656 319.71875 358.273438 C 319.777344 384.980469 319.960938 407.050781 320.121094 407.308594 C 320.28125 407.570312 321.460938 407.816406 322.742188 407.859375 L 325.074219 407.9375 L 322.589844 408.28125 C 321.148438 408.476562 324.683594 408.648438 331.035156 408.691406 C 338.246094 408.738281 341.707031 408.597656 341.214844 408.28125 C 340.71875 407.957031 340.679688 407.796875 341.09375 407.789062 C 341.433594 407.785156 341.738281 407.28125 341.773438 406.664062 C 341.820312 405.773438 341.902344 405.847656 342.191406 407.039062 C 342.964844 410.238281 343.203125 406.542969 343.328125 389.652344 L 343.453125 372.269531 L 348.675781 372.128906 L 353.902344 371.988281 L 356.917969 376.101562 C 361.277344 382.050781 365.976562 389.386719 369.972656 396.484375 C 371.554688 399.292969 373.128906 402.105469 374.699219 404.921875 C 376.386719 407.949219 378.066406 410.03125 377.375 408.238281 C 377.144531 407.640625 378.941406 407.554688 389.210938 407.675781 C 398.511719 407.785156 401.320312 407.675781 401.320312 407.207031 C 401.320312 406.875 401.664062 407.035156 402.089844 407.5625 C 402.832031 408.488281 402.847656 408.480469 402.527344 407.285156 C 402.191406 406.050781 396.9375 395.835938 396.390625 395.363281 C 396.230469 395.226562 395.523438 394 394.8125 392.632812 C 391.445312 386.140625 386.183594 377.917969 380.0625 369.570312 L 378.445312 367.367188 L 379.824219 366.539062 C 380.582031 366.085938 382.226562 365.132812 383.480469 364.421875 C 386.734375 362.578125 390.195312 359.339844 392.433594 356.042969 C 393.496094 354.480469 394.363281 352.988281 394.363281 352.730469 C 394.363281 352.476562 394.699219 351.625 395.105469 350.839844 C 395.515625 350.058594 395.851562 348.738281 395.851562 347.902344 C 395.851562 347.070312 396.117188 346.125 396.441406 345.804688 C 397.355469 344.886719 397.152344 335.152344 396.128906 331.03125 C 394.648438 325.070312 392.648438 321.515625 388.390625 317.300781 C 385.40625 314.34375 383.621094 313.050781 380.390625 311.511719 C 376.105469 309.464844 369.171875 307.328125 364.808594 306.710938 C 361.460938 306.238281 336.320312 306.0625 334.757812 306.5 M 74.574219 306.820312 L 72.433594 307.011719 L 69.484375 313.222656 C 67.863281 316.640625 66.535156 319.558594 66.535156 319.707031 C 66.535156 319.855469 65.753906 321.648438 64.796875 323.691406 C 63.839844 325.734375 63.058594 327.535156 63.058594 327.699219 C 63.058594 328.035156 61.378906 331.832031 60.300781 333.9375 C 59.90625 334.710938 59.582031 335.550781 59.582031 335.804688 C 59.582031 336.058594 59.160156 337.214844 58.648438 338.371094 C 58.132812 339.53125 57.214844 341.707031 56.609375 343.210938 C 55.277344 346.503906 54.566406 348.171875 53.179688 351.277344 C 52.601562 352.570312 52.128906 353.828125 52.128906 354.070312 C 52.128906 354.3125 51.601562 355.710938 50.953125 357.179688 C 49.878906 359.609375 48.097656 364.210938 44.824219 373.011719 C 44.164062 374.789062 43.289062 377.136719 42.878906 378.226562 C 42.46875 379.320312 41.902344 380.996094 41.621094 381.953125 C 41.339844 382.910156 40.816406 384.363281 40.464844 385.183594 C 39.488281 387.445312 38.464844 390.238281 36.730469 395.363281 C 35.867188 397.925781 34.71875 400.957031 34.183594 402.097656 C 33.648438 403.238281 33.164062 405.152344 33.105469 406.351562 L 33.007812 408.527344 L 55.976562 408.792969 L 56.738281 407.632812 C 57.15625 406.992188 58.175781 404.476562 59 402.035156 C 59.828125 399.597656 61.09375 396.035156 61.816406 394.125 C 62.539062 392.210938 63.371094 389.976562 63.671875 389.15625 C 63.96875 388.335938 64.457031 387.5 64.753906 387.300781 C 65.050781 387.101562 73.589844 386.933594 83.734375 386.929688 C 98.882812 386.921875 102.277344 387.042969 102.75 387.613281 C 103.066406 387.992188 104.441406 391.625 105.8125 395.683594 C 107.183594 399.742188 108.628906 403.769531 109.027344 404.628906 C 109.421875 405.488281 109.75 406.40625 109.75 406.664062 C 109.75 406.921875 110.15625 407.503906 110.65625 407.953125 C 111.445312 408.667969 113.039062 408.777344 122.765625 408.777344 C 136.070312 408.777344 135.738281 408.910156 134.089844 404.195312 C 133.492188 402.480469 132.820312 400.40625 132.597656 399.585938 C 132.371094 398.765625 131.289062 395.636719 130.191406 392.632812 C 129.089844 389.628906 127.917969 386.386719 127.589844 385.429688 C 127.257812 384.476562 126.796875 383.246094 126.566406 382.699219 C 126.148438 381.703125 123.140625 373.515625 121.824219 369.785156 C 120.964844 367.347656 116.339844 355.441406 115.460938 353.394531 C 115.105469 352.574219 114.371094 350.785156 113.824219 349.417969 C 112.445312 345.984375 110.265625 340.679688 109.738281 339.484375 C 109.496094 338.9375 107.605469 334.46875 105.53125 329.550781 C 103.460938 324.632812 100.359375 317.59375 98.640625 313.902344 L 95.519531 307.199219 L 92.824219 306.875 C 89.96875 306.53125 78.179688 306.496094 74.574219 306.820312 M 151.351562 306.820312 C 149.105469 306.960938 148.386719 307.214844 147.960938 308.007812 C 147.578125 308.722656 147.46875 323.371094 147.582031 358.078125 C 147.71875 398.746094 147.863281 407.273438 148.429688 407.957031 C 149.050781 408.703125 152.015625 408.777344 182.003906 408.777344 C 213.695312 408.777344 214.929688 408.742188 215.753906 407.832031 C 216.507812 407 216.589844 405.859375 216.449219 398.167969 C 216.335938 391.84375 216.117188 389.273438 215.644531 388.808594 C 215.136719 388.300781 210.460938 388.15625 193.683594 388.136719 C 181.960938 388.125 172.191406 387.9375 171.976562 387.722656 C 171.765625 387.511719 171.546875 369.441406 171.492188 347.566406 C 171.421875 319.351562 171.238281 307.640625 170.847656 307.25 C 170.304688 306.707031 157.574219 306.425781 151.351562 306.820312 M 680.765625 306.828125 C 654.285156 306.921875 643.367188 307.117188 642.890625 307.511719 C 642.378906 307.9375 642.222656 310.101562 642.222656 316.867188 C 642.222656 324.765625 642.316406 325.753906 643.132812 326.492188 C 643.933594 327.21875 645.710938 327.316406 658.050781 327.316406 C 669.039062 327.316406 672.113281 327.453125 672.304688 327.957031 C 672.441406 328.308594 672.601562 346.421875 672.660156 368.207031 C 672.757812 402.796875 672.867188 407.878906 673.515625 408.289062 C 674.664062 409.015625 695.035156 408.914062 695.769531 408.179688 C 696.222656 407.726562 696.367188 398.242188 696.371094 368.566406 C 696.375 347.109375 696.515625 329.046875 696.679688 328.433594 L 696.976562 327.316406 L 711.554688 327.316406 C 725.746094 327.316406 726.148438 327.289062 726.679688 326.296875 C 727.21875 325.289062 727.203125 307.785156 726.664062 307.308594 C 726.105469 306.8125 716.144531 306.707031 680.765625 306.828125 M 742.808594 306.9375 L 740.820312 307.199219 L 740.820312 408.527344 L 751.933594 408.660156 C 759.714844 408.753906 763.253906 408.625 763.730469 408.226562 C 764.695312 407.429688 764.761719 307.71875 763.796875 307.121094 C 763.097656 306.691406 745.859375 306.539062 742.808594 306.9375 M 221.257812 308.054688 C 221.101562 308.675781 221.039062 312.980469 221.117188 317.617188 L 221.261719 326.046875 L 222.503906 326.671875 C 223.414062 327.132812 227.421875 327.300781 237.527344 327.308594 L 251.3125 327.316406 L 251.375 364.445312 C 251.40625 384.867188 251.574219 403.136719 251.746094 405.050781 L 252.054688 408.527344 L 263.039062 408.660156 C 271.835938 408.769531 274.136719 408.660156 274.585938 408.117188 C 274.992188 407.628906 275.183594 396.335938 275.273438 367.503906 L 275.402344 327.5625 L 289.777344 327.433594 C 302.277344 327.316406 304.265625 327.195312 305.050781 326.484375 C 305.855469 325.757812 305.949219 324.734375 305.949219 316.796875 L 305.949219 307.917969 L 304.757812 307.464844 C 304.082031 307.207031 285.90625 306.992188 262.550781 306.964844 L 221.535156 306.917969 Z M 438.074219 307.71875 C 438.074219 308.007812 433.628906 308.136719 426.628906 308.050781 L 415.183594 307.90625 L 415.363281 343.066406 C 415.53125 376.746094 415.585938 378.394531 416.574219 382.203125 C 418.289062 388.8125 419.4375 391.453125 422.503906 395.863281 C 427.386719 402.886719 437.617188 408.957031 446.414062 410.058594 C 448.457031 410.3125 449.050781 410.25 448.78125 409.8125 C 448.503906 409.363281 450.300781 409.289062 456.285156 409.496094 C 468.6875 409.925781 469.800781 409.878906 473.207031 408.777344 C 477.226562 407.476562 482.488281 405.007812 483.285156 404.046875 C 483.621094 403.640625 484.167969 403.3125 484.503906 403.3125 C 485.300781 403.3125 490.085938 398.25 492.164062 395.210938 C 494.441406 391.878906 496.515625 387.121094 497.792969 382.3125 C 498.847656 378.332031 498.878906 377.339844 499.046875 343.253906 C 499.183594 315.035156 499.089844 308.195312 498.570312 307.855469 C 497.929688 307.4375 477.484375 307.78125 476.769531 308.222656 C 476.5625 308.351562 476.234375 308.207031 476.046875 307.898438 C 475.800781 307.503906 475.578125 307.539062 475.273438 308.015625 C 475.039062 308.386719 474.839844 323.554688 474.832031 341.71875 C 474.820312 376.929688 474.808594 377.121094 472.347656 382.203125 C 471.003906 384.976562 467.859375 387.617188 464.339844 388.925781 C 461.695312 389.90625 461.691406 389.914062 463.65625 389.707031 L 465.644531 389.496094 L 464.152344 390.175781 C 462.417969 390.960938 460.605469 391.085938 460.210938 390.445312 C 459.933594 390 453.484375 390.171875 451.925781 390.664062 C 451.476562 390.808594 449.855469 390.457031 448.328125 389.882812 C 446.234375 389.101562 445.011719 388.210938 443.371094 386.269531 C 441.054688 383.53125 438.832031 378.597656 438.273438 374.964844 C 437.804688 371.890625 438.324219 372.648438 439.316406 376.476562 C 440.144531 379.675781 440.972656 381.703125 441.3125 381.363281 C 441.414062 381.265625 441.019531 379.847656 440.4375 378.214844 C 439.414062 375.328125 439.378906 374.363281 439.191406 341.71875 C 439.078125 322.105469 438.804688 307.996094 438.535156 307.71875 C 438.246094 307.421875 438.074219 307.421875 438.074219 307.71875 M 520.902344 308.128906 C 520.085938 308.757812 520.03125 311.726562 520.03125 358.03125 L 520.03125 407.265625 L 521.152344 407.539062 C 521.765625 407.6875 527.015625 407.859375 532.816406 407.921875 C 541.222656 408.007812 543.417969 407.894531 543.621094 407.371094 C 543.976562 406.445312 543.925781 309.925781 543.570312 308.597656 C 543.285156 307.53125 543.144531 307.515625 532.527344 307.488281 C 524.234375 307.464844 521.570312 307.613281 520.902344 308.128906 M 382.445312 313.570312 C 382.445312 313.691406 383.839844 314.816406 385.546875 316.074219 C 387.253906 317.328125 389.414062 319.480469 390.34375 320.851562 C 392.277344 323.695312 392.777344 324.0625 391.585938 321.765625 C 390.652344 319.953125 386.207031 315.574219 383.964844 314.25 C 383.128906 313.753906 382.445312 313.449219 382.445312 313.570312 M 346.929688 326.320312 L 343.453125 326.570312 L 343.1875 352.804688 L 352.074219 352.496094 C 359.980469 352.222656 361.339844 352.046875 364.375 350.90625 C 370.28125 348.679688 372.09375 346.035156 372.199219 339.484375 C 372.269531 335.050781 371.535156 332.917969 369.191406 330.722656 C 367.566406 329.199219 363.96875 327.304688 362.117188 326.996094 C 358.078125 326.316406 351.238281 326.015625 346.929688 326.320312 M 394.175781 328.058594 C 394.355469 328.878906 394.695312 329.886719 394.933594 330.296875 C 395.214844 330.773438 395.253906 330.503906 395.050781 329.550781 C 394.871094 328.730469 394.53125 327.726562 394.289062 327.316406 C 394.011719 326.839844 393.96875 327.105469 394.175781 328.058594 M 82.460938 334.394531 C 82.21875 335.007812 81.527344 336.851562 80.925781 338.492188 C 80.320312 340.128906 79.085938 343.371094 78.183594 345.695312 C 75.710938 352.027344 74.21875 356.015625 72.984375 359.601562 C 72.371094 361.378906 71.707031 363.054688 71.503906 363.328125 C 71.300781 363.601562 70.988281 364.636719 70.808594 365.628906 C 70.558594 367.03125 70.664062 367.503906 71.28125 367.738281 C 71.71875 367.910156 77.539062 368.046875 84.207031 368.046875 L 96.335938 368.046875 L 96.328125 366.929688 C 96.316406 365.886719 94.597656 360.753906 91.707031 353.144531 C 91.035156 351.367188 89.46875 347.234375 88.230469 343.957031 C 84.054688 332.890625 83.453125 331.894531 82.460938 334.394531 M 341.808594 340.976562 C 341.820312 341.792969 341.929688 342.070312 342.058594 341.585938 C 342.183594 341.101562 342.175781 340.433594 342.039062 340.097656 C 341.902344 339.761719 341.800781 340.15625 341.808594 340.976562 M 363.570312 351.902344 C 362.613281 352.269531 362.164062 352.578125 362.574219 352.585938 C 362.984375 352.597656 363.992188 352.296875 364.808594 351.921875 C 366.730469 351.042969 365.835938 351.03125 363.570312 351.902344 M 391.101562 356 C 389.558594 358.359375 385.320312 362.058594 382.082031 363.867188 C 378.117188 366.085938 377.988281 366.636719 381.925781 364.539062 C 385.300781 362.742188 390.207031 358.472656 391.535156 356.183594 C 392.644531 354.269531 392.324219 354.136719 391.101562 356 M 379.488281 370.695312 C 380.421875 372.015625 381.386719 373.222656 381.636719 373.375 C 382.46875 373.890625 380.226562 370.484375 379.003906 369.382812 C 378.078125 368.546875 378.191406 368.851562 379.488281 370.695312 M 383.199219 375.777344 C 383.660156 376.613281 384.480469 377.84375 385.023438 378.507812 L 386.003906 379.71875 L 385.164062 378.195312 C 384.703125 377.359375 383.882812 376.128906 383.34375 375.464844 L 382.359375 374.253906 Z M 416.832031 378.476562 C 416.832031 379.433594 416.933594 379.824219 417.058594 379.347656 C 417.183594 378.867188 417.183594 378.085938 417.058594 377.609375 C 416.933594 377.128906 416.832031 377.519531 416.832031 378.476562 M 474.871094 377.886719 C 474.761719 379.6875 471.882812 384.265625 469.476562 386.46875 C 468.007812 387.808594 467.058594 388.90625 467.363281 388.90625 C 469.355469 388.90625 475.882812 379.644531 475.160156 377.847656 C 474.972656 377.386719 474.902344 377.394531 474.871094 377.886719 M 497.261719 378.476562 C 497.261719 379.160156 497.375 379.4375 497.511719 379.097656 C 497.652344 378.757812 497.652344 378.199219 497.511719 377.855469 C 497.375 377.515625 497.261719 377.792969 497.261719 378.476562 M 341.875 382.699219 C 341.878906 384.609375 341.96875 385.332031 342.074219 384.300781 C 342.183594 383.273438 342.183594 381.707031 342.070312 380.824219 C 341.960938 379.945312 341.875 380.785156 341.875 382.699219 M 386.914062 381.457031 C 387.496094 382.277344 388.085938 382.945312 388.222656 382.945312 C 388.359375 382.945312 387.996094 382.277344 387.410156 381.457031 C 386.828125 380.636719 386.238281 379.96875 386.101562 379.96875 C 385.964844 379.96875 386.332031 380.636719 386.914062 381.457031 M 441.550781 382.125 C 441.550781 383.382812 444.726562 387.417969 445.714844 387.417969 C 445.992188 387.417969 445.535156 386.691406 444.707031 385.804688 C 443.875 384.914062 442.824219 383.636719 442.371094 382.960938 C 441.921875 382.285156 441.550781 381.910156 441.550781 382.125 M 389.335938 385.273438 C 389.910156 386.414062 390.644531 387.515625 390.976562 387.71875 C 391.304688 387.921875 391.046875 387.210938 390.40625 386.140625 C 388.726562 383.335938 388.117188 382.84375 389.335938 385.273438 M 418.246094 385.222656 C 418.269531 385.800781 418.386719 385.921875 418.546875 385.523438 C 418.691406 385.164062 418.671875 384.738281 418.507812 384.570312 C 418.34375 384.40625 418.226562 384.699219 418.246094 385.222656 M 495.179688 386.5 C 494.859375 387.6875 494.476562 388.882812 494.328125 389.15625 C 494.148438 389.488281 494.230469 389.488281 494.582031 389.15625 C 495.160156 388.605469 496.28125 384.859375 495.960938 384.539062 C 495.851562 384.429688 495.5 385.308594 495.179688 386.5 M 566.722656 385.445312 C 566.722656 385.710938 567.058594 385.925781 567.46875 385.925781 C 567.878906 385.925781 568.214844 385.839844 568.214844 385.730469 C 568.214844 385.625 567.878906 385.410156 567.46875 385.25 C 567.058594 385.09375 566.722656 385.183594 566.722656 385.445312 M 418.972656 387.542969 C 419.160156 388.15625 419.515625 388.878906 419.765625 389.144531 C 420.015625 389.410156 419.96875 388.910156 419.660156 388.027344 C 419.03125 386.222656 418.453125 385.8125 418.972656 387.542969 M 366.050781 388.410156 C 366.34375 388.957031 366.695312 389.40625 366.832031 389.40625 C 366.96875 389.40625 366.839844 388.957031 366.550781 388.410156 C 366.257812 387.863281 365.90625 387.417969 365.769531 387.417969 C 365.632812 387.417969 365.757812 387.863281 366.050781 388.410156 M 392.128906 389.902344 C 392.554688 390.722656 393.011719 391.390625 393.148438 391.390625 C 393.285156 391.390625 393.050781 390.722656 392.625 389.902344 C 392.203125 389.082031 391.742188 388.410156 391.609375 388.410156 C 391.472656 388.410156 391.707031 389.082031 392.128906 389.902344 M 448.007812 389.15625 C 448.691406 389.546875 449.808594 389.855469 450.492188 389.84375 C 451.585938 389.828125 451.527344 389.746094 449.996094 389.15625 C 447.683594 388.265625 446.449219 388.265625 448.007812 389.15625 M 420.195312 390.058594 C 420.195312 391.683594 424.984375 398.382812 428.140625 401.167969 C 431.910156 404.488281 442.902344 409.304688 446.519531 409.21875 C 447.996094 409.179688 447.808594 409.066406 445.277344 408.460938 C 438.574219 406.859375 435.117188 405.316406 430.375 401.8125 C 426.648438 399.058594 424.125 396.335938 422.054688 392.832031 C 421.03125 391.09375 420.195312 389.847656 420.195312 390.058594 M 491.828125 393.46875 C 490.660156 395.375 489.917969 396.800781 490.183594 396.632812 C 490.792969 396.257812 494.375 390.398438 494.132812 390.171875 C 494.035156 390.078125 493 391.5625 491.828125 393.46875 M 394.117188 393.378906 C 394.539062 394.199219 395 394.867188 395.136719 394.867188 C 395.273438 394.867188 395.035156 394.199219 394.613281 393.378906 C 394.1875 392.558594 393.730469 391.886719 393.59375 391.886719 C 393.457031 391.886719 393.691406 392.558594 394.117188 393.378906 M 395.855469 396.042969 C 395.855469 396.582031 398.324219 401.324219 398.605469 401.324219 C 398.742188 401.324219 398.261719 400.152344 397.542969 398.71875 C 396.15625 395.960938 395.855469 395.480469 395.855469 396.042969 M 487.539062 399.230469 L 486.585938 400.582031 L 487.910156 399.375 C 489.304688 398.109375 489.476562 397.839844 488.863281 397.863281 C 488.660156 397.871094 488.0625 398.488281 487.539062 399.230469 M 478.527344 405.574219 C 477.621094 406.304688 477.636719 406.3125 478.804688 405.757812 C 480.328125 405.03125 480.609375 404.800781 479.976562 404.800781 C 479.710938 404.800781 479.058594 405.148438 478.527344 405.574219 M 375.988281 405.765625 C 375.988281 406.023438 376.207031 406.371094 376.476562 406.539062 C 376.757812 406.710938 376.84375 406.511719 376.671875 406.070312 C 376.34375 405.210938 375.988281 405.050781 375.988281 405.765625 M 329.917969 408.144531 C 330.941406 408.25 332.617188 408.25 333.640625 408.144531 C 334.667969 408.039062 333.828125 407.949219 331.777344 407.949219 C 329.730469 407.949219 328.890625 408.039062 329.917969 408.144531 M 338.640625 408.121094 C 339 408.265625 339.425781 408.246094 339.589844 408.082031 C 339.757812 407.917969 339.464844 407.800781 338.941406 407.820312 C 338.363281 407.847656 338.242188 407.964844 338.640625 408.121094 M 469.863281 408.28125 C 469.183594 408.5 467.671875 408.699219 466.511719 408.726562 C 465.351562 408.753906 464.402344 408.960938 464.402344 409.183594 C 464.402344 409.679688 470.125 409.035156 471.851562 408.34375 C 472.875 407.933594 472.917969 407.847656 472.101562 407.863281 C 471.554688 407.875 470.546875 408.0625 469.863281 408.28125 M 381.34375 408.648438 C 383.0625 408.746094 385.746094 408.746094 387.304688 408.644531 C 388.867188 408.546875 387.460938 408.46875 384.183594 408.46875 C 380.902344 408.46875 379.628906 408.550781 381.34375 408.648438 M 394.011719 408.648438 C 395.589844 408.746094 398.050781 408.746094 399.472656 408.644531 C 400.898438 408.546875 399.605469 408.464844 396.601562 408.464844 C 393.59375 408.464844 392.429688 408.546875 394.011719 408.648438 M 521.894531 408.609375 C 522.238281 408.746094 522.796875 408.746094 523.136719 408.609375 C 523.480469 408.472656 523.199219 408.359375 522.515625 408.359375 C 521.832031 408.359375 521.554688 408.472656 521.894531 408.609375 M 536.066406 408.644531 C 537.371094 408.746094 539.382812 408.746094 540.539062 408.644531 C 541.691406 408.539062 540.621094 408.453125 538.164062 408.457031 C 535.703125 408.457031 534.761719 408.542969 536.066406 408.644531 M 656.628906 433.628906 C 651.191406 434.105469 647.800781 435.042969 642.652344 437.5 C 635.882812 440.730469 632.15625 444.703125 629.285156 451.742188 C 628.1875 454.433594 628.070312 455.394531 628.101562 461.675781 C 628.140625 469.410156 628.625 471.140625 632.09375 475.972656 C 636.535156 482.152344 640.488281 484.507812 657.222656 490.957031 C 665.183594 494.023438 669.398438 496.46875 670.792969 498.828125 C 672.03125 500.925781 672.042969 505.394531 670.816406 507.453125 C 668.578125 511.203125 661.46875 512.726562 651.066406 511.6875 C 646.261719 511.207031 644.058594 510.6875 638.972656 508.84375 C 633.847656 506.988281 632.640625 506.707031 632.101562 507.242188 C 631.464844 507.878906 630.070312 511.441406 627.414062 519.21875 L 626.082031 523.113281 L 627.515625 524.257812 C 631.113281 527.128906 641.160156 529.8125 650.933594 530.511719 C 662.714844 531.355469 674.203125 529.851562 680.222656 526.675781 C 686.9375 523.128906 691.160156 518.441406 693.164062 512.3125 C 694.824219 507.222656 694.914062 497.984375 693.34375 493.210938 C 690.902344 485.769531 685.070312 479.980469 676 475.988281 C 674.773438 475.449219 672.871094 474.609375 671.777344 474.121094 C 669.707031 473.195312 661.082031 469.984375 659.359375 469.496094 C 657.777344 469.050781 653.535156 466.167969 651.910156 464.441406 C 650.578125 463.019531 650.421875 462.519531 650.421875 459.695312 C 650.421875 455.855469 651.445312 454.5 655.488281 452.988281 C 658.78125 451.757812 665.816406 451.636719 670.992188 452.726562 C 672.917969 453.132812 675.199219 453.585938 676.0625 453.738281 C 676.925781 453.890625 678.613281 454.464844 679.8125 455.007812 C 682.832031 456.382812 684.113281 455.683594 685.78125 451.742188 C 686.476562 450.101562 687.449219 447.867188 687.945312 446.773438 C 689.691406 442.929688 690.15625 441.070312 689.601562 440.191406 C 688.058594 437.746094 677.617188 434.355469 669.296875 433.597656 C 663.769531 433.097656 662.699219 433.101562 656.628906 433.628906 M 318.617188 434.898438 C 309.832031 435.582031 306.921875 436.074219 305.6875 437.101562 C 304.589844 438.011719 304.582031 526.5625 305.679688 527.472656 C 306.078125 527.804688 308.125 528.148438 310.222656 528.242188 C 312.523438 528.34375 314.1875 528.648438 314.414062 529.011719 C 315.03125 530.007812 332.136719 530.511719 341.464844 529.8125 C 350.679688 529.117188 356.691406 527.511719 364.5625 523.636719 C 368.589844 521.652344 369.972656 520.617188 374 516.578125 C 379.066406 511.496094 381.492188 507.832031 383.832031 501.726562 C 386.269531 495.375 386.585938 493.449219 386.800781 483.691406 C 387.03125 473.226562 386.398438 468.53125 383.859375 461.851562 C 382.324219 457.824219 378.789062 451.898438 378.042969 452.113281 C 377.800781 452.179688 376.183594 450.816406 374.453125 449.074219 C 372.722656 447.332031 370.460938 445.375 369.425781 444.722656 C 368.390625 444.066406 367.542969 443.398438 367.542969 443.234375 C 367.542969 442.832031 369.800781 444.316406 372.386719 446.417969 C 373.546875 447.363281 374.496094 447.921875 374.496094 447.664062 C 374.496094 446.523438 367.179688 441.609375 362.210938 439.40625 C 351.519531 434.667969 338.6875 433.339844 318.617188 434.898438 M 420.304688 434.476562 C 418.863281 434.574219 417.8125 434.863281 417.964844 435.113281 C 418.128906 435.378906 416.902344 435.441406 414.980469 435.261719 C 413.09375 435.082031 410.933594 435.183594 409.867188 435.5 C 408.855469 435.800781 407.382812 436.179688 406.601562 436.34375 C 405.816406 436.507812 405.304688 436.769531 405.464844 436.929688 C 405.621094 437.085938 406.792969 436.953125 408.066406 436.632812 C 409.339844 436.3125 410.480469 436.152344 410.605469 436.277344 C 410.730469 436.402344 409.53125 436.78125 407.9375 437.121094 C 406.347656 437.460938 404.707031 438.046875 404.300781 438.425781 C 403.648438 439.023438 403.546875 444.605469 403.503906 482.433594 C 403.472656 506.257812 403.546875 526.234375 403.667969 526.824219 C 403.882812 527.882812 404.011719 527.894531 413.902344 527.816406 L 423.917969 527.738281 L 424.535156 524.261719 L 424.605469 526.25 C 424.660156 527.730469 424.800781 528.046875 425.160156 527.492188 C 425.789062 526.515625 425.816406 504.300781 425.1875 503.914062 C 424.929688 503.753906 424.636719 504.675781 424.535156 505.996094 C 424.429688 507.300781 424.304688 505.726562 424.257812 502.5 C 424.203125 498.949219 424.351562 496.75 424.632812 496.921875 C 424.890625 497.082031 425.289062 496.871094 425.523438 496.457031 C 425.828125 495.914062 427.1875 495.617188 430.453125 495.386719 L 434.960938 495.066406 L 437.082031 497.742188 C 438.25 499.214844 439.789062 501.292969 440.503906 502.363281 L 442.546875 505.417969 C 442.957031 506.03125 444.503906 508.507812 445.988281 510.925781 C 448.550781 515.101562 449.542969 516.835938 453.839844 524.65625 C 454.859375 526.511719 455.761719 527.824219 455.847656 527.570312 C 455.933594 527.316406 455.40625 526.019531 454.675781 524.691406 C 449.128906 514.597656 447.367188 511.597656 443.730469 506.078125 C 441.460938 502.636719 438.816406 498.871094 437.847656 497.710938 C 436.878906 496.554688 436.089844 495.476562 436.089844 495.320312 C 436.089844 494.578125 438.902344 497.804688 441.1875 501.164062 C 442.578125 503.214844 444.460938 505.949219 445.367188 507.246094 C 446.273438 508.539062 447.015625 509.734375 447.015625 509.898438 C 447.015625 510.066406 447.433594 510.792969 447.9375 511.519531 C 449.066406 513.128906 450.933594 516.441406 453.871094 522.027344 C 455.089844 524.347656 456.34375 526.523438 456.652344 526.859375 C 457.042969 527.285156 460.339844 527.578125 467.339844 527.8125 C 476.769531 528.125 477.503906 528.085938 478.117188 527.246094 C 478.71875 526.425781 478.808594 526.417969 479.09375 527.167969 C 479.265625 527.617188 479.601562 527.988281 479.835938 527.988281 C 481.4375 527.988281 463.296875 497.265625 460.1875 494.707031 C 459.6875 494.296875 461.160156 496.761719 463.457031 500.183594 C 468.710938 508.015625 470.464844 510.804688 471.800781 513.457031 C 473.339844 516.511719 472.714844 516.050781 470.859375 512.761719 C 468.550781 508.671875 464.199219 502.078125 460.328125 496.816406 C 456.695312 491.875 456.179688 490.855469 458.277344 492.757812 L 459.601562 493.960938 L 458.773438 492.734375 C 458.316406 492.058594 457.945312 491.351562 457.945312 491.164062 C 457.945312 490.972656 459.390625 490.011719 461.160156 489.019531 C 467.25 485.613281 472.65625 478.90625 473.96875 473.125 C 474.21875 472.019531 474.542969 469.238281 474.683594 466.949219 C 475.433594 454.792969 469.570312 444.351562 459.367188 439.683594 C 452.203125 436.402344 441.996094 434.0625 441.46875 435.578125 C 441.367188 435.871094 440.351562 435.894531 438.820312 435.636719 L 436.335938 435.21875 L 438.574219 435.09375 L 440.808594 434.96875 L 438.324219 434.582031 C 435.835938 434.195312 425.226562 434.132812 420.304688 434.476562 M 802.664062 434.882812 C 799.519531 435.234375 796.503906 435.636719 795.957031 435.777344 C 795.410156 435.917969 794.363281 436.160156 793.632812 436.3125 C 790.546875 436.960938 790.742188 433.832031 790.742188 482.855469 C 790.742188 512.71875 790.914062 527.875 791.253906 528.515625 C 791.734375 529.410156 792.378906 529.476562 800.742188 529.476562 C 812.203125 529.476562 812.347656 529.414062 812.839844 524.132812 C 813.03125 522.097656 813.113281 514.996094 813.023438 508.351562 C 812.929688 501.707031 813.035156 496.089844 813.257812 495.871094 C 813.476562 495.648438 815.597656 495.523438 817.96875 495.59375 C 822.261719 495.714844 822.289062 495.722656 823.945312 497.570312 C 825.371094 499.160156 827.542969 502.328125 833.21875 511.097656 C 833.835938 512.054688 834.960938 513.953125 835.71875 515.320312 C 836.472656 516.6875 837.339844 518.25 837.640625 518.796875 C 839.917969 522.898438 842.628906 527.035156 843.691406 528.035156 C 844.929688 529.199219 845.210938 529.234375 854.667969 529.390625 C 866.078125 529.582031 866.738281 529.484375 866.738281 527.578125 C 866.738281 525.652344 862.503906 517.4375 856.59375 507.890625 C 855.753906 506.535156 854.84375 505.042969 854.570312 504.570312 C 852.695312 501.339844 850.917969 498.660156 848.582031 495.554688 C 847.105469 493.585938 845.890625 491.722656 845.886719 491.410156 C 845.882812 491.101562 847.410156 489.933594 849.289062 488.820312 C 855.207031 485.304688 859.296875 479.992188 861.320312 473.195312 C 862.195312 470.25 862.332031 468.773438 862.144531 464.183594 C 861.792969 455.625 859.476562 449.855469 854.402344 444.910156 C 850.273438 440.886719 846.351562 438.886719 837.679688 436.386719 C 829.777344 434.109375 815.199219 433.484375 802.664062 434.882812 M 33.128906 435.792969 C 32.3125 436.414062 32.261719 439.210938 32.261719 482.144531 C 32.261719 525.777344 32.300781 527.871094 33.171875 528.65625 C 33.945312 529.359375 35.414062 529.476562 43.257812 529.476562 C 50.40625 529.476562 52.648438 529.320312 53.402344 528.769531 C 54.324219 528.097656 54.367188 527.277344 54.417969 509.964844 C 54.445312 500.011719 54.625 491.609375 54.820312 491.300781 C 55.070312 490.894531 60.046875 490.734375 72.425781 490.734375 C 85.183594 490.734375 89.835938 490.578125 90.277344 490.136719 C 90.691406 489.722656 90.875 487.097656 90.875 481.523438 C 90.875 474.40625 90.773438 473.410156 89.972656 472.6875 C 89.179688 471.96875 87.011719 471.855469 71.964844 471.742188 L 54.863281 471.609375 L 54.554688 463.167969 C 54.382812 458.523438 54.339844 454.554688 54.457031 454.347656 C 54.578125 454.144531 63.453125 453.976562 74.1875 453.976562 C 92.605469 453.976562 93.746094 453.925781 94.539062 453.050781 C 95.238281 452.277344 95.394531 450.851562 95.484375 444.4375 C 95.566406 438.527344 95.433594 436.558594 94.910156 435.925781 C 94.289062 435.175781 91.578125 435.101562 64.113281 435.117188 C 39.859375 435.128906 33.832031 435.261719 33.128906 435.792969 M 108.550781 436.046875 C 107.757812 436.921875 107.710938 439.304688 107.890625 469.699219 C 108.078125 501.972656 108.09375 502.453125 109.195312 505.882812 C 111.367188 512.652344 113.625 516.507812 117.921875 520.792969 C 123.789062 526.636719 129.554688 529.292969 139.054688 530.535156 C 144.914062 531.300781 145.964844 531.300781 152.570312 530.550781 C 167.257812 528.878906 177.445312 521.691406 181.917969 509.855469 C 182.433594 508.492188 183.277344 505.363281 183.789062 502.902344 C 184.640625 498.816406 184.71875 495.78125 184.734375 467.589844 C 184.75 438.328125 184.707031 436.703125 183.84375 435.925781 C 183.070312 435.222656 181.609375 435.101562 173.886719 435.101562 C 164.941406 435.101562 164.824219 435.117188 163.621094 436.320312 L 162.398438 437.539062 L 162.398438 467.78125 C 162.398438 497.144531 162.371094 498.113281 161.359375 501.207031 C 159.25 507.660156 154.660156 511.011719 147.308594 511.46875 C 139.84375 511.933594 134.507812 509.15625 131.894531 503.441406 C 129.925781 499.140625 129.621094 493.96875 129.617188 464.847656 C 129.617188 438.15625 129.601562 437.699219 128.585938 436.410156 L 127.558594 435.101562 L 118.480469 435.101562 C 110.195312 435.101562 109.332031 435.183594 108.550781 436.046875 M 204.402344 436.207031 C 203.714844 437.183594 203.628906 442.292969 203.628906 481.34375 C 203.628906 505.5625 203.765625 526.066406 203.933594 526.902344 C 204.371094 529.101562 206.003906 529.476562 215.144531 529.476562 C 221.570312 529.476562 223.261719 529.328125 224.257812 528.675781 L 225.484375 527.871094 L 225.484375 499.121094 C 225.484375 481.429688 225.664062 470.367188 225.953125 470.367188 C 226.519531 470.367188 233.5 478.882812 237.960938 485.023438 C 247.675781 498.386719 253.609375 507.445312 262.226562 522.070312 C 262.972656 523.355469 263.710938 524.644531 264.441406 525.941406 C 265.285156 527.441406 266.15625 528.421875 266.515625 528.285156 C 266.855469 528.152344 267.402344 528.367188 267.726562 528.761719 C 268.191406 529.320312 269.773438 529.476562 274.867188 529.476562 C 282.363281 529.476562 283.882812 529.035156 284.269531 526.75 C 284.40625 525.929688 284.480469 505.289062 284.429688 480.882812 C 284.34375 437.585938 284.320312 436.496094 283.378906 435.808594 C 282.03125 434.824219 264.898438 434.8125 263.605469 435.792969 C 262.796875 436.40625 262.734375 438.230469 262.734375 461.578125 C 262.734375 476.195312 262.546875 486.820312 262.28125 486.980469 C 262.035156 487.136719 259.53125 483.964844 256.722656 479.933594 C 253.914062 475.902344 251.105469 471.933594 250.480469 471.113281 C 249.855469 470.292969 247.609375 467.246094 245.484375 464.34375 C 239.6875 456.414062 229.753906 444.347656 224.988281 439.449219 L 220.765625 435.101562 L 212.96875 435.101562 C 205.476562 435.101562 205.144531 435.144531 204.402344 436.207031 M 521.117188 435.53125 C 520.757812 435.757812 520.125 436.59375 519.707031 437.386719 C 517.449219 441.6875 511.089844 456.199219 506.882812 466.644531 C 504.242188 473.199219 501.78125 479.234375 501.410156 480.054688 C 500.246094 482.648438 497.671875 489.261719 495.136719 496.199219 C 493.785156 499.886719 492.148438 504.355469 491.496094 506.132812 C 488.355469 514.675781 486.144531 520.878906 485.914062 521.777344 C 485.773438 522.324219 485.234375 523.71875 484.714844 524.878906 C 483.5625 527.453125 483.480469 528.351562 484.472656 527.527344 C 484.953125 527.128906 485.277344 527.109375 485.496094 527.464844 C 485.703125 527.800781 489.191406 527.988281 495.199219 527.988281 C 504.351562 527.988281 504.597656 527.960938 505.398438 526.871094 L 506.21875 525.75 L 505.890625 526.871094 C 505.710938 527.484375 505.753906 527.988281 505.992188 527.988281 C 506.230469 527.988281 506.902344 526.480469 507.480469 524.632812 C 508.0625 522.789062 509.503906 518.542969 510.6875 515.199219 L 512.832031 509.117188 L 530.605469 509.113281 C 544.382812 509.113281 548.421875 509.25 548.582031 509.734375 C 548.691406 510.074219 550.007812 513.816406 551.503906 518.054688 C 553.003906 522.289062 554.300781 526.199219 554.394531 526.746094 C 554.53125 527.554688 555.074219 527.792969 557.292969 528.03125 C 559.695312 528.289062 559.78125 528.332031 558.03125 528.410156 C 556.546875 528.476562 556.234375 528.621094 556.789062 528.980469 C 557.921875 529.710938 576.316406 529.621094 577.054688 528.882812 C 577.75 528.1875 577.855469 525.6875 577.210938 525.289062 C 576.972656 525.140625 576.667969 524.402344 576.535156 523.648438 C 576.253906 522.023438 573.632812 514.703125 566.046875 494.367188 C 559.605469 477.089844 550.496094 455.214844 544.21875 441.933594 C 542.058594 437.359375 541.179688 435.988281 540.152344 435.597656 C 538.578125 435 522.046875 434.941406 521.117188 435.53125 M 590.394531 436.011719 C 589.640625 436.839844 589.574219 440.789062 589.574219 482.601562 C 589.574219 517.472656 589.714844 528.425781 590.167969 528.882812 C 590.589844 529.300781 593.503906 529.476562 600.101562 529.476562 C 608.804688 529.476562 609.511719 529.410156 610.441406 528.476562 C 611.433594 527.484375 611.441406 527.019531 611.3125 481.992188 C 611.183594 437.625 611.15625 436.496094 610.214844 435.808594 C 609.464844 435.257812 607.238281 435.101562 600.234375 435.101562 C 592.128906 435.101562 591.132812 435.195312 590.394531 436.011719 M 710.644531 435.636719 C 709.828125 436.113281 709.777344 438.863281 709.777344 482.230469 L 709.777344 528.316406 L 710.894531 528.910156 C 712.546875 529.789062 775.03125 529.492188 775.921875 528.601562 C 776.542969 527.980469 776.988281 514.726562 776.472656 512.25 C 776.054688 510.257812 774.390625 510.128906 752.71875 510.394531 C 741.394531 510.535156 732.117188 510.585938 732.097656 510.503906 C 731.847656 509.308594 731.617188 491.359375 731.839844 490.46875 L 732.148438 489.242188 L 749.710938 489.242188 C 763.984375 489.242188 767.378906 489.117188 767.839844 488.5625 C 768.199219 488.132812 768.449219 485 768.523438 480.015625 L 768.636719 472.152344 L 767.394531 471.515625 C 766.460938 471.035156 761.976562 470.878906 749.140625 470.871094 L 732.128906 470.867188 L 732.078125 468.257812 C 732.046875 466.824219 731.933594 463.527344 731.820312 460.929688 C 731.707031 458.335938 731.734375 455.710938 731.882812 455.09375 L 732.148438 453.976562 L 751.914062 453.976562 C 768.1875 453.976562 771.847656 453.851562 772.640625 453.273438 C 773.507812 452.636719 773.621094 451.808594 773.773438 444.871094 C 773.929688 437.613281 773.882812 437.117188 772.902344 436.140625 C 771.875 435.109375 771.636719 435.101562 741.691406 435.117188 C 722.121094 435.125 711.210938 435.308594 710.648438 435.636719 M 451.347656 437.851562 C 466.3125 442.855469 471.410156 448.601562 473.578125 462.917969 C 474.242188 467.289062 474.277344 467.382812 474.066406 464.160156 C 473.351562 453.335938 469.921875 446.8125 462.5 442.1875 C 458.960938 439.980469 450.390625 436.554688 448.582031 436.625 C 448.132812 436.640625 449.375 437.195312 451.347656 437.851562 M 516.625 445.484375 C 515.160156 448.890625 515.339844 449.382812 516.839844 446.078125 C 517.507812 444.601562 517.972656 443.308594 517.871094 443.207031 C 517.769531 443.105469 517.207031 444.128906 516.625 445.484375 M 376.046875 450.003906 C 376.925781 451.09375 377.746094 451.886719 377.871094 451.761719 C 378.15625 451.476562 375.398438 448.101562 374.84375 448.050781 C 374.628906 448.03125 375.167969 448.910156 376.046875 450.003906 M 514.796875 449.539062 C 514.617188 449.832031 514.574219 450.175781 514.707031 450.304688 C 514.835938 450.4375 515.074219 450.199219 515.238281 449.777344 C 515.574219 448.902344 515.285156 448.746094 514.796875 449.539062 M 330.429688 452.355469 C 331.734375 452.457031 333.746094 452.457031 334.898438 452.351562 C 336.050781 452.25 334.984375 452.164062 332.523438 452.167969 C 330.066406 452.167969 329.121094 452.253906 330.429688 452.355469 M 429.132812 452.488281 L 432.363281 452.8125 L 429.722656 452.898438 C 424.960938 453.054688 425.160156 452.558594 425.160156 464.113281 C 425.160156 469.671875 425.296875 474.894531 425.460938 475.722656 C 425.847656 477.644531 426.507812 477.746094 435.664062 477.234375 C 441.125 476.929688 443.410156 476.589844 445.417969 475.773438 C 448.390625 474.570312 451.167969 471.695312 451.742188 469.230469 C 451.980469 468.199219 452.1875 467.933594 452.324219 468.46875 C 452.566406 469.402344 450.949219 472.847656 449.847656 473.765625 C 449.449219 474.09375 447.925781 475.023438 446.457031 475.832031 C 444.976562 476.648438 444.195312 477.308594 444.707031 477.3125 C 447.773438 477.34375 451.960938 473.058594 453.273438 468.539062 C 454.988281 462.640625 451.746094 455.25 446.867188 453.9375 C 445.800781 453.648438 444.828125 453.515625 444.707031 453.636719 C 444.585938 453.757812 445.085938 454.007812 445.820312 454.191406 C 447.8125 454.691406 450.445312 456.894531 451.449219 458.902344 C 452.464844 460.9375 453.175781 464.09375 452.527344 463.691406 C 452.289062 463.546875 451.941406 462.585938 451.75 461.558594 C 451.09375 458.011719 447.953125 455.199219 443.539062 454.203125 C 441.847656 453.820312 441.832031 453.796875 443.042969 453.402344 C 443.925781 453.113281 443.632812 453.058594 442.011719 453.21875 C 440.761719 453.339844 438.082031 453.277344 436.050781 453.085938 L 432.363281 452.734375 L 436.335938 452.453125 C 439.375 452.238281 438.617188 452.171875 433.109375 452.167969 C 427.910156 452.164062 426.804688 452.25 429.132812 452.488281 M 328.300781 453.429688 L 327.058594 453.773438 L 327.058594 510.851562 L 333.019531 510.996094 C 342.710938 511.234375 350.011719 509.398438 354.695312 505.542969 C 357.269531 503.425781 358.246094 503.070312 356.828125 504.765625 C 356.3125 505.378906 356.722656 505.113281 357.742188 504.171875 C 358.761719 503.230469 359.59375 502.355469 359.59375 502.230469 C 359.59375 502.105469 359.148438 502.410156 358.601562 502.902344 C 357.195312 504.175781 357.367188 503.332031 358.878906 501.535156 C 365.445312 493.734375 366.503906 475.214844 360.949219 465.339844 C 359.21875 462.265625 355.664062 458.410156 353.136719 456.871094 C 348.746094 454.199219 333.253906 452.050781 328.300781 453.429688 M 379.015625 454.691406 C 379.589844 455.664062 380.152344 456.460938 380.269531 456.460938 C 380.625 456.460938 379.011719 453.566406 378.472656 453.234375 C 378.195312 453.0625 378.441406 453.71875 379.015625 454.691406 M 512.890625 453.746094 C 512.414062 454.996094 512.554688 455.320312 513.140625 454.3125 C 513.429688 453.8125 513.5625 453.300781 513.433594 453.171875 C 513.304688 453.046875 513.0625 453.304688 512.890625 453.746094 M 814.582031 453.441406 L 813.339844 453.773438 L 813.339844 477.074219 L 817.316406 477.230469 C 823.511719 477.472656 830.253906 476.519531 833.445312 474.945312 C 837.703125 472.847656 839.796875 468.78125 839.269531 463.636719 C 839.03125 461.277344 837.570312 457.886719 836.269531 456.664062 C 834.757812 455.238281 829.5625 454.015625 823.773438 453.722656 C 820.496094 453.554688 817.363281 453.347656 816.820312 453.265625 C 816.273438 453.179688 815.265625 453.257812 814.582031 453.441406 M 510.410156 459.707031 C 509.929688 460.957031 510.070312 461.28125 510.65625 460.273438 C 510.945312 459.773438 511.078125 459.261719 510.949219 459.132812 C 510.824219 459.003906 510.578125 459.265625 510.410156 459.707031 M 529.058594 462.046875 C 528.425781 463.757812 527.601562 465.933594 527.222656 466.890625 C 526.433594 468.886719 523.429688 476.890625 520.882812 483.78125 C 519.921875 486.375 519 489.113281 518.832031 489.863281 L 518.523438 491.230469 L 530.371094 491.230469 C 536.886719 491.230469 542.355469 491.09375 542.523438 490.925781 C 542.785156 490.664062 541.714844 487.164062 540.410156 484.027344 C 540.183594 483.480469 539.496094 481.582031 538.882812 479.804688 C 538.269531 478.03125 537.488281 475.90625 537.144531 475.085938 C 536.796875 474.269531 535.238281 470.300781 533.675781 466.269531 C 532.113281 462.242188 530.695312 458.945312 530.523438 458.945312 C 530.351562 458.945312 529.691406 460.339844 529.058594 462.046875 M 509.1875 462.691406 C 508.355469 464.515625 508.511719 464.90625 509.414062 463.246094 C 509.832031 462.472656 510.082031 461.742188 509.96875 461.628906 C 509.855469 461.515625 509.503906 461.992188 509.1875 462.691406 M 383.476562 464.199219 C 383.5 464.78125 383.617188 464.898438 383.777344 464.5 C 383.921875 464.144531 383.902344 463.714844 383.738281 463.550781 C 383.574219 463.382812 383.457031 463.675781 383.476562 464.199219 M 473.4375 469.125 C 473.449219 469.945312 473.558594 470.222656 473.6875 469.738281 C 473.8125 469.253906 473.804688 468.585938 473.667969 468.246094 C 473.53125 467.910156 473.429688 468.308594 473.4375 469.125 M 505.441406 471.847656 C 504.320312 474.648438 504.492188 475.066406 505.675781 472.40625 C 506.207031 471.207031 506.554688 470.136719 506.445312 470.027344 C 506.335938 469.917969 505.886719 470.738281 505.441406 471.847656 M 472.65625 473.074219 C 471.605469 478.375 466.628906 484.445312 460.304688 488.128906 C 458.1875 489.363281 456.457031 490.621094 456.460938 490.925781 C 456.46875 491.316406 456.574219 491.324219 456.835938 490.941406 C 457.035156 490.644531 458.605469 489.660156 460.324219 488.75 C 464.09375 486.757812 467.191406 484.105469 469.617188 480.796875 C 471.519531 478.207031 473.511719 473.292969 473.21875 471.921875 C 473.121094 471.476562 472.867188 471.996094 472.65625 473.074219 M 502.828125 478.40625 C 501.066406 482.894531 500.953125 483.273438 501.691406 482.09375 C 502.523438 480.769531 504.667969 475.203125 504.4375 474.972656 C 504.332031 474.867188 503.609375 476.414062 502.828125 478.40625 M 439.8125 477.820312 L 437.828125 478.175781 L 439.566406 478.195312 C 440.523438 478.207031 441.863281 478.039062 442.546875 477.820312 C 444.140625 477.308594 442.667969 477.308594 439.8125 477.820312 M 590.203125 482.289062 C 590.203125 483.519531 590.300781 484.023438 590.421875 483.40625 C 590.539062 482.792969 590.539062 481.785156 590.421875 481.171875 C 590.300781 480.558594 590.203125 481.058594 590.203125 482.289062 M 497.496094 491.996094 C 497.015625 493.242188 497.15625 493.566406 497.742188 492.558594 C 498.03125 492.058594 498.164062 491.546875 498.035156 491.421875 C 497.910156 491.292969 497.664062 491.550781 497.496094 491.996094 M 590.148438 492.71875 C 590.148438 493.402344 590.261719 493.683594 590.398438 493.339844 C 590.535156 493 590.535156 492.441406 590.398438 492.101562 C 590.261719 491.757812 590.148438 492.039062 590.148438 492.71875 M 385.003906 493.714844 C 385.003906 494.398438 385.117188 494.675781 385.257812 494.335938 C 385.394531 493.992188 385.394531 493.433594 385.257812 493.09375 C 385.117188 492.75 385.003906 493.03125 385.003906 493.714844 M 495.582031 497.074219 C 493.140625 503.429688 490.648438 510.691406 490.839844 510.882812 C 491.007812 511.050781 493.03125 505.796875 496.277344 496.761719 C 497.671875 492.875 497.09375 493.136719 495.582031 497.074219 M 590.265625 501.164062 C 590.265625 504.851562 590.34375 506.363281 590.4375 504.515625 C 590.535156 502.671875 590.535156 499.65625 590.4375 497.8125 C 590.34375 495.96875 590.265625 497.476562 590.265625 501.164062 M 384.46875 495.992188 C 384.492188 496.570312 384.613281 496.6875 384.769531 496.289062 C 384.914062 495.933594 384.894531 495.503906 384.730469 495.339844 C 384.566406 495.175781 384.449219 495.46875 384.46875 495.992188 M 425.238281 499.179688 C 425.238281 499.859375 425.351562 500.140625 425.488281 499.796875 C 425.628906 499.457031 425.628906 498.898438 425.488281 498.558594 C 425.351562 498.214844 425.238281 498.496094 425.238281 499.179688 M 381.234375 504.992188 C 380.964844 505.699219 381.019531 505.757812 381.511719 505.269531 C 381.851562 504.933594 382.003906 504.53125 381.851562 504.378906 C 381.699219 504.226562 381.421875 504.503906 381.234375 504.992188 M 377.964844 510.476562 C 377.046875 511.777344 376.730469 512.460938 377.261719 512 C 378.1875 511.195312 380.21875 508.117188 379.824219 508.117188 C 379.71875 508.117188 378.882812 509.179688 377.964844 510.476562 M 511.816406 508.648438 C 511.636719 508.941406 511.597656 509.285156 511.726562 509.414062 C 511.855469 509.546875 512.09375 509.308594 512.257812 508.886719 C 512.59375 508.011719 512.308594 507.855469 511.816406 508.648438 M 424.265625 509.855469 C 424.273438 510.675781 424.386719 510.953125 424.511719 510.46875 C 424.636719 509.984375 424.628906 509.316406 424.492188 508.980469 C 424.355469 508.640625 424.253906 509.039062 424.265625 509.855469 M 510.90625 510.871094 C 510.425781 512.117188 510.566406 512.441406 511.152344 511.433594 C 511.441406 510.9375 511.574219 510.421875 511.449219 510.296875 C 511.320312 510.167969 511.074219 510.425781 510.90625 510.871094 M 590.242188 515.074219 C 590.242188 517.394531 590.328125 518.34375 590.433594 517.183594 C 590.539062 516.023438 590.539062 514.121094 590.433594 512.960938 C 590.328125 511.800781 590.242188 512.75 590.242188 515.074219 M 489.789062 513.140625 C 489.484375 514.019531 489.320312 514.824219 489.425781 514.929688 C 489.53125 515.035156 489.871094 514.40625 490.175781 513.527344 C 490.480469 512.648438 490.644531 511.84375 490.539062 511.738281 C 490.433594 511.632812 490.09375 512.261719 489.789062 513.140625 M 374.957031 514.453125 L 373.75 515.816406 L 375.117188 514.613281 C 376.394531 513.488281 376.710938 513.085938 376.320312 513.085938 C 376.230469 513.085938 375.617188 513.699219 374.957031 514.453125 M 371.976562 517.417969 C 371.09375 518.40625 371.035156 518.574219 371.761719 518.039062 C 373.34375 516.875 374.105469 516.066406 373.625 516.066406 C 373.378906 516.066406 372.636719 516.675781 371.976562 517.417969 M 475.40625 520.882812 C 476.851562 523.667969 478.113281 525.863281 478.214844 525.761719 C 478.449219 525.527344 474.535156 517.988281 473.539062 516.753906 C 473.121094 516.238281 473.960938 518.097656 475.40625 520.882812 M 488.058594 517.824219 C 487.578125 519.074219 487.71875 519.394531 488.304688 518.386719 C 488.59375 517.890625 488.726562 517.378906 488.597656 517.25 C 488.472656 517.121094 488.226562 517.378906 488.058594 517.824219 M 361.085938 524.011719 C 360.675781 524.277344 360.5625 524.496094 360.835938 524.496094 C 361.109375 524.496094 361.667969 524.277344 362.078125 524.011719 C 362.488281 523.75 362.601562 523.53125 362.328125 523.53125 C 362.054688 523.53125 361.496094 523.75 361.085938 524.011719 M 576.476562 527.738281 C 576.320312 528.148438 576.410156 528.484375 576.671875 528.484375 C 576.9375 528.484375 577.15625 528.148438 577.15625 527.738281 C 577.15625 527.328125 577.066406 526.992188 576.960938 526.992188 C 576.851562 526.992188 576.636719 527.328125 576.476562 527.738281 M 350.0625 527.828125 C 350.421875 527.972656 350.851562 527.957031 351.015625 527.789062 C 351.179688 527.625 350.886719 527.507812 350.363281 527.53125 C 349.785156 527.554688 349.667969 527.671875 350.0625 527.828125 M 347.3125 528.332031 C 347.792969 528.457031 348.464844 528.449219 348.800781 528.3125 C 349.136719 528.175781 348.742188 528.074219 347.921875 528.085938 C 347.101562 528.09375 346.828125 528.207031 347.3125 528.332031 M 563.121094 528.351562 C 564.285156 528.457031 566.183594 528.457031 567.34375 528.351562 C 568.507812 528.246094 567.554688 528.160156 565.234375 528.160156 C 562.910156 528.160156 561.960938 528.246094 563.121094 528.351562 M 404.796875 528.980469 C 405.796875 529.628906 423.023438 529.628906 423.421875 528.980469 C 423.625 528.65625 420.324219 528.488281 413.890625 528.492188 C 407.355469 528.496094 404.300781 528.660156 404.796875 528.980469 M 460.179688 528.988281 C 461.472656 529.554688 478.453125 529.507812 479.355469 528.9375 C 479.765625 528.675781 475.8125 528.511719 469.617188 528.527344 C 463.203125 528.542969 459.566406 528.722656 460.179688 528.988281 M 485.015625 528.980469 C 485.386719 529.582031 500.507812 529.605469 503.394531 529.007812 C 504.710938 528.738281 501.90625 528.578125 495.042969 528.542969 C 488.265625 528.503906 484.8125 528.65625 485.015625 528.980469 " fill-opacity="1" fill-rule="evenodd"/></svg>