<svg xmlns="http://www.w3.org/2000/svg" xmlns:xlink="http://www.w3.org/1999/xlink" width="780" zoomAndPan="magnify" viewBox="0 0 585 262.499992" height="350" preserveAspectRatio="xMidYMid meet" version="1.0"><defs><clipPath id="0dd9302cd2"><path d="M 0.554688 12 L 584.441406 12 L 584.441406 262 L 0.554688 262 Z M 0.554688 12 " clip-rule="nonzero"/></clipPath></defs><g clip-path="url(#0dd9302cd2)"><path fill="#e6bd17" d="M 48.023438 14.027344 C 47.441406 14.675781 46.960938 15.640625 46.960938 16.175781 C 46.960938 16.710938 46.390625 18.4375 45.691406 20.019531 C 42.210938 27.890625 40.621094 42.871094 41.90625 55.710938 C 43.453125 71.128906 48.773438 82.496094 60.578125 95.585938 C 67.386719 103.140625 72.152344 107.0625 82.21875 113.390625 C 86.621094 116.160156 102.328125 124.335938 103.246094 124.335938 C 103.460938 124.335938 104.835938 124.859375 106.304688 125.5 C 112.863281 128.367188 115.707031 129.441406 122.195312 131.519531 C 130.667969 134.230469 149.71875 139.035156 157.765625 140.488281 C 177.742188 144.097656 190.160156 145.863281 203.410156 146.988281 C 237.542969 149.882812 264.792969 151.003906 264.792969 149.515625 C 264.792969 149.171875 263.164062 148.882812 261.171875 148.878906 C 259.183594 148.871094 257.128906 148.59375 256.609375 148.257812 C 255.828125 147.753906 255.882812 147.648438 256.921875 147.65625 C 259.972656 147.679688 267.617188 148.941406 268.191406 149.515625 C 268.539062 149.863281 269.917969 150.148438 271.257812 150.148438 C 273.503906 150.148438 273.617188 150.066406 272.679688 149.128906 C 272.070312 148.519531 269.847656 147.898438 267.125 147.574219 C 264.632812 147.28125 259.757812 146.597656 256.292969 146.054688 C 252.832031 145.511719 248.015625 144.789062 245.589844 144.449219 C 243.167969 144.109375 240.050781 143.582031 238.664062 143.277344 C 237.28125 142.96875 235.15625 142.523438 233.945312 142.28125 C 228.550781 141.207031 212.253906 137.011719 204.355469 134.660156 C 199.09375 133.097656 183.210938 127.804688 180.746094 126.792969 C 180.050781 126.507812 176.371094 125.097656 172.5625 123.65625 C 158.117188 118.195312 134.730469 105.867188 119.164062 95.507812 C 102.550781 84.453125 80.847656 63.441406 69.78125 47.703125 C 69.003906 46.59375 68.367188 45.535156 68.367188 45.351562 C 68.367188 45.164062 67.445312 43.664062 66.320312 42.019531 C 62.851562 36.949219 60.691406 33.03125 55.632812 22.65625 C 53.945312 19.195312 52.214844 15.65625 51.789062 14.792969 C 50.804688 12.808594 49.390625 12.519531 48.023438 14.027344 M 536.144531 13.835938 C 535.71875 14.351562 534.050781 17.539062 532.4375 20.917969 C 522.160156 42.453125 514.738281 52.984375 497.128906 71.019531 C 480.605469 87.945312 459.535156 102.492188 432.625 115.5625 C 426.253906 118.65625 420.863281 121.1875 420.644531 121.1875 C 420.425781 121.1875 416.363281 122.726562 411.617188 124.609375 C 387.675781 134.105469 358.761719 141.90625 334.359375 145.449219 C 330.550781 146.003906 326.074219 146.71875 324.414062 147.042969 C 322.753906 147.363281 320.152344 147.628906 318.636719 147.628906 C 316.277344 147.628906 313.898438 148.757812 313.898438 149.875 C 313.898438 150.023438 315.671875 150.113281 317.835938 150.070312 C 320.855469 150.015625 321.328125 149.894531 319.878906 149.550781 C 318.066406 149.117188 318.101562 149.085938 320.824219 148.707031 C 327.507812 147.78125 330.976562 147.617188 330.589844 148.246094 C 330.371094 148.597656 328.953125 148.886719 327.4375 148.886719 C 325.917969 148.886719 324.472656 149.214844 324.226562 149.617188 C 323.730469 150.421875 342.570312 150.023438 358.597656 148.894531 C 363.273438 148.566406 369.933594 148.140625 373.394531 147.945312 C 392.996094 146.851562 423.53125 142.050781 446.109375 136.511719 C 449.464844 135.6875 452.824219 134.871094 456.183594 134.0625 C 472.761719 130.105469 497.292969 119 512.214844 108.703125 C 518.152344 104.605469 529.898438 92.371094 534.695312 85.296875 C 540.226562 77.132812 544.410156 65.296875 545.507812 54.707031 C 546.488281 45.191406 545.308594 31.363281 543.035156 25.804688 C 542.75 25.113281 542.390625 23.695312 542.234375 22.65625 C 541.941406 20.703125 539.960938 15.070312 539.082031 13.6875 C 538.410156 12.628906 537.09375 12.695312 536.144531 13.835938 M 506.234375 125.058594 C 501.84375 128.5625 484.429688 137 475.382812 140.003906 C 455.886719 146.476562 437.992188 150.089844 407.707031 153.664062 C 394.550781 155.21875 355.964844 156.640625 341.519531 156.105469 C 334.445312 155.839844 330.277344 155.917969 330.035156 156.3125 C 329.570312 157.066406 332.300781 158.957031 333.867188 158.96875 C 334.484375 158.976562 336.265625 159.425781 337.824219 159.972656 C 345.136719 162.535156 371.804688 168.871094 386.300781 171.492188 C 408.347656 175.476562 421.816406 176.871094 438.242188 176.871094 C 456.832031 176.871094 469.808594 174.570312 483.253906 168.902344 C 500.121094 161.792969 511.078125 147.394531 512.570312 130.378906 C 513.011719 125.34375 512.242188 122.417969 510.5 122.496094 C 509.886719 122.523438 507.964844 123.679688 506.234375 125.058594 M 74.308594 125.269531 C 73.558594 129.257812 74.960938 137.621094 77.273438 142.972656 C 83.363281 157.058594 92.96875 165.425781 109.917969 171.414062 C 129.628906 178.382812 163.117188 178.664062 197.113281 172.152344 C 210.082031 169.667969 217.222656 168.15625 223.992188 166.46875 C 227.304688 165.640625 230.625 164.828125 233.945312 164.023438 C 236.542969 163.398438 241.359375 162.125 244.648438 161.199219 C 247.9375 160.269531 251.484375 159.289062 252.53125 159.019531 C 255.066406 158.367188 257.4375 157.0625 256.964844 156.585938 C 256.753906 156.378906 245.328125 156.15625 231.570312 156.09375 C 208.488281 155.992188 201.035156 155.65625 182.003906 153.859375 C 171.082031 152.828125 155.6875 150.871094 150.363281 149.839844 L 142.027344 148.222656 C 117.921875 143.546875 94.5625 134.890625 80.808594 125.53125 C 76.214844 122.40625 74.855469 122.351562 74.308594 125.269531 M 250.15625 146.785156 C 250.589844 146.960938 251.296875 146.960938 251.730469 146.785156 C 252.164062 146.613281 251.808594 146.46875 250.941406 146.46875 C 250.078125 146.46875 249.722656 146.613281 250.15625 146.785156 M 249.527344 158.117188 C 249.960938 158.292969 250.667969 158.292969 251.101562 158.117188 C 251.53125 157.945312 251.179688 157.800781 250.3125 157.800781 C 249.449219 157.800781 249.09375 157.945312 249.527344 158.117188 M 326.828125 165.851562 C 326.105469 167.015625 326.996094 167.597656 351.988281 182.234375 C 365.683594 190.253906 387.738281 200.722656 399.707031 204.882812 C 424.585938 213.527344 443.707031 215.261719 458.386719 210.207031 C 467.640625 207.019531 477.207031 197.632812 480.644531 188.367188 C 482.113281 184.40625 482.363281 181.925781 481.351562 181.300781 C 480.996094 181.082031 478.941406 181.488281 476.785156 182.199219 C 470.125 184.40625 457.996094 186.226562 445.164062 186.945312 C 431.683594 187.703125 397.097656 184.101562 381.894531 180.359375 C 378.507812 179.523438 374.511719 178.632812 368.988281 177.480469 C 366.21875 176.902344 362.109375 175.898438 359.859375 175.25 C 356.292969 174.234375 352.726562 173.230469 349.15625 172.242188 C 342.316406 170.34375 333.574219 167.628906 329.507812 166.140625 C 328.207031 165.664062 327.023438 165.535156 326.828125 165.851562 M 257.707031 166.253906 C 257.503906 166.460938 256.394531 166.859375 255.242188 167.144531 C 254.089844 167.429688 250.597656 168.425781 247.480469 169.359375 C 240.78125 171.363281 233.867188 173.3125 230.796875 174.066406 C 229.585938 174.359375 227.035156 175.015625 225.128906 175.523438 C 223.226562 176.03125 219.683594 176.875 217.261719 177.40625 C 214.835938 177.933594 210.304688 178.933594 207.1875 179.621094 C 181.691406 185.25 158.019531 187.800781 138.25 187.050781 C 126.667969 186.613281 121.269531 185.847656 112.582031 183.425781 C 109.023438 182.4375 105.855469 181.625 105.542969 181.625 C 103.207031 181.625 105.371094 189.703125 109.160156 195.132812 C 116.277344 205.347656 123.386719 209.925781 136.28125 212.609375 C 148.539062 215.15625 167.960938 212.496094 185.46875 205.867188 C 186.679688 205.410156 189.371094 204.410156 191.449219 203.644531 C 193.527344 202.882812 196.117188 201.867188 197.210938 201.386719 C 198.300781 200.90625 199.378906 200.511719 199.605469 200.511719 C 201.167969 200.511719 228.683594 186.242188 241.5 178.789062 C 256.441406 170.097656 260.574219 167.332031 260.003906 166.402344 C 259.632812 165.804688 258.25 165.714844 257.707031 166.253906 M 255.667969 168.398438 C 255.449219 168.753906 255.699219 168.859375 256.261719 168.644531 C 257.351562 168.226562 257.550781 167.773438 256.644531 167.773438 C 256.320312 167.773438 255.878906 168.054688 255.667969 168.398438 M 330.269531 168.078125 C 330.269531 168.242188 331.402344 168.957031 332.785156 169.664062 C 335.8125 171.207031 336.128906 170.777344 333.257812 169.027344 C 331.238281 167.796875 330.269531 167.488281 330.269531 168.078125 M 261.054688 176.566406 C 260.5625 176.867188 260.09375 177.5625 260.015625 178.105469 C 259.882812 179.003906 251.132812 189.179688 250.488281 189.179688 C 250.179688 189.179688 255.273438 182.976562 258.117188 179.894531 C 259.15625 178.769531 259.808594 177.847656 259.570312 177.847656 C 259.332031 177.847656 255.097656 180.65625 250.160156 184.09375 C 238.933594 191.90625 226.757812 199.070312 212.484375 206.265625 C 206.394531 209.332031 201.234375 211.84375 201.015625 211.84375 C 200.792969 211.84375 199.117188 212.507812 197.289062 213.320312 C 195.460938 214.136719 192.265625 215.433594 190.1875 216.210938 C 188.109375 216.988281 185.738281 217.890625 184.914062 218.21875 C 179.289062 220.464844 165.859375 222.914062 156.828125 223.34375 C 152.578125 223.542969 152.460938 224.757812 156.253906 229.199219 C 159.683594 233.210938 164.296875 236.453125 168.648438 237.910156 C 175.113281 240.070312 188.964844 238.828125 195.664062 235.488281 C 196.742188 234.949219 197.839844 234.507812 198.105469 234.507812 C 198.757812 234.507812 210.566406 227.695312 212.539062 226.179688 C 213.40625 225.515625 216.347656 223.304688 219.074219 221.269531 C 224.480469 217.242188 243.386719 199.421875 243.386719 198.359375 C 243.386719 197.996094 240.621094 200.460938 237.238281 203.828125 C 233.855469 207.199219 230.894531 209.957031 230.652344 209.957031 C 230.414062 209.957031 233.835938 206.273438 238.257812 201.773438 C 242.679688 197.269531 246.546875 193.585938 246.855469 193.585938 C 247.160156 193.585938 246.453125 194.578125 245.277344 195.789062 C 244.101562 197.003906 243.410156 197.96875 243.738281 197.941406 C 244.0625 197.910156 247.164062 194.757812 250.628906 190.933594 C 254.089844 187.113281 258.316406 182.453125 260.023438 180.582031 C 261.933594 178.488281 262.894531 176.957031 262.535156 176.597656 C 262.191406 176.253906 261.578125 176.242188 261.054688 176.566406 M 326.492188 178.058594 C 326.492188 178.230469 327.945312 179.527344 329.722656 180.941406 C 331.5 182.355469 332.554688 183.515625 332.066406 183.515625 C 331.582031 183.515625 330.128906 182.644531 328.839844 181.578125 C 327.546875 180.515625 326.492188 179.832031 326.492188 180.0625 C 326.492188 181.21875 347.832031 203.773438 348.519531 203.347656 C 348.980469 203.066406 355.453125 208.914062 355.453125 209.609375 C 355.453125 209.839844 355.132812 209.832031 354.738281 209.589844 C 354.347656 209.347656 354.136719 209.425781 354.269531 209.765625 C 354.875 211.328125 371.664062 225.109375 376.351562 227.894531 C 387.390625 234.449219 393.074219 237.195312 397.789062 238.25 C 399.433594 238.617188 402.058594 239.199219 403.621094 239.546875 C 411.921875 241.382812 421.453125 238.648438 428.191406 232.488281 C 431.753906 229.230469 434.464844 225.460938 433.898438 224.542969 C 433.714844 224.246094 430.792969 223.820312 427.402344 223.605469 C 419.742188 223.117188 409.113281 221.121094 404.871094 219.371094 C 404.179688 219.085938 401.347656 218.078125 398.578125 217.132812 C 393.921875 215.542969 392.394531 214.949219 385.355469 211.96875 C 373.9375 207.136719 349.167969 193.175781 337.253906 184.855469 C 330.375 180.054688 326.492188 177.601562 326.492188 178.058594 M 336.386719 190.125 C 337.460938 191.507812 339.414062 193.632812 340.722656 194.847656 L 343.101562 197.050781 L 340.523438 193.902344 C 339.109375 192.171875 337.15625 190.046875 336.191406 189.179688 C 334.464844 187.636719 334.46875 187.65625 336.386719 190.125 M 265.070312 189.875 C 264.757812 190.378906 264.863281 190.46875 265.394531 190.144531 C 265.980469 189.777344 266.074219 190.011719 265.746094 191.042969 C 265.195312 192.78125 262.109375 199.332031 262.527344 197.878906 C 262.695312 197.292969 262.496094 196.699219 262.082031 196.554688 C 261.546875 196.367188 261.625 195.945312 262.351562 195.09375 C 263.59375 193.640625 264.964844 191.070312 264.496094 191.070312 C 264.3125 191.070312 262.003906 193.972656 259.371094 197.523438 C 256.742188 201.070312 253.554688 205.109375 252.292969 206.5 C 251.03125 207.886719 248.601562 210.71875 246.894531 212.792969 L 243.792969 216.566406 L 246.878906 213.734375 C 250.378906 210.519531 249.058594 212.4375 244.429688 217.300781 C 242.722656 219.089844 241.015625 220.453125 240.628906 220.324219 C 240.242188 220.199219 238.523438 221.765625 236.8125 223.804688 C 235.101562 225.84375 233.429688 227.339844 233.097656 227.132812 C 232.761719 226.929688 232.667969 227.042969 232.878906 227.390625 C 233.09375 227.738281 232.386719 228.84375 231.304688 229.847656 C 230.226562 230.855469 229.542969 231.324219 229.792969 230.890625 C 230.550781 229.5625 229.703125 229.988281 225.925781 232.832031 C 217.875 238.886719 213.992188 241.078125 208.289062 242.773438 C 207.160156 243.109375 206.242188 243.804688 206.242188 244.328125 C 206.242188 245.773438 209.445312 248.269531 211.910156 248.746094 C 213.121094 248.980469 214.253906 249.386719 214.425781 249.648438 C 214.75 250.140625 217.707031 250.433594 221.039062 250.300781 C 222.5 250.246094 222.714844 250.089844 221.984375 249.617188 C 221.28125 249.164062 221.648438 249.007812 223.417969 249 C 224.730469 248.992188 226.839844 248.554688 228.109375 248.023438 C 231.355469 246.667969 236.894531 242.265625 237.296875 240.71875 C 237.511719 239.894531 237.917969 239.59375 238.40625 239.894531 C 238.898438 240.199219 239.011719 240.109375 238.722656 239.636719 C 238.472656 239.230469 238.703125 238.742188 239.253906 238.53125 C 239.792969 238.324219 240.050781 237.855469 239.824219 237.492188 C 239.597656 237.128906 239.714844 237.019531 240.085938 237.246094 C 241.371094 238.042969 247.175781 230.507812 253.597656 219.714844 C 256.347656 215.089844 262.566406 202.667969 263.207031 200.511719 C 263.621094 199.113281 264.101562 197.90625 266.089844 193.273438 C 266.972656 191.214844 267.046875 189.644531 266.269531 189.371094 C 265.867188 189.230469 265.328125 189.457031 265.070312 189.875 M 248.105469 191.703125 C 247.476562 192.398438 247.113281 193.113281 247.292969 193.296875 C 247.476562 193.476562 248.09375 192.910156 248.667969 192.03125 C 249.921875 190.117188 249.671875 189.972656 248.105469 191.703125 M 319.878906 191.070312 C 320.09375 191.414062 320.394531 191.699219 320.546875 191.699219 C 320.699219 191.699219 320.824219 191.414062 320.824219 191.070312 C 320.824219 190.722656 320.523438 190.4375 320.160156 190.4375 C 319.792969 190.4375 319.667969 190.722656 319.878906 191.070312 M 321.453125 190.71875 C 321.453125 190.871094 321.988281 191.933594 322.636719 193.078125 C 323.289062 194.222656 323.976562 196.152344 324.167969 197.363281 L 324.515625 199.566406 L 323.542969 197.363281 C 323.007812 196.152344 322.3125 194.484375 321.996094 193.65625 C 321.679688 192.832031 321.253906 192.316406 321.054688 192.519531 C 320.003906 193.570312 329.921875 215.015625 335.757812 224.3125 C 339.011719 229.492188 345.515625 238.097656 346.890625 239.03125 C 347.238281 239.269531 347.746094 239.324219 348.023438 239.152344 C 348.300781 238.980469 348.527344 239.273438 348.527344 239.800781 C 348.527344 242.34375 358.171875 248.988281 361.863281 248.988281 C 362.78125 248.988281 363.648438 249.339844 363.789062 249.765625 C 364.117188 250.75 371.296875 250.824219 372.523438 249.851562 C 373.003906 249.472656 374.101562 248.988281 374.96875 248.773438 C 377.464844 248.160156 380.285156 245.585938 379.808594 244.355469 C 379.585938 243.773438 378.902344 243.140625 378.289062 242.953125 C 377.675781 242.765625 376.203125 242.136719 375.019531 241.550781 C 373.832031 240.96875 372.699219 240.476562 372.5 240.464844 C 372.300781 240.449219 371.144531 239.914062 369.933594 239.277344 C 364.476562 236.410156 357.144531 230.492188 348.472656 221.964844 C 343.308594 216.890625 339.082031 212.902344 339.082031 213.109375 C 339.082031 213.3125 339.4375 213.890625 339.871094 214.394531 C 340.300781 214.894531 339.453125 214.1875 337.980469 212.820312 C 335.472656 210.488281 334.351562 208.660156 336.078125 209.730469 C 336.503906 209.992188 336.292969 209.480469 335.609375 208.59375 C 328.855469 199.835938 322.714844 191.457031 322.714844 191 C 322.714844 190.691406 322.429688 190.4375 322.085938 190.4375 C 321.738281 190.4375 321.453125 190.5625 321.453125 190.71875 M 325.214844 197.328125 C 325.574219 198.003906 326.179688 198.746094 326.558594 198.980469 C 326.941406 199.214844 326.765625 198.664062 326.167969 197.757812 C 324.910156 195.832031 324.257812 195.542969 325.214844 197.328125 M 259.191406 199.4375 C 258.394531 200.765625 258.40625 200.777344 259.492188 199.742188 C 260.117188 199.140625 260.492188 198.519531 260.324219 198.351562 C 260.160156 198.1875 259.648438 198.675781 259.191406 199.4375 M 327.75 200.75 C 327.75 200.878906 328.246094 201.375 328.851562 201.851562 C 329.851562 202.632812 329.871094 202.613281 329.089844 201.613281 C 328.265625 200.566406 327.75 200.230469 327.75 200.75 M 326.21875 203.84375 C 326.453125 204.464844 326.804688 204.816406 327 204.621094 C 327.195312 204.425781 327 203.917969 326.570312 203.492188 C 325.949219 202.875 325.875 202.949219 326.21875 203.84375 M 330.792969 204.761719 C 331.476562 205.714844 332.824219 207.203125 333.785156 208.066406 C 334.785156 208.960938 334.359375 208.214844 332.804688 206.335938 C 329.878906 202.796875 328.757812 201.917969 330.792969 204.761719 M 349.617188 205.234375 C 351.160156 207.492188 353.453125 209.644531 353.867188 209.230469 C 354.03125 209.066406 352.851562 207.675781 351.246094 206.140625 C 348.980469 203.972656 348.617188 203.769531 349.617188 205.234375 M 254.042969 206.019531 L 252.515625 207.753906 L 254.25 206.226562 C 255.867188 204.800781 256.269531 204.289062 255.773438 204.289062 C 255.660156 204.289062 254.882812 205.070312 254.042969 206.019531 M 327.796875 207.121094 C 327.796875 207.46875 328.199219 208.460938 328.695312 209.328125 C 329.191406 210.191406 329.59375 210.617188 329.59375 210.269531 C 329.59375 209.925781 329.191406 208.933594 328.695312 208.066406 C 328.199219 207.203125 327.796875 206.777344 327.796875 207.121094 M 330.582031 213.105469 C 331.121094 214.140625 331.703125 214.992188 331.875 214.992188 C 332.046875 214.992188 331.75 214.140625 331.214844 213.105469 C 330.675781 212.066406 330.09375 211.214844 329.921875 211.214844 C 329.75 211.214844 330.046875 212.066406 330.582031 213.105469 M 357.96875 212.082031 C 357.96875 212.210938 358.464844 212.707031 359.070312 213.183594 C 360.070312 213.96875 360.09375 213.945312 359.308594 212.945312 C 358.488281 211.898438 357.96875 211.5625 357.96875 212.082031 M 346.324219 221.917969 C 349.425781 225.035156 352.105469 227.582031 352.277344 227.582031 C 352.449219 227.582031 350.054688 225.035156 346.953125 221.917969 C 343.851562 218.800781 341.171875 216.25 340.996094 216.25 C 340.824219 216.25 343.222656 218.800781 346.324219 221.917969 M 230.714844 229.316406 C 229.933594 230.3125 229.957031 230.335938 230.953125 229.554688 C 232.003906 228.730469 232.335938 228.214844 231.816406 228.214844 C 231.6875 228.214844 231.191406 228.710938 230.714844 229.316406 M 340.34375 229.472656 C 340.710938 230.164062 341.15625 230.730469 341.332031 230.730469 C 341.503906 230.730469 341.34375 230.164062 340.972656 229.472656 C 340.601562 228.78125 340.15625 228.214844 339.984375 228.214844 C 339.808594 228.214844 339.972656 228.78125 340.34375 229.472656 M 343.175781 233.25 C 343.800781 233.941406 344.457031 234.507812 344.628906 234.507812 C 344.800781 234.507812 344.429688 233.941406 343.804688 233.25 C 343.179688 232.558594 342.523438 231.992188 342.351562 231.992188 C 342.175781 231.992188 342.546875 232.558594 343.175781 233.25 M 771.914062 310.980469 C 758.1875 312.65625 749.011719 315.835938 739.492188 322.214844 C 736.066406 324.511719 726.898438 333.714844 726.898438 334.859375 C 726.898438 335.308594 726.332031 336.1875 725.640625 336.8125 C 723.875 338.410156 718.476562 349.796875 716.980469 355.074219 C 716.292969 357.496094 715.339844 361.605469 714.859375 364.199219 C 713.734375 370.332031 713.710938 388.929688 714.824219 394.421875 C 717.808594 409.148438 722.875 419.917969 730.628906 428.023438 C 734.234375 431.792969 736.035156 433.25 740.820312 436.273438 C 745.867188 439.460938 752.066406 441.777344 761.210938 443.890625 C 768.382812 445.546875 791.390625 445.554688 799.613281 443.90625 C 804.734375 442.882812 810.742188 441.140625 814.09375 439.714844 C 814.789062 439.417969 816.394531 438.761719 817.664062 438.257812 C 818.9375 437.75 820.441406 436.628906 821.011719 435.761719 C 821.976562 434.285156 821.964844 433.992188 820.785156 431.144531 C 819.578125 428.226562 815.589844 416.980469 814.761719 414.152344 C 814.179688 412.175781 812.9375 411.960938 809.550781 413.246094 C 802.40625 415.953125 798.53125 416.800781 785.921875 418.410156 C 779.664062 419.207031 776.753906 418.96875 768.136719 416.949219 C 764.863281 416.183594 757.71875 412.023438 755.242188 409.445312 C 749.726562 403.695312 746.847656 396.046875 745.769531 384.265625 C 744.335938 368.644531 747.179688 356.492188 754.144531 348.460938 C 756.71875 345.492188 762.664062 341.046875 764.988281 340.351562 C 774.195312 337.597656 774.09375 337.613281 782.5 337.910156 C 791.375 338.222656 794.054688 338.730469 802.449219 341.703125 C 805.390625 342.746094 808.730469 343.628906 809.871094 343.667969 C 811.832031 343.734375 812.027344 343.535156 813.488281 339.960938 C 814.335938 337.886719 815.035156 335.945312 815.035156 335.652344 C 815.039062 335.355469 815.421875 334.222656 815.890625 333.132812 C 818.511719 327.011719 819.511719 323.769531 819.332031 321.949219 C 819.164062 320.242188 818.667969 319.671875 816.296875 318.464844 C 809.144531 314.828125 799.125 312.152344 788.28125 310.980469 C 778.960938 309.976562 780.175781 309.976562 771.914062 310.980469 M 471.601562 311.601562 C 461.375 312.984375 456.085938 314.859375 449.257812 319.523438 C 443.023438 323.78125 438.28125 330.359375 435.699219 338.347656 C 434.167969 343.074219 434.042969 344.195312 434.285156 351.1875 C 434.605469 360.355469 435.699219 363.65625 440.546875 370.097656 C 447.003906 378.675781 452.480469 381.824219 476.957031 391.054688 C 482.371094 393.09375 489.496094 396.738281 491.363281 398.421875 C 493.527344 400.367188 495.1875 404.371094 495.191406 407.640625 C 495.199219 412.074219 493.128906 415.136719 488.605469 417.398438 L 484.828125 419.289062 L 471.765625 419.386719 C 464.582031 419.4375 458.839844 419.257812 459.011719 418.980469 C 459.179688 418.707031 458.398438 418.308594 457.277344 418.097656 C 455.363281 417.742188 446.667969 414.472656 442.824219 412.667969 C 440.714844 411.679688 439.492188 412.480469 438.621094 415.421875 C 438.300781 416.511719 437 420.234375 435.734375 423.695312 C 431.464844 435.367188 431.640625 434.636719 432.78125 435.777344 C 434.835938 437.832031 444.679688 441.464844 453.980469 443.605469 C 459.21875 444.808594 490.296875 444.824219 495.214844 443.628906 C 510.609375 439.878906 519.472656 432.703125 524.277344 420.101562 C 526.160156 415.171875 526.59375 403.152344 525.128906 396.550781 C 523.480469 389.105469 519.546875 382.652344 513.660156 377.730469 C 509.957031 374.632812 496.984375 367.785156 490.269531 365.378906 C 478.429688 361.132812 475.382812 359.804688 470.835938 356.898438 C 466.59375 354.183594 465 351.625 465 347.515625 C 465 343.761719 466.492188 341 469.496094 339.1875 C 472.769531 337.21875 481.671875 336.335938 489.632812 337.191406 C 495.472656 337.820312 505.199219 340.261719 506.863281 341.519531 C 509.226562 343.300781 512.335938 342.515625 513.023438 339.960938 C 513.207031 339.269531 514.699219 335.304688 516.335938 331.148438 C 517.976562 326.992188 519.445312 322.683594 519.609375 321.570312 C 519.886719 319.644531 519.738281 319.46875 516.53125 318.023438 C 511.3125 315.667969 501.632812 312.660156 497.105469 311.984375 C 489.679688 310.882812 478.207031 310.707031 471.601562 311.601562 M 146.433594 313.265625 C 145.566406 313.511719 143.160156 313.753906 141.082031 313.8125 C 139.003906 313.867188 135.542969 314.25 133.390625 314.660156 C 126.523438 315.972656 127.210938 308.632812 127.371094 378.882812 C 127.445312 412.738281 127.675781 440.707031 127.878906 441.039062 C 128.082031 441.367188 129.578125 441.683594 131.203125 441.738281 L 134.15625 441.835938 L 131.007812 442.269531 C 129.179688 442.519531 133.664062 442.738281 141.710938 442.789062 C 150.851562 442.847656 155.242188 442.671875 154.617188 442.269531 C 153.988281 441.863281 153.9375 441.65625 154.460938 441.648438 C 154.894531 441.644531 155.28125 441 155.320312 440.222656 C 155.382812 439.089844 155.488281 439.1875 155.851562 440.695312 C 156.832031 444.75 157.136719 440.066406 157.292969 418.660156 L 157.449219 396.625 L 164.074219 396.445312 L 170.699219 396.269531 L 174.519531 401.484375 C 180.046875 409.023438 186 418.320312 191.0625 427.316406 C 193.070312 430.875 195.070312 434.441406 197.054688 438.011719 C 199.195312 441.851562 201.324219 444.488281 200.449219 442.214844 C 200.15625 441.457031 202.433594 441.351562 215.449219 441.503906 C 227.238281 441.640625 230.796875 441.503906 230.796875 440.910156 C 230.796875 440.484375 231.234375 440.6875 231.773438 441.359375 C 232.710938 442.535156 232.734375 442.519531 232.328125 441.007812 C 231.90625 439.441406 225.242188 426.496094 224.550781 425.898438 C 224.347656 425.726562 223.449219 424.167969 222.550781 422.4375 C 218.28125 414.210938 211.609375 403.785156 203.851562 393.203125 L 201.804688 390.410156 L 203.550781 389.363281 C 204.511719 388.789062 206.597656 387.582031 208.1875 386.679688 C 212.308594 384.34375 216.695312 380.238281 219.535156 376.058594 C 220.878906 374.078125 221.980469 372.1875 221.980469 371.863281 C 221.980469 371.535156 222.40625 370.460938 222.921875 369.46875 C 223.441406 368.476562 223.863281 366.800781 223.867188 365.742188 C 223.871094 364.6875 224.207031 363.488281 224.613281 363.082031 C 225.773438 361.921875 225.511719 349.582031 224.21875 344.355469 C 222.34375 336.800781 219.808594 332.296875 214.410156 326.953125 C 210.628906 323.207031 208.367188 321.566406 204.273438 319.613281 C 198.839844 317.023438 190.050781 314.316406 184.523438 313.53125 C 180.273438 312.933594 148.410156 312.707031 146.433594 313.265625 M -183.34375 313.667969 L -186.058594 313.910156 L -189.796875 321.785156 C -191.851562 326.117188 -193.535156 329.816406 -193.535156 330.007812 C -193.535156 330.195312 -194.527344 332.46875 -195.738281 335.054688 C -196.949219 337.640625 -197.941406 339.929688 -197.941406 340.132812 C -197.941406 340.5625 -200.070312 345.375 -201.4375 348.039062 C -201.9375 349.019531 -202.347656 350.085938 -202.347656 350.410156 C -202.347656 350.730469 -202.882812 352.195312 -203.53125 353.664062 C -204.183594 355.128906 -205.347656 357.890625 -206.117188 359.792969 C -207.804688 363.96875 -208.703125 366.085938 -210.460938 370.019531 C -211.195312 371.660156 -211.792969 373.253906 -211.792969 373.558594 C -211.792969 373.867188 -212.464844 375.640625 -213.285156 377.5 C -214.644531 380.582031 -216.902344 386.414062 -221.054688 397.570312 C -221.890625 399.820312 -223 402.792969 -223.519531 404.179688 C -224.039062 405.5625 -224.753906 407.6875 -225.113281 408.902344 C -225.46875 410.113281 -226.128906 411.953125 -226.578125 412.992188 C -227.816406 415.863281 -229.113281 419.398438 -231.308594 425.898438 C -232.40625 429.148438 -233.859375 432.988281 -234.539062 434.433594 C -235.21875 435.878906 -235.832031 438.304688 -235.902344 439.824219 L -236.03125 442.582031 L -221.472656 442.75 L -206.917969 442.921875 L -205.949219 441.449219 C -205.421875 440.636719 -204.128906 437.445312 -203.082031 434.355469 C -202.035156 431.261719 -200.429688 426.75 -199.515625 424.324219 C -198.601562 421.902344 -197.542969 419.070312 -197.164062 418.03125 C -196.785156 416.992188 -196.167969 415.933594 -195.792969 415.679688 C -195.417969 415.421875 -184.589844 415.210938 -171.734375 415.207031 C -152.535156 415.199219 -148.230469 415.351562 -147.632812 416.070312 C -147.234375 416.554688 -145.488281 421.15625 -143.75 426.300781 C -142.015625 431.445312 -140.179688 436.550781 -139.679688 437.640625 C -139.175781 438.734375 -138.761719 439.894531 -138.761719 440.21875 C -138.761719 440.546875 -138.246094 441.28125 -137.609375 441.855469 C -136.609375 442.761719 -134.589844 442.898438 -122.265625 442.898438 C -105.398438 442.898438 -105.820312 443.066406 -107.910156 437.089844 C -108.667969 434.917969 -109.519531 432.289062 -109.804688 431.25 C -110.085938 430.210938 -111.460938 426.246094 -112.851562 422.4375 C -114.246094 418.628906 -115.730469 414.519531 -116.152344 413.308594 C -116.570312 412.097656 -117.15625 410.539062 -117.445312 409.84375 C -117.976562 408.582031 -121.789062 398.207031 -123.457031 393.476562 C -124.546875 390.386719 -130.40625 375.296875 -131.523438 372.699219 C -131.972656 371.660156 -132.90625 369.394531 -133.597656 367.664062 C -135.34375 363.308594 -138.109375 356.585938 -138.777344 355.074219 C -139.082031 354.378906 -141.480469 348.714844 -144.105469 342.480469 C -146.734375 336.25 -150.664062 327.324219 -152.839844 322.648438 L -156.796875 314.148438 L -160.214844 313.742188 C -163.832031 313.304688 -178.773438 313.261719 -183.34375 313.667969 M -86.03125 313.667969 C -88.878906 313.851562 -89.789062 314.167969 -90.332031 315.179688 C -90.816406 316.085938 -90.953125 334.648438 -90.808594 378.636719 C -90.636719 430.1875 -90.453125 440.992188 -89.738281 441.855469 C -88.949219 442.804688 -85.1875 442.898438 -47.179688 442.898438 C -7.011719 442.898438 -5.449219 442.855469 -4.40625 441.699219 C -3.449219 440.644531 -3.34375 439.199219 -3.519531 429.453125 C -3.664062 421.4375 -3.945312 418.179688 -4.539062 417.585938 C -5.183594 416.945312 -11.109375 416.761719 -32.378906 416.738281 C -47.238281 416.722656 -59.617188 416.484375 -59.886719 416.214844 C -60.160156 415.941406 -60.4375 393.039062 -60.503906 365.316406 C -60.589844 329.554688 -60.828125 314.710938 -61.320312 314.214844 C -62.007812 313.53125 -78.144531 313.171875 -86.03125 313.667969 M 584.992188 313.683594 C 551.425781 313.796875 537.589844 314.046875 536.984375 314.546875 C 536.335938 315.085938 536.140625 317.828125 536.140625 326.40625 C 536.140625 336.417969 536.257812 337.671875 537.289062 338.605469 C 538.304688 339.523438 540.558594 339.648438 556.195312 339.648438 C 570.128906 339.648438 574.019531 339.824219 574.265625 340.460938 C 574.4375 340.910156 574.640625 363.867188 574.71875 391.480469 C 574.839844 435.316406 574.976562 441.761719 575.800781 442.28125 C 577.253906 443.199219 603.078125 443.070312 604.007812 442.140625 C 604.582031 441.566406 604.765625 429.546875 604.769531 391.933594 C 604.777344 364.734375 604.949219 341.84375 605.160156 341.0625 L 605.539062 339.648438 L 624.015625 339.648438 C 642 339.648438 642.511719 339.613281 643.183594 338.355469 C 643.867188 337.082031 643.851562 314.894531 643.167969 314.289062 C 642.457031 313.660156 629.828125 313.527344 584.992188 313.683594 M 663.628906 313.820312 L 661.109375 314.148438 L 661.109375 442.582031 L 675.195312 442.753906 C 685.054688 442.871094 689.542969 442.707031 690.148438 442.203125 C 691.371094 441.1875 691.449219 314.808594 690.230469 314.054688 C 689.339844 313.503906 667.492188 313.3125 663.628906 313.820312 M 2.570312 315.234375 C 2.375 316.023438 2.296875 321.476562 2.398438 327.351562 L 2.578125 338.039062 L 4.148438 338.832031 C 5.304688 339.417969 10.382812 339.632812 23.195312 339.636719 L 40.664062 339.648438 L 40.742188 386.707031 C 40.785156 412.589844 41 435.753906 41.214844 438.175781 L 41.609375 442.582031 L 55.53125 442.753906 C 66.679688 442.886719 69.59375 442.75 70.164062 442.0625 C 70.679688 441.441406 70.921875 427.128906 71.039062 390.582031 L 71.199219 339.960938 L 89.417969 339.796875 C 105.265625 339.648438 107.785156 339.492188 108.777344 338.597656 C 109.796875 337.671875 109.917969 336.375 109.917969 326.3125 L 109.917969 315.0625 L 108.410156 314.488281 C 107.550781 314.164062 84.515625 313.890625 54.910156 313.855469 L 2.925781 313.796875 Z M 277.386719 314.8125 C 277.386719 315.175781 271.746094 315.339844 262.878906 315.230469 L 248.367188 315.050781 L 248.59375 359.613281 C 248.8125 402.296875 248.878906 404.390625 250.128906 409.214844 C 252.304688 417.59375 253.761719 420.941406 257.644531 426.527344 C 263.835938 435.429688 276.804688 443.128906 287.953125 444.519531 C 290.542969 444.84375 291.296875 444.765625 290.953125 444.210938 C 290.601562 443.640625 292.878906 443.546875 300.464844 443.808594 C 316.1875 444.351562 317.59375 444.292969 321.914062 442.898438 C 327.007812 441.25 333.675781 438.121094 334.6875 436.902344 C 335.113281 436.390625 335.804688 435.972656 336.230469 435.972656 C 337.242188 435.972656 343.308594 429.558594 345.941406 425.703125 C 348.828125 421.476562 351.457031 415.449219 353.074219 409.359375 C 354.414062 404.3125 354.453125 403.050781 354.664062 359.847656 C 354.835938 324.082031 354.71875 315.414062 354.0625 314.984375 C 353.25 314.449219 327.335938 314.886719 326.425781 315.449219 C 326.164062 315.613281 325.753906 315.425781 325.511719 315.039062 C 325.203125 314.535156 324.917969 314.578125 324.53125 315.183594 C 324.234375 315.652344 323.984375 334.878906 323.976562 357.90625 C 323.957031 402.535156 323.941406 402.777344 320.824219 409.21875 C 319.121094 412.730469 315.132812 416.078125 310.671875 417.734375 C 307.324219 418.980469 307.316406 418.992188 309.808594 418.726562 L 312.324219 418.460938 L 310.4375 419.320312 C 308.238281 420.316406 305.941406 420.476562 305.4375 419.664062 C 305.089844 419.101562 296.914062 419.316406 294.941406 419.941406 C 294.367188 420.121094 292.316406 419.675781 290.378906 418.953125 C 287.726562 417.960938 286.175781 416.828125 284.097656 414.371094 C 281.164062 410.898438 278.34375 404.648438 277.636719 400.042969 C 277.039062 396.148438 277.703125 397.109375 278.957031 401.960938 C 280.003906 406.011719 281.058594 408.585938 281.488281 408.152344 C 281.613281 408.027344 281.117188 406.234375 280.378906 404.164062 C 279.082031 400.5 279.039062 399.28125 278.796875 357.90625 C 278.652344 333.042969 278.308594 315.160156 277.96875 314.8125 C 277.597656 314.433594 277.382812 314.433594 277.386719 314.8125 M 382.367188 315.328125 C 381.328125 316.125 381.265625 319.890625 381.265625 378.582031 L 381.265625 440.984375 L 382.679688 441.328125 C 383.460938 441.519531 390.113281 441.738281 397.46875 441.8125 C 408.121094 441.925781 410.90625 441.78125 411.164062 441.113281 C 411.613281 439.941406 411.550781 317.609375 411.097656 315.925781 C 410.734375 314.570312 410.558594 314.554688 397.097656 314.515625 C 386.589844 314.488281 383.214844 314.675781 382.367188 315.328125 M 206.871094 322.226562 C 206.871094 322.378906 208.644531 323.804688 210.808594 325.398438 C 212.972656 326.992188 215.707031 329.714844 216.886719 331.453125 C 219.335938 335.0625 219.96875 335.527344 218.460938 332.613281 C 217.277344 330.316406 211.644531 324.765625 208.800781 323.085938 C 207.738281 322.460938 206.871094 322.074219 206.871094 322.226562 M 161.859375 338.386719 L 157.449219 338.703125 L 157.113281 371.953125 L 168.382812 371.5625 C 178.398438 371.21875 180.125 370.992188 183.96875 369.546875 C 191.457031 366.726562 193.753906 363.378906 193.886719 355.074219 C 193.976562 349.453125 193.046875 346.75 190.074219 343.964844 C 188.015625 342.039062 183.457031 339.632812 181.109375 339.242188 C 175.992188 338.382812 167.320312 338 161.859375 338.390625 M 221.742188 340.59375 C 221.96875 341.632812 222.402344 342.90625 222.707031 343.425781 C 223.058594 344.03125 223.113281 343.691406 222.851562 342.480469 C 222.625 341.441406 222.191406 340.167969 221.886719 339.648438 C 221.535156 339.042969 221.480469 339.382812 221.742188 340.59375 M -173.347656 348.621094 C -173.65625 349.398438 -174.53125 351.734375 -175.296875 353.8125 C -176.058594 355.890625 -177.625 360 -178.773438 362.941406 C -181.90625 370.96875 -183.796875 376.027344 -185.359375 380.570312 C -186.136719 382.820312 -186.980469 384.945312 -187.238281 385.292969 C -187.496094 385.636719 -187.890625 386.949219 -188.117188 388.210938 C -188.4375 389.988281 -188.304688 390.582031 -187.519531 390.886719 C -186.960938 391.097656 -179.589844 391.273438 -171.132812 391.273438 L -155.761719 391.273438 L -155.773438 389.855469 C -155.789062 388.535156 -157.96875 382.03125 -161.628906 372.386719 C -162.484375 370.136719 -164.464844 364.894531 -166.035156 360.738281 C -171.328125 346.714844 -172.09375 345.449219 -173.347656 348.621094 M 155.371094 356.960938 C 155.382812 358 155.523438 358.347656 155.683594 357.734375 C 155.84375 357.125 155.832031 356.273438 155.660156 355.847656 C 155.488281 355.421875 155.359375 355.921875 155.371094 356.960938 M 182.949219 370.8125 C 181.738281 371.277344 181.171875 371.667969 181.691406 371.679688 C 182.210938 371.691406 183.484375 371.308594 184.523438 370.835938 C 186.953125 369.722656 185.824219 369.703125 182.949219 370.8125 M 217.847656 376.003906 C 215.890625 378.996094 210.519531 383.683594 206.414062 385.976562 C 201.390625 388.789062 201.226562 389.488281 206.21875 386.828125 C 210.496094 384.550781 216.714844 379.140625 218.398438 376.234375 C 219.804688 373.8125 219.394531 373.640625 217.847656 376.003906 M 203.128906 394.628906 C 204.308594 396.304688 205.53125 397.832031 205.847656 398.027344 C 206.90625 398.683594 204.0625 394.363281 202.511719 392.964844 C 201.34375 391.910156 201.484375 392.296875 203.128906 394.628906 M 207.832031 401.074219 C 208.417969 402.132812 209.457031 403.691406 210.140625 404.535156 L 211.386719 406.066406 L 210.320312 404.136719 C 209.734375 403.074219 208.695312 401.515625 208.011719 400.675781 L 206.765625 399.140625 Z M 250.460938 404.492188 C 250.460938 405.707031 250.589844 406.203125 250.746094 405.59375 C 250.90625 404.988281 250.90625 404 250.746094 403.390625 C 250.589844 402.785156 250.460938 403.28125 250.460938 404.492188 M 324.023438 403.746094 C 323.886719 406.027344 320.234375 411.832031 317.183594 414.621094 C 315.320312 416.324219 314.117188 417.714844 314.507812 417.714844 C 317.03125 417.714844 325.304688 405.972656 324.386719 403.699219 C 324.148438 403.109375 324.058594 403.121094 324.023438 403.746094 M 352.402344 404.492188 C 352.402344 405.359375 352.546875 405.714844 352.71875 405.28125 C 352.894531 404.847656 352.894531 404.140625 352.71875 403.707031 C 352.546875 403.273438 352.402344 403.628906 352.402344 404.492188 M 155.453125 409.84375 C 155.457031 412.269531 155.570312 413.183594 155.707031 411.878906 C 155.84375 410.570312 155.839844 408.585938 155.703125 407.46875 C 155.5625 406.351562 155.453125 407.421875 155.453125 409.84375 M 212.539062 408.269531 C 213.277344 409.308594 214.023438 410.160156 214.199219 410.160156 C 214.371094 410.160156 213.90625 409.308594 213.167969 408.269531 C 212.429688 407.230469 211.683594 406.382812 211.507812 406.382812 C 211.335938 406.382812 211.800781 407.230469 212.539062 408.269531 M 281.792969 409.117188 C 281.792969 410.710938 285.816406 415.824219 287.070312 415.824219 C 287.417969 415.824219 286.84375 414.90625 285.789062 413.78125 C 284.734375 412.65625 283.402344 411.03125 282.832031 410.175781 C 282.257812 409.320312 281.792969 408.84375 281.792969 409.117188 M 215.609375 413.109375 C 216.332031 414.554688 217.269531 415.953125 217.6875 416.210938 C 218.105469 416.46875 217.777344 415.566406 216.964844 414.207031 C 214.835938 410.652344 214.0625 410.027344 215.609375 413.109375 M 252.25 413.046875 C 252.28125 413.777344 252.429688 413.929688 252.632812 413.425781 C 252.8125 412.972656 252.792969 412.429688 252.582031 412.21875 C 252.371094 412.011719 252.222656 412.382812 252.25 413.046875 M 349.761719 414.660156 C 349.359375 416.167969 348.875 417.683594 348.683594 418.03125 C 348.457031 418.449219 348.5625 418.449219 349.003906 418.03125 C 349.738281 417.332031 351.160156 412.582031 350.753906 412.175781 C 350.613281 412.035156 350.167969 413.152344 349.761719 414.660156 M 440.445312 413.328125 C 440.445312 413.664062 440.867188 413.9375 441.386719 413.9375 C 441.90625 413.9375 442.332031 413.824219 442.332031 413.691406 C 442.332031 413.554688 441.90625 413.28125 441.386719 413.078125 C 440.867188 412.878906 440.445312 412.992188 440.445312 413.328125 M 253.175781 415.984375 C 253.410156 416.761719 253.863281 417.675781 254.179688 418.015625 C 254.496094 418.355469 254.433594 417.714844 254.046875 416.597656 C 253.25 414.3125 252.511719 413.792969 253.175781 415.984375 M 186.097656 417.085938 C 186.46875 417.777344 186.910156 418.34375 187.085938 418.34375 C 187.257812 418.34375 187.097656 417.777344 186.726562 417.085938 C 186.355469 416.394531 185.910156 415.824219 185.738281 415.824219 C 185.566406 415.824219 185.726562 416.394531 186.097656 417.085938 M 219.148438 418.972656 C 219.6875 420.011719 220.265625 420.863281 220.441406 420.863281 C 220.613281 420.863281 220.316406 420.011719 219.777344 418.972656 C 219.242188 417.933594 218.660156 417.085938 218.488281 417.085938 C 218.3125 417.085938 218.613281 417.933594 219.148438 418.972656 M 289.976562 418.03125 C 290.839844 418.523438 292.257812 418.917969 293.125 418.902344 C 294.507812 418.882812 294.433594 418.777344 292.496094 418.03125 C 289.5625 416.898438 288 416.898438 289.976562 418.03125 M 254.71875 419.171875 C 254.71875 421.234375 260.792969 429.722656 264.792969 433.253906 C 269.566406 437.464844 283.503906 443.570312 288.085938 443.457031 C 289.960938 443.410156 289.722656 443.265625 286.511719 442.5 C 278.019531 440.464844 273.636719 438.511719 267.625 434.070312 C 262.898438 430.582031 259.703125 427.132812 257.082031 422.6875 C 255.78125 420.488281 254.71875 418.90625 254.71875 419.171875 M 345.515625 423.496094 C 344.03125 425.910156 343.09375 427.714844 343.433594 427.507812 C 344.203125 427.03125 348.742188 419.605469 348.4375 419.316406 C 348.3125 419.199219 347 421.078125 345.515625 423.496094 M 221.667969 423.382812 C 222.203125 424.417969 222.785156 425.269531 222.957031 425.269531 C 223.132812 425.269531 222.835938 424.417969 222.296875 423.382812 C 221.761719 422.34375 221.179688 421.492188 221.003906 421.492188 C 220.832031 421.492188 221.128906 422.34375 221.667969 423.382812 M 223.871094 426.761719 C 223.871094 427.441406 227 433.453125 227.355469 433.453125 C 227.527344 433.453125 226.921875 431.96875 226.007812 430.148438 C 224.253906 426.652344 223.871094 426.046875 223.871094 426.761719 M 340.078125 430.796875 L 338.871094 432.507812 L 340.550781 430.984375 C 342.316406 429.378906 342.535156 429.035156 341.757812 429.066406 C 341.5 429.078125 340.742188 429.855469 340.078125 430.796875 M 328.65625 438.839844 C 327.503906 439.761719 327.527344 439.777344 329.007812 439.070312 C 330.9375 438.152344 331.292969 437.859375 330.492188 437.859375 C 330.15625 437.859375 329.328125 438.300781 328.65625 438.839844 M 198.6875 439.082031 C 198.6875 439.410156 198.96875 439.847656 199.3125 440.058594 C 199.667969 440.28125 199.773438 440.027344 199.558594 439.46875 C 199.140625 438.378906 198.6875 438.175781 198.6875 439.082031 M 140.296875 442.097656 C 141.59375 442.234375 143.71875 442.234375 145.015625 442.097656 C 146.316406 441.960938 145.253906 441.851562 142.65625 441.851562 C 140.058594 441.851562 138.996094 441.960938 140.296875 442.097656 M 151.351562 442.070312 C 151.804688 442.25 152.351562 442.226562 152.558594 442.019531 C 152.769531 441.808594 152.394531 441.660156 151.734375 441.6875 C 151 441.71875 150.851562 441.867188 151.351562 442.070312 M 317.675781 442.269531 C 316.8125 442.546875 314.898438 442.800781 313.425781 442.835938 C 311.957031 442.871094 310.753906 443.128906 310.753906 443.414062 C 310.753906 444.042969 318.007812 443.226562 320.195312 442.347656 C 321.488281 441.832031 321.546875 441.722656 320.511719 441.742188 C 319.816406 441.753906 318.542969 441.992188 317.675781 442.269531 M 205.480469 442.734375 C 207.660156 442.859375 211.058594 442.855469 213.035156 442.734375 C 215.011719 442.609375 213.230469 442.507812 209.074219 442.507812 C 204.921875 442.511719 203.304688 442.613281 205.480469 442.734375 M 221.535156 442.734375 C 223.535156 442.859375 226.652344 442.859375 228.457031 442.730469 C 230.265625 442.605469 228.625 442.503906 224.816406 442.503906 C 221.007812 442.503906 219.53125 442.609375 221.535156 442.734375 M 383.625 442.683594 C 384.058594 442.859375 384.765625 442.859375 385.199219 442.683594 C 385.632812 442.511719 385.277344 442.367188 384.410156 442.367188 C 383.546875 442.367188 383.191406 442.511719 383.625 442.683594 M 401.585938 442.730469 C 403.242188 442.863281 405.792969 442.859375 407.253906 442.726562 C 408.714844 442.597656 407.359375 442.488281 404.242188 442.492188 C 401.128906 442.492188 399.929688 442.601562 401.585938 442.730469 M 554.398438 474.398438 C 547.503906 475 543.207031 476.1875 536.679688 479.304688 C 528.101562 483.398438 523.375 488.433594 519.738281 497.355469 C 518.34375 500.765625 518.199219 501.984375 518.238281 509.945312 C 518.289062 519.753906 518.902344 521.945312 523.300781 528.066406 C 528.925781 535.898438 533.9375 538.886719 555.148438 547.058594 C 565.238281 550.945312 570.582031 554.046875 572.347656 557.035156 C 573.917969 559.695312 573.933594 565.359375 572.378906 567.964844 C 569.542969 572.71875 560.53125 574.652344 547.347656 573.335938 C 541.253906 572.726562 538.460938 572.070312 532.015625 569.734375 C 525.519531 567.378906 523.988281 567.019531 523.308594 567.699219 C 522.5 568.507812 520.734375 573.019531 517.367188 582.878906 L 515.679688 587.820312 L 517.492188 589.265625 C 522.058594 592.90625 534.792969 596.304688 547.175781 597.195312 C 562.113281 598.265625 576.671875 596.355469 584.300781 592.332031 C 592.8125 587.839844 598.164062 581.894531 600.703125 574.128906 C 602.808594 567.675781 602.921875 555.96875 600.933594 549.917969 C 597.835938 540.484375 590.445312 533.148438 578.949219 528.089844 C 577.390625 527.402344 574.984375 526.335938 573.597656 525.71875 C 570.972656 524.546875 560.042969 520.480469 557.859375 519.859375 C 555.851562 519.292969 550.476562 515.644531 548.414062 513.449219 C 546.726562 511.652344 546.527344 511.015625 546.527344 507.4375 C 546.527344 502.570312 547.824219 500.855469 552.949219 498.9375 C 557.121094 497.375 566.042969 497.222656 572.605469 498.605469 C 575.042969 499.117188 577.9375 499.695312 579.027344 499.886719 C 580.121094 500.082031 582.257812 500.804688 583.78125 501.496094 C 587.605469 503.242188 589.230469 502.351562 591.347656 497.355469 C 592.226562 495.277344 593.460938 492.445312 594.089844 491.058594 C 596.300781 486.1875 596.894531 483.832031 596.1875 482.714844 C 594.234375 479.613281 580.996094 475.320312 570.449219 474.359375 C 563.449219 473.726562 562.089844 473.726562 554.398438 474.398438 M 125.972656 476.007812 C 114.835938 476.871094 111.152344 477.5 109.585938 478.796875 C 108.195312 479.953125 108.183594 592.1875 109.578125 593.34375 C 110.082031 593.761719 112.671875 594.199219 115.335938 594.316406 C 118.25 594.445312 120.363281 594.832031 120.648438 595.296875 C 121.425781 596.558594 143.105469 597.195312 154.933594 596.308594 C 166.609375 595.429688 174.230469 593.390625 184.207031 588.480469 C 189.3125 585.96875 191.066406 584.65625 196.171875 579.535156 C 202.59375 573.089844 205.664062 568.449219 208.632812 560.710938 C 211.722656 552.660156 212.125 550.21875 212.398438 537.847656 C 212.6875 524.585938 211.886719 518.636719 208.664062 510.171875 C 206.722656 505.066406 202.238281 497.554688 201.296875 497.824219 C 200.988281 497.914062 198.941406 496.179688 196.746094 493.972656 C 194.550781 491.769531 191.683594 489.285156 190.371094 488.457031 C 189.058594 487.628906 187.984375 486.78125 187.984375 486.574219 C 187.984375 486.0625 190.847656 487.945312 194.125 490.609375 C 195.597656 491.804688 196.800781 492.515625 196.800781 492.1875 C 196.800781 490.742188 187.527344 484.511719 181.226562 481.71875 C 167.675781 475.714844 151.410156 474.03125 125.972656 476.007812 M 254.859375 475.46875 C 253.035156 475.597656 251.699219 475.960938 251.894531 476.277344 C 252.105469 476.617188 250.550781 476.691406 248.109375 476.464844 C 245.71875 476.242188 242.984375 476.371094 241.632812 476.769531 C 240.347656 477.152344 238.484375 477.632812 237.488281 477.839844 C 236.496094 478.046875 235.847656 478.378906 236.050781 478.578125 C 236.25 478.78125 237.734375 478.613281 239.347656 478.207031 C 240.960938 477.800781 242.410156 477.597656 242.570312 477.753906 C 242.726562 477.914062 241.207031 478.394531 239.1875 478.824219 C 237.167969 479.253906 235.09375 479.996094 234.574219 480.476562 C 233.75 481.234375 233.621094 488.3125 233.5625 536.253906 C 233.527344 566.453125 233.621094 591.773438 233.773438 592.519531 C 234.046875 593.863281 234.210938 593.878906 246.746094 593.78125 L 259.441406 593.679688 L 260.222656 589.273438 L 260.3125 591.792969 C 260.382812 593.667969 260.5625 594.070312 261.015625 593.367188 C 261.8125 592.128906 261.847656 563.972656 261.050781 563.480469 C 260.722656 563.277344 260.351562 564.449219 260.21875 566.121094 C 260.089844 567.773438 259.933594 565.78125 259.871094 561.691406 C 259.800781 557.191406 259.988281 554.402344 260.347656 554.621094 C 260.671875 554.824219 261.179688 554.558594 261.472656 554.03125 C 261.859375 553.339844 263.585938 552.964844 267.722656 552.671875 L 273.4375 552.265625 L 276.128906 555.660156 C 277.605469 557.527344 279.554688 560.160156 280.460938 561.515625 L 283.050781 565.390625 C 283.570312 566.167969 285.53125 569.308594 287.410156 572.367188 C 290.660156 577.660156 291.917969 579.863281 297.363281 589.773438 C 298.660156 592.128906 299.804688 593.789062 299.910156 593.464844 C 300.019531 593.144531 299.347656 591.503906 298.421875 589.816406 C 291.398438 577.027344 289.160156 573.222656 284.550781 566.226562 C 281.675781 561.863281 278.320312 557.089844 277.097656 555.621094 C 275.871094 554.152344 274.867188 552.789062 274.867188 552.589844 C 274.867188 551.652344 278.433594 555.742188 281.328125 559.996094 C 283.09375 562.59375 285.480469 566.0625 286.628906 567.703125 C 287.777344 569.34375 288.71875 570.859375 288.71875 571.070312 C 288.71875 571.277344 289.242188 572.203125 289.886719 573.121094 C 291.3125 575.160156 293.683594 579.359375 297.402344 586.441406 C 298.949219 589.382812 300.539062 592.140625 300.929688 592.566406 C 301.425781 593.101562 305.605469 593.476562 314.472656 593.769531 C 326.425781 594.171875 327.359375 594.121094 328.140625 593.054688 C 328.898438 592.015625 329.011719 592.007812 329.375 592.953125 C 329.59375 593.527344 330.015625 593.996094 330.316406 593.996094 C 332.34375 593.996094 309.351562 555.054688 305.410156 551.8125 C 304.777344 551.292969 306.640625 554.417969 309.554688 558.753906 C 316.214844 568.679688 318.4375 572.214844 320.132812 575.578125 C 322.082031 579.453125 321.289062 578.863281 318.9375 574.695312 C 316.011719 569.511719 310.492188 561.15625 305.589844 554.488281 C 300.988281 548.226562 300.332031 546.929688 302.988281 549.34375 L 304.671875 550.867188 L 303.621094 549.3125 C 303.039062 548.457031 302.566406 547.558594 302.566406 547.320312 C 302.566406 547.082031 304.402344 545.859375 306.644531 544.605469 C 314.363281 540.289062 321.214844 531.789062 322.878906 524.460938 C 323.195312 523.054688 323.605469 519.535156 323.785156 516.628906 C 324.734375 501.222656 317.304688 487.988281 304.375 482.070312 C 295.292969 477.914062 282.355469 474.945312 281.6875 476.867188 C 281.558594 477.238281 280.269531 477.265625 278.328125 476.941406 L 275.179688 476.414062 L 278.015625 476.253906 L 280.847656 476.097656 L 277.699219 475.605469 C 274.546875 475.113281 261.097656 475.035156 254.859375 475.46875 M 739.492188 475.988281 C 735.507812 476.433594 731.683594 476.941406 730.992188 477.121094 C 730.300781 477.300781 728.972656 477.605469 728.046875 477.800781 C 724.132812 478.621094 724.382812 474.652344 724.382812 536.789062 C 724.382812 574.640625 724.597656 593.851562 725.03125 594.664062 C 725.640625 595.800781 726.457031 595.882812 737.054688 595.882812 C 751.585938 595.882812 751.765625 595.804688 752.390625 589.109375 C 752.632812 586.53125 752.738281 577.527344 752.621094 569.105469 C 752.507812 560.683594 752.640625 553.566406 752.917969 553.285156 C 753.199219 553.007812 755.886719 552.847656 758.890625 552.933594 C 764.335938 553.089844 764.367188 553.101562 766.464844 555.441406 C 768.273438 557.457031 771.023438 561.472656 778.21875 572.589844 C 779.003906 573.800781 780.429688 576.210938 781.386719 577.941406 C 782.34375 579.671875 783.441406 581.65625 783.824219 582.347656 C 786.710938 587.546875 790.144531 592.789062 791.496094 594.054688 C 793.0625 595.53125 793.417969 595.574219 805.40625 595.773438 C 819.871094 596.019531 820.707031 595.890625 820.707031 593.476562 C 820.707031 591.035156 815.339844 580.621094 807.84375 568.523438 C 806.78125 566.804688 805.628906 564.910156 805.28125 564.3125 C 802.90625 560.21875 800.652344 556.824219 797.695312 552.886719 C 795.820312 550.390625 794.28125 548.027344 794.277344 547.636719 C 794.269531 547.242188 796.210938 545.765625 798.589844 544.351562 C 806.089844 539.894531 811.273438 533.164062 813.835938 524.550781 C 814.949219 520.816406 815.121094 518.945312 814.882812 513.125 C 814.441406 502.28125 811.5 494.964844 805.070312 488.695312 C 799.839844 483.597656 794.867188 481.0625 783.875 477.894531 C 773.859375 475.007812 755.378906 474.210938 739.492188 475.988281 M -235.875 477.140625 C -236.910156 477.925781 -236.976562 481.472656 -236.976562 535.886719 C -236.976562 591.191406 -236.925781 593.847656 -235.824219 594.839844 C -234.839844 595.730469 -232.980469 595.882812 -223.039062 595.882812 C -213.976562 595.882812 -211.132812 595.6875 -210.179688 594.988281 C -209.011719 594.132812 -208.957031 593.09375 -208.894531 571.152344 C -208.859375 558.535156 -208.628906 547.890625 -208.382812 547.492188 C -208.066406 546.980469 -201.757812 546.777344 -186.070312 546.777344 C -169.898438 546.777344 -164 546.578125 -163.441406 546.019531 C -162.917969 545.496094 -162.6875 542.167969 -162.6875 535.101562 C -162.6875 526.085938 -162.816406 524.820312 -163.828125 523.902344 C -164.832031 522.996094 -167.582031 522.851562 -186.648438 522.703125 L -208.328125 522.539062 L -208.722656 511.835938 C -208.9375 505.949219 -208.988281 500.921875 -208.839844 500.660156 C -208.691406 500.402344 -197.441406 500.1875 -183.835938 500.1875 C -160.492188 500.1875 -159.042969 500.121094 -158.039062 499.011719 C -157.152344 498.03125 -156.953125 496.230469 -156.839844 488.097656 C -156.738281 480.609375 -156.90625 478.113281 -157.570312 477.308594 C -158.355469 476.355469 -161.789062 476.265625 -196.601562 476.285156 C -227.34375 476.300781 -234.988281 476.46875 -235.875 477.140625 M -140.28125 477.460938 C -141.285156 478.574219 -141.34375 481.589844 -141.117188 520.113281 C -140.878906 561.023438 -140.859375 561.628906 -139.460938 565.980469 C -136.710938 574.558594 -133.847656 579.445312 -128.402344 584.875 C -120.96875 592.28125 -113.660156 595.652344 -101.617188 597.222656 C -94.191406 598.195312 -92.859375 598.195312 -84.484375 597.242188 C -65.871094 595.125 -52.957031 586.015625 -47.289062 571.015625 C -46.632812 569.285156 -45.566406 565.316406 -44.917969 562.203125 C -43.839844 557.023438 -43.738281 553.175781 -43.71875 517.441406 C -43.699219 480.355469 -43.757812 478.296875 -44.847656 477.308594 C -45.832031 476.417969 -47.679688 476.265625 -57.46875 476.265625 C -68.804688 476.265625 -68.953125 476.28125 -70.480469 477.808594 L -72.027344 479.355469 L -72.027344 517.683594 C -72.027344 554.902344 -72.066406 556.128906 -73.347656 560.050781 C -76.023438 568.226562 -81.835938 572.476562 -91.152344 573.058594 C -100.617188 573.648438 -107.382812 570.128906 -110.695312 562.886719 C -113.191406 557.429688 -113.574219 550.875 -113.578125 513.96875 C -113.578125 480.136719 -113.601562 479.554688 -114.882812 477.921875 L -116.1875 476.265625 L -127.691406 476.265625 C -138.195312 476.265625 -139.292969 476.367188 -140.28125 477.460938 M -18.792969 477.664062 C -19.664062 478.90625 -19.773438 485.378906 -19.773438 534.875 C -19.773438 565.574219 -19.597656 591.558594 -19.386719 592.621094 C -18.828125 595.410156 -16.761719 595.882812 -5.175781 595.882812 C 2.96875 595.882812 5.113281 595.695312 6.375 594.867188 L 7.929688 593.851562 L 7.929688 557.40625 C 7.929688 534.980469 8.15625 520.964844 8.523438 520.964844 C 9.242188 520.964844 18.089844 531.757812 23.746094 539.535156 C 36.054688 556.476562 43.574219 567.957031 54.5 586.496094 C 55.445312 588.125 56.382812 589.757812 57.304688 591.398438 C 58.375 593.300781 59.480469 594.546875 59.933594 594.371094 C 60.367188 594.207031 61.058594 594.476562 61.472656 594.976562 C 62.058594 595.683594 64.066406 595.882812 70.523438 595.882812 C 80.023438 595.882812 81.949219 595.324219 82.4375 592.429688 C 82.613281 591.386719 82.703125 565.222656 82.644531 534.292969 C 82.535156 479.414062 82.503906 478.03125 81.308594 477.160156 C 79.605469 475.910156 57.886719 475.894531 56.246094 477.140625 C 55.222656 477.917969 55.144531 480.234375 55.144531 509.820312 C 55.144531 528.351562 54.90625 541.816406 54.570312 542.019531 C 54.253906 542.21875 51.082031 538.195312 47.523438 533.085938 C 43.964844 527.976562 40.40625 522.949219 39.613281 521.910156 C 38.820312 520.871094 35.972656 517.007812 33.28125 513.328125 C 25.933594 503.277344 13.339844 487.980469 7.304688 481.773438 L 1.945312 476.265625 L -7.933594 476.265625 C -17.429688 476.265625 -17.851562 476.320312 -18.792969 477.664062 M 382.640625 476.808594 C 382.183594 477.097656 381.378906 478.15625 380.851562 479.160156 C 377.992188 484.613281 369.925781 503.007812 364.597656 516.242188 C 361.25 524.554688 358.128906 532.203125 357.664062 533.242188 C 356.183594 536.527344 352.921875 544.914062 349.707031 553.703125 C 347.996094 558.375 345.917969 564.042969 345.09375 566.292969 C 341.113281 577.125 338.3125 584.984375 338.019531 586.125 C 337.84375 586.816406 337.160156 588.585938 336.5 590.054688 C 335.039062 593.316406 334.933594 594.457031 336.195312 593.410156 C 336.800781 592.90625 337.210938 592.882812 337.488281 593.335938 C 337.75 593.757812 342.171875 593.996094 349.785156 593.996094 C 361.390625 593.996094 361.699219 593.960938 362.714844 592.578125 L 363.753906 591.160156 L 363.335938 592.578125 C 363.109375 593.355469 363.167969 593.996094 363.46875 593.996094 C 363.769531 593.996094 364.617188 592.082031 365.355469 589.746094 C 366.09375 587.40625 367.921875 582.027344 369.417969 577.785156 L 372.136719 570.078125 L 394.664062 570.074219 C 412.128906 570.070312 417.246094 570.246094 417.445312 570.859375 C 417.589844 571.292969 419.257812 576.035156 421.152344 581.402344 C 423.050781 586.769531 424.699219 591.726562 424.816406 592.421875 C 424.992188 593.445312 425.675781 593.75 428.488281 594.050781 C 431.535156 594.375 431.644531 594.433594 429.425781 594.53125 C 427.546875 594.613281 427.148438 594.796875 427.851562 595.253906 C 429.285156 596.179688 452.601562 596.066406 453.539062 595.128906 C 454.417969 594.25 454.554688 591.082031 453.738281 590.578125 C 453.429688 590.386719 453.046875 589.449219 452.878906 588.492188 C 452.523438 586.4375 449.199219 577.160156 439.585938 551.382812 C 431.421875 529.484375 419.878906 501.757812 411.921875 484.921875 C 409.179688 479.125 408.066406 477.390625 406.765625 476.894531 C 404.769531 476.136719 383.816406 476.0625 382.640625 476.808594 M 470.445312 477.417969 C 469.492188 478.46875 469.402344 483.476562 469.402344 536.46875 C 469.402344 580.667969 469.582031 594.550781 470.160156 595.128906 C 470.695312 595.660156 474.386719 595.882812 482.75 595.882812 C 493.777344 595.882812 494.675781 595.796875 495.855469 594.613281 C 497.113281 593.359375 497.121094 592.765625 496.957031 535.699219 C 496.792969 479.460938 496.761719 478.03125 495.570312 477.15625 C 494.617188 476.464844 491.792969 476.265625 482.917969 476.265625 C 472.644531 476.265625 471.382812 476.382812 470.445312 477.417969 M 622.863281 476.945312 C 621.824219 477.546875 621.761719 481.03125 621.761719 536 L 621.761719 594.410156 L 623.175781 595.164062 C 625.273438 596.28125 704.464844 595.902344 705.59375 594.773438 C 706.382812 593.984375 706.953125 577.183594 706.296875 574.046875 C 705.765625 571.523438 703.65625 571.359375 676.1875 571.699219 C 661.835938 571.875 650.074219 571.9375 650.050781 571.832031 C 649.734375 570.320312 649.441406 547.570312 649.726562 546.441406 L 650.117188 544.886719 L 672.375 544.886719 C 690.464844 544.886719 694.769531 544.726562 695.351562 544.023438 C 695.808594 543.476562 696.125 539.507812 696.21875 533.191406 L 696.363281 523.226562 L 694.792969 522.417969 C 693.605469 521.8125 687.921875 521.609375 671.65625 521.601562 L 650.089844 521.59375 L 650.023438 518.289062 C 649.988281 516.472656 649.84375 512.292969 649.699219 509.003906 C 649.558594 505.714844 649.59375 502.382812 649.777344 501.605469 L 650.117188 500.1875 L 675.167969 500.1875 C 695.796875 500.1875 700.433594 500.03125 701.4375 499.296875 C 702.539062 498.492188 702.679688 497.4375 702.875 488.648438 C 703.074219 479.445312 703.011719 478.820312 701.773438 477.578125 C 700.46875 476.273438 700.167969 476.265625 662.210938 476.285156 C 637.40625 476.296875 623.578125 476.527344 622.863281 476.945312 M 294.203125 479.75 C 313.175781 486.09375 319.636719 493.375 322.382812 511.519531 C 323.222656 517.0625 323.269531 517.179688 323 513.09375 C 322.097656 499.375 317.746094 491.105469 308.34375 485.246094 C 303.859375 482.449219 292.996094 478.105469 290.703125 478.195312 C 290.128906 478.214844 291.707031 478.917969 294.203125 479.75 M 376.941406 489.425781 C 375.085938 493.742188 375.3125 494.363281 377.214844 490.175781 C 378.066406 488.304688 378.65625 486.667969 378.523438 486.535156 C 378.394531 486.40625 377.683594 487.707031 376.941406 489.425781 M 198.761719 495.152344 C 199.875 496.535156 200.917969 497.539062 201.078125 497.378906 C 201.4375 497.019531 197.941406 492.742188 197.242188 492.679688 C 196.964844 492.652344 197.652344 493.765625 198.761719 495.152344 M 374.628906 494.566406 C 374.398438 494.933594 374.347656 495.371094 374.511719 495.535156 C 374.675781 495.699219 374.980469 495.398438 375.183594 494.863281 C 375.609375 493.753906 375.25 493.558594 374.628906 494.566406 M 140.945312 498.132812 C 142.597656 498.265625 145.148438 498.261719 146.609375 498.128906 C 148.070312 498 146.71875 497.890625 143.601562 497.894531 C 140.484375 497.894531 139.289062 498.003906 140.945312 498.132812 M 266.050781 498.300781 L 270.144531 498.710938 L 266.796875 498.820312 C 260.761719 499.015625 261.015625 498.390625 261.015625 513.039062 C 261.015625 520.082031 261.1875 526.703125 261.398438 527.75 C 261.882812 530.1875 262.722656 530.3125 274.328125 529.667969 C 281.25 529.28125 284.144531 528.847656 286.691406 527.816406 C 290.457031 526.289062 293.980469 522.644531 294.707031 519.519531 C 295.011719 518.21875 295.273438 517.875 295.445312 518.554688 C 295.75 519.738281 293.703125 524.105469 292.304688 525.269531 C 291.800781 525.683594 289.867188 526.863281 288.007812 527.890625 C 286.128906 528.925781 285.140625 529.761719 285.789062 529.765625 C 289.675781 529.804688 294.984375 524.371094 296.648438 518.644531 C 298.820312 511.167969 294.710938 501.804688 288.527344 500.136719 C 287.175781 499.773438 285.945312 499.601562 285.789062 499.757812 C 285.636719 499.910156 286.269531 500.226562 287.199219 500.460938 C 289.726562 501.09375 293.0625 503.886719 294.332031 506.433594 C 295.621094 509.007812 296.523438 513.011719 295.703125 512.503906 C 295.402344 512.316406 294.957031 511.097656 294.714844 509.796875 C 293.882812 505.300781 289.90625 501.738281 284.308594 500.472656 C 282.164062 499.988281 282.148438 499.960938 283.679688 499.460938 C 284.800781 499.09375 284.425781 499.027344 282.375 499.226562 C 280.792969 499.378906 277.390625 499.304688 274.820312 499.058594 L 270.144531 498.613281 L 275.179688 498.257812 C 279.035156 497.984375 278.074219 497.898438 271.089844 497.894531 C 264.5 497.890625 263.097656 498 266.050781 498.300781 M 138.25 499.492188 L 136.675781 499.929688 L 136.675781 572.273438 L 144.230469 572.460938 C 156.511719 572.761719 165.761719 570.433594 171.703125 565.546875 C 174.964844 562.863281 176.203125 562.414062 174.402344 564.5625 C 173.75 565.339844 174.273438 565.003906 175.566406 563.808594 C 176.855469 562.617188 177.914062 561.507812 177.914062 561.351562 C 177.914062 561.191406 177.34375 561.574219 176.652344 562.203125 C 174.871094 563.8125 175.089844 562.746094 177.007812 560.464844 C 185.328125 550.578125 186.667969 527.109375 179.628906 514.589844 C 177.4375 510.691406 172.929688 505.808594 169.726562 503.859375 C 164.160156 500.46875 144.523438 497.746094 138.25 499.492188 M 202.527344 501.09375 C 203.253906 502.328125 203.96875 503.335938 204.117188 503.335938 C 204.566406 503.335938 202.523438 499.667969 201.839844 499.246094 C 201.492188 499.03125 201.800781 499.863281 202.527344 501.09375 M 372.214844 499.898438 C 371.605469 501.480469 371.785156 501.890625 372.527344 500.613281 C 372.894531 499.980469 373.0625 499.332031 372.898438 499.167969 C 372.738281 499.007812 372.429688 499.335938 372.214844 499.898438 M 754.601562 499.507812 L 753.027344 499.929688 L 753.027344 529.464844 L 758.0625 529.660156 C 765.917969 529.96875 774.460938 528.757812 778.507812 526.765625 C 783.90625 524.105469 786.558594 518.953125 785.890625 512.429688 C 785.585938 509.441406 783.734375 505.144531 782.089844 503.59375 C 780.167969 501.785156 773.582031 500.238281 766.246094 499.863281 C 762.09375 499.65625 758.125 499.394531 757.433594 499.285156 C 756.742188 499.175781 755.464844 499.277344 754.601562 499.507812 M 369.066406 507.453125 C 368.457031 509.035156 368.636719 509.445312 369.378906 508.167969 C 369.746094 507.535156 369.914062 506.886719 369.753906 506.726562 C 369.589844 506.5625 369.28125 506.890625 369.066406 507.453125 M 392.707031 510.417969 C 391.902344 512.582031 390.855469 515.34375 390.375 516.558594 C 389.378906 519.085938 385.570312 529.234375 382.339844 537.960938 C 381.125 541.253906 379.953125 544.722656 379.738281 545.675781 L 379.351562 547.40625 L 394.367188 547.40625 C 402.628906 547.40625 409.558594 547.234375 409.769531 547.023438 C 410.101562 546.6875 408.746094 542.25 407.09375 538.277344 C 406.804688 537.585938 405.933594 535.175781 405.15625 532.925781 C 404.378906 530.675781 403.386719 527.984375 402.949219 526.945312 C 402.511719 525.90625 400.535156 520.878906 398.554688 515.769531 C 396.574219 510.664062 394.777344 506.484375 394.558594 506.484375 C 394.339844 506.484375 393.507812 508.253906 392.707031 510.417969 M 367.515625 511.234375 C 366.460938 513.546875 366.664062 514.042969 367.804688 511.9375 C 368.335938 510.953125 368.652344 510.03125 368.511719 509.886719 C 368.367188 509.746094 367.917969 510.351562 367.515625 511.234375 M 208.183594 513.148438 C 208.210938 513.878906 208.359375 514.03125 208.5625 513.527344 C 208.742188 513.074219 208.722656 512.53125 208.511719 512.320312 C 208.304688 512.113281 208.15625 512.484375 208.183594 513.148438 M 322.207031 519.390625 C 322.21875 520.429688 322.359375 520.777344 322.519531 520.164062 C 322.679688 519.554688 322.671875 518.703125 322.496094 518.277344 C 322.324219 517.851562 322.195312 518.351562 322.207031 519.390625 M 362.769531 522.839844 C 361.351562 526.390625 361.570312 526.917969 363.066406 523.546875 C 363.738281 522.027344 364.179688 520.667969 364.042969 520.53125 C 363.90625 520.394531 363.332031 521.433594 362.769531 522.839844 M 321.210938 524.390625 C 319.886719 531.113281 313.574219 538.804688 305.558594 543.476562 C 302.875 545.039062 300.683594 546.632812 300.6875 547.019531 C 300.695312 547.515625 300.832031 547.523438 301.160156 547.039062 C 301.414062 546.664062 303.40625 545.414062 305.585938 544.261719 C 310.359375 541.734375 314.285156 538.375 317.363281 534.183594 C 319.773438 530.898438 322.300781 524.671875 321.925781 522.9375 C 321.804688 522.371094 321.484375 523.027344 321.210938 524.390625 M 359.457031 531.152344 C 357.226562 536.839844 357.078125 537.320312 358.015625 535.824219 C 359.070312 534.148438 361.789062 527.09375 361.496094 526.800781 C 361.363281 526.667969 360.445312 528.625 359.457031 531.152344 M 279.589844 530.40625 L 277.070312 530.859375 L 279.273438 530.886719 C 280.484375 530.902344 282.183594 530.683594 283.050781 530.40625 C 285.074219 529.761719 283.207031 529.761719 279.589844 530.40625 M 470.203125 536.074219 C 470.203125 537.632812 470.328125 538.269531 470.476562 537.492188 C 470.628906 536.710938 470.628906 535.4375 470.476562 534.65625 C 470.328125 533.878906 470.203125 534.515625 470.203125 536.074219 M 352.695312 548.375 C 352.089844 549.957031 352.269531 550.367188 353.011719 549.089844 C 353.378906 548.457031 353.546875 547.808594 353.382812 547.648438 C 353.222656 547.484375 352.910156 547.8125 352.695312 548.375 M 470.132812 549.296875 C 470.132812 550.160156 470.277344 550.515625 470.449219 550.082031 C 470.625 549.648438 470.625 548.941406 470.449219 548.507812 C 470.277344 548.074219 470.132812 548.429688 470.132812 549.296875 M 210.121094 550.554688 C 210.121094 551.421875 210.261719 551.773438 210.4375 551.339844 C 210.613281 550.910156 210.613281 550.199219 210.4375 549.765625 C 210.261719 549.335938 210.121094 549.6875 210.121094 550.554688 M 350.273438 554.8125 C 347.179688 562.871094 344.019531 572.070312 344.261719 572.3125 C 344.476562 572.527344 347.039062 565.867188 351.152344 554.414062 C 352.921875 549.492188 352.191406 549.824219 350.273438 554.8125 M 470.28125 559.996094 C 470.28125 564.671875 470.378906 566.585938 470.5 564.246094 C 470.621094 561.910156 470.621094 558.085938 470.5 555.75 C 470.378906 553.410156 470.28125 555.324219 470.28125 559.996094 M 209.441406 553.441406 C 209.472656 554.171875 209.621094 554.324219 209.820312 553.820312 C 210.003906 553.367188 209.980469 552.824219 209.769531 552.613281 C 209.5625 552.40625 209.414062 552.777344 209.441406 553.441406 M 261.117188 557.480469 C 261.117188 558.34375 261.257812 558.699219 261.433594 558.265625 C 261.609375 557.835938 261.609375 557.125 261.433594 556.691406 C 261.257812 556.261719 261.117188 556.613281 261.117188 557.480469 M 205.339844 564.851562 C 204.996094 565.746094 205.070312 565.820312 205.691406 565.203125 C 206.121094 564.773438 206.316406 564.265625 206.121094 564.074219 C 205.929688 563.878906 205.574219 564.230469 205.339844 564.851562 M 201.195312 571.800781 C 200.035156 573.445312 199.632812 574.316406 200.300781 573.734375 C 201.476562 572.714844 204.050781 568.8125 203.550781 568.8125 C 203.417969 568.8125 202.359375 570.15625 201.195312 571.800781 M 370.851562 569.484375 C 370.621094 569.851562 370.570312 570.289062 370.734375 570.457031 C 370.898438 570.621094 371.203125 570.316406 371.410156 569.785156 C 371.832031 568.675781 371.472656 568.480469 370.851562 569.484375 M 259.878906 571.015625 C 259.890625 572.054688 260.03125 572.402344 260.191406 571.789062 C 260.351562 571.179688 260.34375 570.328125 260.167969 569.902344 C 259.996094 569.476562 259.867188 569.976562 259.878906 571.015625 M 369.695312 572.300781 C 369.085938 573.882812 369.265625 574.289062 370.007812 573.015625 C 370.375 572.382812 370.542969 571.734375 370.382812 571.570312 C 370.21875 571.410156 369.910156 571.738281 369.695312 572.300781 M 470.253906 577.625 C 470.253906 580.570312 470.363281 581.773438 470.496094 580.300781 C 470.628906 578.828125 470.628906 576.421875 470.496094 574.949219 C 470.363281 573.476562 470.253906 574.683594 470.253906 577.625 M 342.929688 575.175781 C 342.542969 576.289062 342.335938 577.3125 342.46875 577.445312 C 342.605469 577.582031 343.03125 576.78125 343.421875 575.667969 C 343.808594 574.554688 344.015625 573.535156 343.878906 573.398438 C 343.746094 573.265625 343.316406 574.066406 342.929688 575.175781 M 197.382812 576.839844 L 195.855469 578.570312 L 197.585938 577.042969 C 199.203125 575.617188 199.605469 575.109375 199.113281 575.109375 C 199 575.109375 198.222656 575.886719 197.382812 576.839844 M 193.605469 580.597656 C 192.484375 581.855469 192.414062 582.0625 193.335938 581.382812 C 195.339844 579.910156 196.304688 578.886719 195.695312 578.886719 C 195.382812 578.886719 194.445312 579.65625 193.605469 580.597656 M 324.703125 584.988281 C 326.53125 588.519531 328.132812 591.304688 328.261719 591.175781 C 328.558594 590.878906 323.597656 581.324219 322.332031 579.757812 C 321.804688 579.105469 322.871094 581.457031 324.703125 584.988281 M 340.734375 581.113281 C 340.128906 582.695312 340.304688 583.105469 341.046875 581.828125 C 341.417969 581.195312 341.585938 580.546875 341.421875 580.386719 C 341.261719 580.222656 340.949219 580.550781 340.734375 581.113281 M 179.800781 588.957031 C 179.28125 589.292969 179.140625 589.570312 179.484375 589.570312 C 179.832031 589.570312 180.539062 589.292969 181.058594 588.957031 C 181.578125 588.621094 181.722656 588.347656 181.375 588.347656 C 181.027344 588.347656 180.320312 588.621094 179.800781 588.957031 M 452.808594 593.679688 C 452.609375 594.199219 452.71875 594.625 453.054688 594.625 C 453.390625 594.625 453.664062 594.199219 453.664062 593.679688 C 453.664062 593.160156 453.554688 592.734375 453.417969 592.734375 C 453.28125 592.734375 453.007812 593.160156 452.808594 593.679688 M 165.832031 593.796875 C 166.285156 593.976562 166.828125 593.953125 167.039062 593.746094 C 167.246094 593.535156 166.875 593.386719 166.210938 593.414062 C 165.480469 593.445312 165.332031 593.59375 165.832031 593.796875 M 162.34375 594.429688 C 162.953125 594.589844 163.804688 594.582031 164.230469 594.40625 C 164.65625 594.234375 164.15625 594.105469 163.117188 594.117188 C 162.078125 594.128906 161.730469 594.269531 162.34375 594.429688 M 435.878906 594.457031 C 437.351562 594.589844 439.757812 594.589844 441.230469 594.457031 C 442.703125 594.324219 441.5 594.214844 438.554688 594.214844 C 435.613281 594.214844 434.40625 594.324219 435.878906 594.457031 M 235.203125 595.253906 C 236.472656 596.074219 258.304688 596.074219 258.8125 595.253906 C 259.066406 594.84375 254.886719 594.628906 246.730469 594.632812 C 238.445312 594.640625 234.578125 594.847656 235.203125 595.253906 M 305.402344 595.265625 C 307.039062 595.980469 328.5625 595.921875 329.707031 595.199219 C 330.226562 594.867188 325.21875 594.65625 317.363281 594.679688 C 309.230469 594.699219 304.625 594.925781 305.402344 595.265625 M 336.878906 595.253906 C 337.351562 596.015625 356.515625 596.046875 360.171875 595.289062 C 361.84375 594.945312 358.289062 594.746094 349.589844 594.695312 C 341 594.648438 336.625 594.839844 336.878906 595.253906 " fill-opacity="1" fill-rule="evenodd"/></g></svg>