<svg xmlns="http://www.w3.org/2000/svg" xmlns:xlink="http://www.w3.org/1999/xlink" width="1200" zoomAndPan="magnify" viewBox="0 0 900 262.499992" height="350" preserveAspectRatio="xMidYMid meet" version="1.0"><path fill="#e6bd17" d="M 251.449219 -221.648438 C 250.976562 -221.125 250.585938 -220.339844 250.585938 -219.90625 C 250.585938 -219.46875 250.121094 -218.066406 249.554688 -216.78125 C 246.726562 -210.390625 245.4375 -198.222656 246.484375 -187.796875 C 247.738281 -175.273438 252.058594 -166.042969 261.644531 -155.410156 C 267.175781 -149.273438 271.046875 -146.089844 279.21875 -140.949219 C 282.796875 -138.699219 295.554688 -132.0625 296.300781 -132.0625 C 296.472656 -132.0625 297.589844 -131.636719 298.785156 -131.117188 C 304.109375 -128.789062 306.417969 -127.914062 311.6875 -126.226562 C 318.570312 -124.023438 334.039062 -120.125 340.578125 -118.941406 C 356.804688 -116.011719 366.886719 -114.574219 377.648438 -113.664062 C 405.367188 -111.3125 427.5 -110.402344 427.5 -111.609375 C 427.5 -111.890625 426.175781 -112.125 424.5625 -112.128906 C 422.945312 -112.132812 421.277344 -112.359375 420.855469 -112.632812 C 420.21875 -113.042969 420.261719 -113.125 421.109375 -113.121094 C 423.585938 -113.101562 429.792969 -112.078125 430.261719 -111.613281 C 430.542969 -111.328125 431.664062 -111.097656 432.753906 -111.097656 C 434.574219 -111.097656 434.667969 -111.164062 433.90625 -111.925781 C 433.410156 -112.421875 431.605469 -112.925781 429.394531 -113.1875 C 427.371094 -113.425781 423.410156 -113.980469 420.597656 -114.421875 C 417.785156 -114.863281 413.875 -115.449219 411.90625 -115.726562 C 409.9375 -116 407.40625 -116.429688 406.28125 -116.679688 C 405.15625 -116.925781 403.429688 -117.289062 402.445312 -117.484375 C 398.066406 -118.359375 384.828125 -121.765625 378.414062 -123.675781 C 374.140625 -124.945312 361.242188 -129.246094 359.242188 -130.066406 C 358.679688 -130.296875 355.6875 -131.441406 352.59375 -132.613281 C 340.863281 -137.050781 321.871094 -147.0625 309.226562 -155.476562 C 295.734375 -164.453125 278.109375 -181.515625 269.121094 -194.296875 C 268.488281 -195.199219 267.972656 -196.058594 267.972656 -196.210938 C 267.972656 -196.359375 267.222656 -197.578125 266.308594 -198.914062 C 263.492188 -203.03125 261.738281 -206.214844 257.632812 -214.640625 C 256.261719 -217.453125 254.855469 -220.324219 254.507812 -221.027344 C 253.707031 -222.640625 252.558594 -222.871094 251.449219 -221.648438 M 647.882812 -221.804688 C 647.535156 -221.386719 646.179688 -218.796875 644.867188 -216.050781 C 636.523438 -198.5625 630.496094 -190.007812 616.195312 -175.359375 C 602.773438 -161.617188 585.664062 -149.800781 563.804688 -139.1875 C 558.632812 -136.675781 554.253906 -134.617188 554.078125 -134.617188 C 553.898438 -134.617188 550.601562 -133.367188 546.746094 -131.839844 C 527.300781 -124.125 503.816406 -117.792969 484 -114.914062 C 480.90625 -114.464844 477.273438 -113.882812 475.921875 -113.621094 C 474.574219 -113.359375 472.460938 -113.144531 471.230469 -113.144531 C 469.3125 -113.144531 467.382812 -112.226562 467.382812 -111.316406 C 467.382812 -111.195312 468.820312 -111.125 470.578125 -111.160156 C 473.03125 -111.207031 473.417969 -111.304688 472.242188 -111.582031 C 470.765625 -111.933594 470.796875 -111.960938 473.007812 -112.265625 C 478.433594 -113.019531 481.253906 -113.152344 480.9375 -112.640625 C 480.761719 -112.355469 479.609375 -112.121094 478.375 -112.121094 C 477.144531 -112.121094 475.96875 -111.855469 475.769531 -111.527344 C 475.367188 -110.875 490.667969 -111.199219 503.6875 -112.113281 C 507.484375 -112.382812 512.890625 -112.730469 515.703125 -112.886719 C 531.621094 -113.773438 556.417969 -117.671875 574.757812 -122.171875 C 577.484375 -122.84375 580.210938 -123.503906 582.9375 -124.160156 C 596.402344 -127.375 616.328125 -136.394531 628.445312 -144.757812 C 633.265625 -148.085938 642.808594 -158.019531 646.703125 -163.765625 C 651.195312 -170.398438 654.59375 -180.007812 655.484375 -188.613281 C 656.28125 -196.339844 655.324219 -207.566406 653.476562 -212.082031 C 653.246094 -212.644531 652.953125 -213.796875 652.828125 -214.640625 C 652.589844 -216.226562 650.980469 -220.800781 650.265625 -221.925781 C 649.71875 -222.785156 648.652344 -222.730469 647.882812 -221.804688 M 623.589844 -131.472656 C 620.023438 -128.628906 605.878906 -121.777344 598.53125 -119.335938 C 582.699219 -114.078125 568.167969 -111.144531 543.570312 -108.242188 C 532.886719 -106.980469 501.546875 -105.824219 489.8125 -106.261719 C 484.070312 -106.472656 480.683594 -106.410156 480.488281 -106.089844 C 480.109375 -105.480469 482.328125 -103.941406 483.597656 -103.933594 C 484.101562 -103.929688 485.546875 -103.5625 486.8125 -103.117188 C 492.753906 -101.039062 514.410156 -95.890625 526.183594 -93.761719 C 544.089844 -90.527344 555.03125 -89.394531 568.367188 -89.394531 C 583.464844 -89.394531 594.007812 -91.261719 604.925781 -95.863281 C 618.625 -101.640625 627.523438 -113.335938 628.734375 -127.152344 C 629.09375 -131.242188 628.46875 -133.621094 627.054688 -133.554688 C 626.554688 -133.53125 624.996094 -132.59375 623.589844 -131.472656 M 272.796875 -131.300781 C 272.1875 -128.0625 273.328125 -121.273438 275.207031 -116.925781 C 280.152344 -105.488281 287.953125 -98.691406 301.71875 -93.824219 C 317.726562 -88.167969 344.921875 -87.9375 372.535156 -93.226562 C 383.066406 -95.246094 388.867188 -96.472656 394.363281 -97.84375 C 397.054688 -98.515625 399.75 -99.175781 402.445312 -99.828125 C 404.554688 -100.335938 408.46875 -101.371094 411.140625 -102.121094 C 413.808594 -102.875 416.691406 -103.671875 417.542969 -103.894531 C 419.597656 -104.421875 421.527344 -105.480469 421.140625 -105.867188 C 420.972656 -106.039062 411.691406 -106.21875 400.519531 -106.265625 C 381.773438 -106.347656 375.71875 -106.621094 360.261719 -108.082031 C 351.394531 -108.921875 338.886719 -110.507812 334.566406 -111.347656 L 327.796875 -112.660156 C 308.21875 -116.457031 289.246094 -123.488281 278.074219 -131.089844 C 274.34375 -133.628906 273.242188 -133.671875 272.796875 -131.300781 M 415.613281 -113.828125 C 415.964844 -113.6875 416.539062 -113.6875 416.890625 -113.828125 C 417.242188 -113.96875 416.953125 -114.085938 416.25 -114.085938 C 415.550781 -114.085938 415.261719 -113.96875 415.613281 -113.828125 M 415.101562 -104.625 C 415.453125 -104.480469 416.027344 -104.480469 416.378906 -104.625 C 416.730469 -104.765625 416.445312 -104.882812 415.742188 -104.882812 C 415.039062 -104.882812 414.75 -104.765625 415.101562 -104.625 M 477.882812 -98.34375 C 477.296875 -97.398438 478.019531 -96.925781 498.316406 -85.039062 C 509.4375 -78.523438 527.351562 -70.023438 537.070312 -66.644531 C 557.277344 -59.625 572.804688 -58.214844 584.730469 -62.320312 C 592.246094 -64.910156 600.011719 -72.53125 602.804688 -80.054688 C 604 -83.273438 604.199219 -85.289062 603.378906 -85.796875 C 603.089844 -85.972656 601.421875 -85.644531 599.671875 -85.066406 C 594.261719 -83.273438 584.410156 -81.796875 573.992188 -81.210938 C 563.042969 -80.597656 534.953125 -83.523438 522.605469 -86.5625 C 519.855469 -87.238281 516.609375 -87.960938 512.121094 -88.898438 C 509.871094 -89.371094 506.535156 -90.183594 504.707031 -90.710938 C 501.8125 -91.535156 498.917969 -92.351562 496.015625 -93.15625 C 490.460938 -94.695312 483.363281 -96.902344 480.058594 -98.109375 C 479 -98.496094 478.039062 -98.597656 477.882812 -98.34375 M 421.746094 -98.015625 C 421.582031 -97.851562 420.679688 -97.523438 419.742188 -97.292969 C 418.808594 -97.0625 415.96875 -96.253906 413.441406 -95.496094 C 408 -93.867188 402.382812 -92.285156 399.890625 -91.671875 C 398.90625 -91.433594 396.835938 -90.898438 395.289062 -90.488281 C 393.742188 -90.078125 390.867188 -89.390625 388.898438 -88.960938 C 386.929688 -88.53125 383.246094 -87.71875 380.714844 -87.160156 C 360.011719 -82.589844 340.785156 -80.515625 324.726562 -81.125 C 315.320312 -81.484375 310.9375 -82.101562 303.878906 -84.070312 C 300.992188 -84.875 298.417969 -85.53125 298.164062 -85.53125 C 296.269531 -85.53125 298.027344 -78.972656 301.101562 -74.5625 C 306.882812 -66.269531 312.65625 -62.546875 323.128906 -60.371094 C 333.085938 -58.300781 348.859375 -60.460938 363.074219 -65.84375 C 364.058594 -66.214844 366.246094 -67.027344 367.933594 -67.648438 C 369.621094 -68.269531 371.726562 -69.09375 372.613281 -69.484375 C 373.5 -69.875 374.375 -70.195312 374.558594 -70.195312 C 375.824219 -70.195312 398.175781 -81.78125 408.582031 -87.835938 C 420.71875 -94.894531 424.074219 -97.144531 423.609375 -97.894531 C 423.308594 -98.382812 422.183594 -98.453125 421.746094 -98.015625 M 420.089844 -96.277344 C 419.910156 -95.988281 420.117188 -95.902344 420.570312 -96.074219 C 421.457031 -96.414062 421.621094 -96.78125 420.882812 -96.78125 C 420.617188 -96.78125 420.261719 -96.554688 420.089844 -96.277344 M 480.675781 -96.535156 C 480.675781 -96.402344 481.597656 -95.820312 482.722656 -95.246094 C 485.179688 -93.996094 485.4375 -94.34375 483.105469 -95.765625 C 481.464844 -96.765625 480.675781 -97.015625 480.675781 -96.535156 M 424.464844 -89.644531 C 424.066406 -89.394531 423.683594 -88.832031 423.621094 -88.390625 C 423.511719 -87.660156 416.40625 -79.398438 415.882812 -79.398438 C 415.632812 -79.398438 419.769531 -84.433594 422.078125 -86.9375 C 422.921875 -87.851562 423.453125 -88.601562 423.257812 -88.601562 C 423.066406 -88.601562 419.625 -86.316406 415.617188 -83.527344 C 406.5 -77.183594 396.613281 -71.367188 385.019531 -65.523438 C 380.074219 -63.03125 375.878906 -60.988281 375.703125 -60.988281 C 375.523438 -60.988281 374.164062 -60.449219 372.679688 -59.789062 C 371.191406 -59.128906 368.597656 -58.074219 366.910156 -57.445312 C 365.222656 -56.8125 363.296875 -56.082031 362.628906 -55.8125 C 358.058594 -53.988281 347.152344 -52 339.816406 -51.652344 C 336.363281 -51.488281 336.269531 -50.503906 339.351562 -46.894531 C 342.136719 -43.636719 345.878906 -41.003906 349.414062 -39.820312 C 354.667969 -38.066406 365.914062 -39.074219 371.355469 -41.789062 C 372.230469 -42.226562 373.125 -42.582031 373.339844 -42.582031 C 373.871094 -42.582031 383.460938 -48.117188 385.0625 -49.347656 C 385.765625 -49.886719 388.152344 -51.683594 390.371094 -53.335938 C 394.757812 -56.609375 410.117188 -71.082031 410.117188 -71.941406 C 410.117188 -72.234375 407.867188 -70.234375 405.121094 -67.5 C 402.375 -64.761719 399.96875 -62.523438 399.773438 -62.523438 C 399.578125 -62.523438 402.359375 -65.515625 405.949219 -69.171875 C 409.539062 -72.828125 412.683594 -75.816406 412.933594 -75.816406 C 413.179688 -75.816406 412.605469 -75.011719 411.648438 -74.027344 C 410.695312 -73.042969 410.132812 -72.257812 410.398438 -72.28125 C 410.664062 -72.308594 413.183594 -74.867188 415.996094 -77.972656 C 418.808594 -81.078125 422.242188 -84.859375 423.625 -86.378906 C 425.175781 -88.082031 425.960938 -89.324219 425.667969 -89.617188 C 425.390625 -89.894531 424.890625 -89.90625 424.464844 -89.644531 M 477.609375 -88.429688 C 477.609375 -88.289062 478.789062 -87.238281 480.234375 -86.085938 C 481.675781 -84.9375 482.535156 -84 482.136719 -84 C 481.742188 -84 480.5625 -84.707031 479.515625 -85.570312 C 478.46875 -86.433594 477.609375 -86.988281 477.609375 -86.800781 C 477.609375 -85.863281 494.941406 -67.542969 495.5 -67.890625 C 495.871094 -68.121094 501.128906 -63.371094 501.128906 -62.804688 C 501.128906 -62.617188 500.871094 -62.625 500.550781 -62.820312 C 500.234375 -63.015625 500.0625 -62.953125 500.167969 -62.679688 C 500.664062 -61.410156 514.296875 -50.21875 518.105469 -47.957031 C 527.070312 -42.628906 531.6875 -40.398438 535.515625 -39.546875 C 536.851562 -39.246094 538.984375 -38.773438 540.253906 -38.492188 C 546.992188 -37 554.734375 -39.222656 560.203125 -44.222656 C 563.101562 -46.871094 565.300781 -49.933594 564.84375 -50.675781 C 564.691406 -50.917969 562.316406 -51.261719 559.566406 -51.4375 C 553.34375 -51.835938 544.710938 -53.457031 541.265625 -54.878906 C 540.707031 -55.109375 538.402344 -55.925781 536.15625 -56.695312 C 532.375 -57.984375 531.132812 -58.46875 525.417969 -60.890625 C 516.144531 -64.816406 496.027344 -76.152344 486.351562 -82.90625 C 480.761719 -86.808594 477.609375 -88.800781 477.609375 -88.429688 M 485.644531 -78.628906 C 486.519531 -77.503906 488.101562 -75.78125 489.167969 -74.796875 L 491.097656 -73.007812 L 489.007812 -75.5625 C 487.855469 -76.96875 486.273438 -78.695312 485.488281 -79.398438 C 484.085938 -80.648438 484.089844 -80.632812 485.644531 -78.628906 M 427.722656 -78.832031 C 427.46875 -78.421875 427.558594 -78.351562 427.988281 -78.617188 C 428.464844 -78.910156 428.539062 -78.722656 428.273438 -77.882812 C 427.828125 -76.472656 425.320312 -71.152344 425.660156 -72.332031 C 425.796875 -72.808594 425.632812 -73.292969 425.300781 -73.410156 C 424.863281 -73.5625 424.925781 -73.902344 425.519531 -74.59375 C 426.527344 -75.773438 427.640625 -77.863281 427.261719 -77.863281 C 427.109375 -77.863281 425.234375 -75.503906 423.097656 -72.621094 C 420.960938 -69.738281 418.375 -66.460938 417.347656 -65.332031 C 416.324219 -64.207031 414.351562 -61.902344 412.964844 -60.21875 L 410.445312 -57.15625 L 412.953125 -59.457031 C 415.792969 -62.066406 414.722656 -60.507812 410.960938 -56.558594 C 409.578125 -55.105469 408.1875 -54 407.875 -54.101562 C 407.5625 -54.203125 406.167969 -52.933594 404.777344 -51.277344 C 403.386719 -49.621094 402.027344 -48.40625 401.757812 -48.574219 C 401.488281 -48.738281 401.410156 -48.644531 401.582031 -48.363281 C 401.757812 -48.082031 401.179688 -47.183594 400.304688 -46.367188 C 399.425781 -45.550781 398.875 -45.171875 399.074219 -45.523438 C 399.6875 -46.601562 399 -46.253906 395.933594 -43.945312 C 389.394531 -39.027344 386.242188 -37.246094 381.609375 -35.871094 C 380.695312 -35.597656 379.949219 -35.03125 379.949219 -34.609375 C 379.949219 -33.433594 382.550781 -31.40625 384.550781 -31.019531 C 385.535156 -30.832031 386.457031 -30.5 386.597656 -30.289062 C 386.859375 -29.886719 389.261719 -29.652344 391.964844 -29.757812 C 393.152344 -29.800781 393.324219 -29.929688 392.730469 -30.3125 C 392.160156 -30.679688 392.460938 -30.808594 393.898438 -30.816406 C 394.960938 -30.820312 396.675781 -31.175781 397.707031 -31.605469 C 400.34375 -32.707031 404.839844 -36.285156 405.167969 -37.542969 C 405.34375 -38.210938 405.675781 -38.453125 406.070312 -38.210938 C 406.472656 -37.960938 406.5625 -38.035156 406.328125 -38.417969 C 406.121094 -38.75 406.3125 -39.144531 406.757812 -39.316406 C 407.195312 -39.484375 407.40625 -39.863281 407.222656 -40.160156 C 407.039062 -40.457031 407.132812 -40.546875 407.433594 -40.359375 C 408.476562 -39.714844 413.191406 -45.835938 418.40625 -54.597656 C 420.640625 -58.355469 425.691406 -68.445312 426.210938 -70.195312 C 426.550781 -71.332031 426.941406 -72.308594 428.554688 -76.074219 C 429.273438 -77.746094 429.328125 -79.019531 428.699219 -79.242188 C 428.371094 -79.359375 427.933594 -79.171875 427.722656 -78.832031 M 413.949219 -77.347656 C 413.4375 -76.785156 413.140625 -76.203125 413.289062 -76.054688 C 413.4375 -75.90625 413.9375 -76.367188 414.40625 -77.082031 C 415.425781 -78.636719 415.21875 -78.753906 413.949219 -77.347656 M 472.242188 -77.863281 C 472.414062 -77.582031 472.65625 -77.351562 472.78125 -77.351562 C 472.90625 -77.351562 473.007812 -77.582031 473.007812 -77.863281 C 473.007812 -78.144531 472.761719 -78.375 472.464844 -78.375 C 472.167969 -78.375 472.066406 -78.144531 472.242188 -77.863281 M 473.519531 -78.148438 C 473.519531 -78.023438 473.953125 -77.160156 474.480469 -76.230469 C 475.007812 -75.300781 475.566406 -73.734375 475.722656 -72.75 L 476.003906 -70.960938 L 475.214844 -72.75 C 474.78125 -73.734375 474.214844 -75.089844 473.957031 -75.761719 C 473.699219 -76.433594 473.355469 -76.847656 473.191406 -76.683594 C 472.339844 -75.832031 480.394531 -58.414062 485.132812 -50.863281 C 487.777344 -46.65625 493.0625 -39.667969 494.175781 -38.910156 C 494.457031 -38.71875 494.871094 -38.671875 495.097656 -38.8125 C 495.320312 -38.949219 495.503906 -38.714844 495.503906 -38.285156 C 495.503906 -36.21875 503.339844 -30.824219 506.335938 -30.824219 C 507.082031 -30.824219 507.785156 -30.539062 507.902344 -30.191406 C 508.167969 -29.390625 514 -29.332031 514.996094 -30.121094 C 515.382812 -30.429688 516.277344 -30.824219 516.980469 -30.996094 C 519.007812 -31.496094 521.296875 -33.585938 520.914062 -34.585938 C 520.730469 -35.058594 520.175781 -35.570312 519.675781 -35.722656 C 519.179688 -35.875 517.984375 -36.390625 517.019531 -36.863281 C 516.058594 -37.335938 515.136719 -37.734375 514.976562 -37.746094 C 514.8125 -37.757812 513.875 -38.191406 512.890625 -38.710938 C 508.460938 -41.039062 502.503906 -45.84375 495.460938 -52.769531 C 491.265625 -56.894531 487.835938 -60.128906 487.835938 -59.964844 C 487.835938 -59.796875 488.125 -59.328125 488.476562 -58.917969 C 488.824219 -58.511719 488.136719 -59.085938 486.941406 -60.199219 C 484.902344 -62.09375 483.992188 -63.574219 485.398438 -62.707031 C 485.742188 -62.492188 485.570312 -62.910156 485.011719 -63.632812 C 479.527344 -70.742188 474.542969 -77.546875 474.542969 -77.917969 C 474.542969 -78.167969 474.3125 -78.375 474.03125 -78.375 C 473.75 -78.375 473.519531 -78.273438 473.519531 -78.148438 M 476.570312 -72.777344 C 476.863281 -72.230469 477.355469 -71.628906 477.664062 -71.4375 C 477.972656 -71.246094 477.832031 -71.695312 477.347656 -72.433594 C 476.324219 -73.992188 475.792969 -74.230469 476.570312 -72.777344 M 422.949219 -71.066406 C 422.304688 -69.988281 422.316406 -69.976562 423.195312 -70.820312 C 423.703125 -71.304688 424.007812 -71.8125 423.871094 -71.949219 C 423.738281 -72.082031 423.324219 -71.683594 422.949219 -71.066406 M 478.632812 -70 C 478.632812 -69.894531 479.035156 -69.492188 479.527344 -69.105469 C 480.335938 -68.46875 480.355469 -68.488281 479.71875 -69.300781 C 479.050781 -70.152344 478.632812 -70.421875 478.632812 -70 M 477.386719 -67.488281 C 477.578125 -66.984375 477.863281 -66.699219 478.023438 -66.855469 C 478.179688 -67.015625 478.023438 -67.425781 477.671875 -67.773438 C 477.167969 -68.273438 477.109375 -68.214844 477.386719 -67.488281 M 481.105469 -66.742188 C 481.65625 -65.96875 482.75 -64.761719 483.535156 -64.058594 C 484.34375 -63.332031 484 -63.9375 482.738281 -65.464844 C 480.359375 -68.339844 479.449219 -69.050781 481.105469 -66.742188 M 496.390625 -66.359375 C 497.644531 -64.527344 499.507812 -62.777344 499.84375 -63.113281 C 499.976562 -63.246094 499.019531 -64.375 497.714844 -65.625 C 495.875 -67.382812 495.578125 -67.546875 496.390625 -66.359375 M 418.769531 -65.71875 L 417.53125 -64.3125 L 418.9375 -65.554688 C 420.25 -66.710938 420.578125 -67.125 420.175781 -67.125 C 420.085938 -67.125 419.453125 -66.492188 418.769531 -65.71875 M 478.667969 -64.824219 C 478.667969 -64.542969 478.996094 -63.738281 479.398438 -63.035156 C 479.800781 -62.332031 480.128906 -61.988281 480.128906 -62.269531 C 480.128906 -62.550781 479.800781 -63.355469 479.398438 -64.058594 C 478.996094 -64.761719 478.667969 -65.105469 478.667969 -64.824219 M 480.933594 -59.96875 C 481.367188 -59.125 481.839844 -58.433594 481.980469 -58.433594 C 482.121094 -58.433594 481.878906 -59.125 481.445312 -59.96875 C 481.007812 -60.8125 480.535156 -61.5 480.394531 -61.5 C 480.253906 -61.5 480.496094 -60.8125 480.933594 -59.96875 M 503.175781 -60.796875 C 503.175781 -60.691406 503.578125 -60.289062 504.070312 -59.902344 C 504.878906 -59.265625 504.898438 -59.285156 504.261719 -60.09375 C 503.59375 -60.945312 503.175781 -61.21875 503.175781 -60.796875 M 493.714844 -52.808594 C 496.234375 -50.277344 498.410156 -48.207031 498.550781 -48.207031 C 498.691406 -48.207031 496.746094 -50.277344 494.226562 -52.808594 C 491.707031 -55.339844 489.53125 -57.410156 489.390625 -57.410156 C 489.25 -57.410156 491.195312 -55.339844 493.714844 -52.808594 M 399.824219 -46.800781 C 399.1875 -45.988281 399.207031 -45.972656 400.019531 -46.609375 C 400.871094 -47.277344 401.140625 -47.695312 400.71875 -47.695312 C 400.613281 -47.695312 400.210938 -47.292969 399.824219 -46.800781 M 488.859375 -46.671875 C 489.160156 -46.109375 489.519531 -45.652344 489.660156 -45.652344 C 489.800781 -45.652344 489.671875 -46.109375 489.371094 -46.671875 C 489.066406 -47.234375 488.707031 -47.695312 488.566406 -47.695312 C 488.425781 -47.695312 488.558594 -47.234375 488.859375 -46.671875 M 491.160156 -43.605469 C 491.667969 -43.042969 492.199219 -42.582031 492.339844 -42.582031 C 492.480469 -42.582031 492.179688 -43.042969 491.671875 -43.605469 C 491.160156 -44.167969 490.628906 -44.628906 490.488281 -44.628906 C 490.347656 -44.628906 490.648438 -44.167969 491.160156 -43.605469 M 839.363281 19.523438 C 828.214844 20.882812 820.761719 23.464844 813.03125 28.648438 C 810.25 30.511719 802.804688 37.988281 802.804688 38.917969 C 802.804688 39.28125 802.34375 39.996094 801.78125 40.503906 C 800.347656 41.800781 795.960938 51.046875 794.746094 55.332031 C 794.1875 57.300781 793.414062 60.636719 793.027344 62.746094 C 792.109375 67.726562 792.089844 82.832031 792.996094 87.289062 C 795.421875 99.253906 799.535156 107.996094 805.832031 114.582031 C 808.761719 117.640625 810.222656 118.824219 814.109375 121.28125 C 818.207031 123.871094 823.242188 125.753906 830.667969 127.464844 C 836.492188 128.8125 855.179688 128.820312 861.859375 127.480469 C 866.019531 126.648438 870.894531 125.234375 873.621094 124.074219 C 874.183594 123.835938 875.488281 123.304688 876.519531 122.890625 C 877.550781 122.480469 878.773438 121.570312 879.238281 120.863281 C 880.023438 119.667969 880.011719 119.429688 879.050781 117.113281 C 878.070312 114.746094 874.835938 105.613281 874.160156 103.316406 C 873.6875 101.710938 872.679688 101.535156 869.929688 102.578125 C 864.125 104.777344 860.980469 105.464844 850.738281 106.773438 C 845.65625 107.421875 843.292969 107.226562 836.292969 105.585938 C 833.632812 104.964844 827.832031 101.585938 825.824219 99.492188 C 821.34375 94.820312 819.003906 88.609375 818.128906 79.042969 C 816.964844 66.355469 819.273438 56.488281 824.929688 49.964844 C 827.023438 47.554688 831.847656 43.945312 833.738281 43.378906 C 841.214844 41.140625 841.132812 41.152344 847.960938 41.394531 C 855.167969 41.648438 857.34375 42.0625 864.160156 44.476562 C 866.550781 45.320312 869.265625 46.039062 870.1875 46.070312 C 871.78125 46.125 871.9375 45.964844 873.128906 43.0625 C 873.816406 41.375 874.382812 39.796875 874.382812 39.558594 C 874.386719 39.320312 874.699219 38.402344 875.078125 37.515625 C 877.207031 32.542969 878.019531 29.910156 877.871094 28.433594 C 877.738281 27.046875 877.332031 26.582031 875.410156 25.605469 C 869.597656 22.648438 861.460938 20.476562 852.65625 19.523438 C 845.085938 18.707031 846.070312 18.707031 839.363281 19.523438 M 595.460938 20.027344 C 587.15625 21.152344 582.859375 22.675781 577.316406 26.460938 C 572.25 29.921875 568.402344 35.261719 566.300781 41.75 C 565.058594 45.589844 564.960938 46.5 565.15625 52.179688 C 565.414062 59.625 566.300781 62.304688 570.242188 67.535156 C 575.484375 74.5 579.929688 77.0625 599.8125 84.554688 C 604.207031 86.210938 609.996094 89.171875 611.511719 90.539062 C 613.269531 92.121094 614.617188 95.371094 614.621094 98.027344 C 614.625 101.625 612.945312 104.117188 609.273438 105.953125 L 606.203125 107.488281 L 595.59375 107.566406 C 589.757812 107.609375 585.097656 107.460938 585.234375 107.238281 C 585.375 107.015625 584.738281 106.691406 583.828125 106.519531 C 582.273438 106.230469 575.210938 103.574219 572.089844 102.109375 C 570.375 101.304688 569.382812 101.957031 568.675781 104.347656 C 568.414062 105.230469 567.359375 108.253906 566.332031 111.066406 C 562.863281 120.542969 563.007812 119.953125 563.933594 120.878906 C 565.601562 122.546875 573.597656 125.5 581.148438 127.234375 C 585.402344 128.210938 610.644531 128.226562 614.640625 127.253906 C 627.140625 124.210938 634.339844 118.382812 638.242188 108.148438 C 639.769531 104.140625 640.125 94.382812 638.933594 89.019531 C 637.59375 82.972656 634.398438 77.730469 629.617188 73.734375 C 626.609375 71.222656 616.074219 65.65625 610.621094 63.703125 C 601.007812 60.257812 598.53125 59.175781 594.839844 56.816406 C 591.394531 54.609375 590.101562 52.535156 590.101562 49.199219 C 590.101562 46.144531 591.3125 43.902344 593.75 42.433594 C 596.410156 40.832031 603.640625 40.113281 610.105469 40.8125 C 614.847656 41.324219 622.75 43.304688 624.101562 44.324219 C 626.019531 45.773438 628.542969 45.132812 629.101562 43.0625 C 629.253906 42.5 630.464844 39.277344 631.792969 35.902344 C 633.125 32.527344 634.320312 29.027344 634.449219 28.125 C 634.675781 26.558594 634.554688 26.417969 631.949219 25.246094 C 627.710938 23.332031 619.851562 20.886719 616.175781 20.339844 C 610.144531 19.441406 600.824219 19.300781 595.460938 20.027344 M 331.375 21.378906 C 330.671875 21.578125 328.714844 21.777344 327.027344 21.824219 C 325.339844 21.867188 322.53125 22.179688 320.78125 22.511719 C 315.203125 23.578125 315.761719 17.617188 315.890625 74.671875 C 315.953125 102.167969 316.140625 124.882812 316.304688 125.152344 C 316.472656 125.417969 317.6875 125.675781 319.003906 125.71875 L 321.402344 125.800781 L 318.847656 126.148438 C 317.363281 126.351562 321.003906 126.53125 327.539062 126.574219 C 334.960938 126.621094 338.527344 126.476562 338.019531 126.148438 C 337.511719 125.820312 337.46875 125.652344 337.894531 125.644531 C 338.246094 125.640625 338.558594 125.121094 338.59375 124.488281 C 338.640625 123.570312 338.726562 123.648438 339.023438 124.871094 C 339.820312 128.164062 340.066406 124.363281 340.195312 106.976562 L 340.320312 89.078125 L 345.703125 88.9375 L 351.082031 88.792969 L 354.183594 93.027344 C 358.671875 99.148438 363.507812 106.703125 367.621094 114.007812 C 369.25 116.898438 370.875 119.792969 372.488281 122.695312 C 374.222656 125.8125 375.953125 127.953125 375.242188 126.105469 C 375.007812 125.492188 376.855469 125.40625 387.425781 125.527344 C 397 125.640625 399.890625 125.527344 399.890625 125.046875 C 399.890625 124.703125 400.246094 124.867188 400.683594 125.414062 C 401.445312 126.367188 401.464844 126.355469 401.132812 125.128906 C 400.789062 123.855469 395.378906 113.34375 394.816406 112.855469 C 394.652344 112.714844 393.925781 111.449219 393.195312 110.042969 C 389.726562 103.363281 384.308594 94.894531 378.007812 86.300781 L 376.34375 84.035156 L 377.761719 83.183594 C 378.542969 82.714844 380.238281 81.734375 381.527344 81.003906 C 384.875 79.105469 388.4375 75.769531 390.742188 72.378906 C 391.835938 70.769531 392.730469 69.234375 392.730469 68.96875 C 392.730469 68.707031 393.074219 67.828125 393.496094 67.023438 C 393.914062 66.21875 394.261719 64.859375 394.261719 64 C 394.265625 63.140625 394.539062 62.167969 394.867188 61.835938 C 395.8125 60.894531 395.601562 50.875 394.546875 46.628906 C 393.023438 40.492188 390.964844 36.835938 386.582031 32.496094 C 383.511719 29.453125 381.671875 28.121094 378.347656 26.535156 C 373.9375 24.429688 366.796875 22.234375 362.308594 21.597656 C 358.859375 21.109375 332.980469 20.925781 331.375 21.378906 M 63.542969 21.707031 L 61.339844 21.902344 L 58.300781 28.300781 C 56.632812 31.816406 55.265625 34.820312 55.265625 34.976562 C 55.265625 35.128906 54.460938 36.972656 53.476562 39.074219 C 52.492188 41.175781 51.6875 43.035156 51.6875 43.203125 C 51.6875 43.546875 49.960938 47.457031 48.851562 49.621094 C 48.441406 50.417969 48.109375 51.285156 48.109375 51.546875 C 48.109375 51.808594 47.675781 52.996094 47.148438 54.1875 C 46.617188 55.378906 45.675781 57.621094 45.046875 59.167969 C 43.679688 62.558594 42.949219 64.277344 41.519531 67.472656 C 40.925781 68.804688 40.4375 70.097656 40.4375 70.347656 C 40.4375 70.597656 39.894531 72.039062 39.226562 73.550781 C 38.125 76.050781 36.289062 80.785156 32.917969 89.847656 C 32.238281 91.675781 31.335938 94.089844 30.914062 95.214844 C 30.492188 96.339844 29.910156 98.066406 29.621094 99.050781 C 29.328125 100.035156 28.792969 101.53125 28.429688 102.375 C 27.425781 104.703125 26.371094 107.578125 24.585938 112.855469 C 23.695312 115.492188 22.515625 118.613281 21.964844 119.789062 C 21.410156 120.960938 20.914062 122.933594 20.855469 124.164062 L 20.753906 126.40625 L 32.574219 126.542969 L 44.398438 126.679688 L 45.183594 125.484375 C 45.613281 124.824219 46.660156 122.234375 47.511719 119.722656 C 48.363281 117.210938 49.667969 113.546875 50.410156 111.578125 C 51.152344 109.609375 52.011719 107.308594 52.316406 106.464844 C 52.625 105.621094 53.128906 104.761719 53.433594 104.554688 C 53.738281 104.347656 62.53125 104.175781 72.972656 104.171875 C 88.566406 104.164062 92.0625 104.289062 92.546875 104.875 C 92.871094 105.265625 94.289062 109.003906 95.699219 113.183594 C 97.109375 117.363281 98.597656 121.507812 99.007812 122.390625 C 99.414062 123.277344 99.75 124.222656 99.75 124.484375 C 99.75 124.75 100.171875 125.351562 100.683594 125.816406 C 101.496094 126.550781 103.140625 126.660156 113.148438 126.660156 C 126.847656 126.660156 126.503906 126.800781 124.808594 121.945312 C 124.191406 120.179688 123.5 118.046875 123.269531 117.203125 C 123.039062 116.359375 121.925781 113.136719 120.792969 110.042969 C 119.660156 106.949219 118.457031 103.613281 118.113281 102.628906 C 117.773438 101.644531 117.300781 100.378906 117.0625 99.816406 C 116.632812 98.792969 113.535156 90.363281 112.179688 86.523438 C 111.296875 84.015625 106.535156 71.757812 105.628906 69.648438 C 105.265625 68.804688 104.507812 66.964844 103.945312 65.558594 C 102.527344 62.023438 100.28125 56.5625 99.738281 55.332031 C 99.492188 54.769531 97.542969 50.167969 95.410156 45.105469 C 93.277344 40.046875 90.085938 32.796875 88.316406 29 L 85.101562 22.097656 L 82.328125 21.765625 C 79.390625 21.414062 67.253906 21.375 63.542969 21.707031 M 142.578125 21.707031 C 140.261719 21.855469 139.523438 22.113281 139.085938 22.933594 C 138.691406 23.667969 138.578125 38.746094 138.695312 74.472656 C 138.835938 116.339844 138.984375 125.113281 139.566406 125.816406 C 140.207031 126.585938 143.261719 126.660156 174.128906 126.660156 C 206.753906 126.660156 208.023438 126.625 208.871094 125.6875 C 209.644531 124.832031 209.730469 123.65625 209.589844 115.742188 C 209.472656 109.230469 209.242188 106.585938 208.761719 106.105469 C 208.234375 105.582031 203.421875 105.4375 186.152344 105.414062 C 174.082031 105.402344 164.027344 105.210938 163.808594 104.988281 C 163.589844 104.769531 163.363281 86.167969 163.308594 63.652344 C 163.238281 34.609375 163.046875 22.550781 162.644531 22.152344 C 162.085938 21.59375 148.984375 21.304688 142.578125 21.707031 M 687.550781 21.71875 C 660.292969 21.8125 649.054688 22.015625 648.5625 22.417969 C 648.035156 22.859375 647.875 25.085938 647.875 32.050781 C 647.875 40.183594 647.972656 41.199219 648.8125 41.960938 C 649.632812 42.707031 651.464844 42.804688 664.167969 42.804688 C 675.480469 42.804688 678.640625 42.949219 678.839844 43.46875 C 678.980469 43.828125 679.144531 62.476562 679.207031 84.902344 C 679.308594 120.503906 679.417969 125.738281 680.089844 126.160156 C 681.269531 126.90625 702.242188 126.800781 702.996094 126.046875 C 703.460938 125.582031 703.609375 115.820312 703.617188 85.269531 C 703.621094 63.179688 703.761719 44.589844 703.929688 43.957031 L 704.238281 42.804688 L 719.246094 42.804688 C 733.851562 42.804688 734.265625 42.777344 734.8125 41.757812 C 735.367188 40.722656 735.355469 22.703125 734.800781 22.210938 C 734.222656 21.699219 723.964844 21.59375 687.550781 21.71875 M 751.417969 21.832031 L 749.371094 22.097656 L 749.371094 126.40625 L 760.8125 126.542969 C 768.820312 126.640625 772.460938 126.503906 772.953125 126.097656 C 773.949219 125.273438 774.011719 22.632812 773.019531 22.019531 C 772.300781 21.574219 754.554688 21.417969 751.417969 21.832031 M 214.535156 22.976562 C 214.378906 23.617188 214.3125 28.046875 214.394531 32.820312 L 214.539062 41.5 L 215.816406 42.144531 C 216.753906 42.617188 220.878906 42.792969 231.285156 42.796875 L 245.472656 42.804688 L 245.539062 81.027344 C 245.574219 102.046875 245.746094 120.859375 245.921875 122.828125 L 246.242188 126.40625 L 257.546875 126.542969 C 266.601562 126.652344 268.96875 126.542969 269.433594 125.984375 C 269.851562 125.480469 270.046875 113.851562 270.140625 84.171875 L 270.273438 43.0625 L 285.070312 42.925781 C 297.9375 42.808594 299.988281 42.679688 300.792969 41.953125 C 301.621094 41.203125 301.71875 40.148438 301.71875 31.976562 L 301.71875 22.839844 L 300.492188 22.375 C 299.792969 22.109375 281.085938 21.886719 257.042969 21.859375 L 214.824219 21.8125 Z M 437.726562 22.636719 C 437.726562 22.933594 433.148438 23.0625 425.945312 22.972656 L 414.160156 22.828125 L 414.347656 59.023438 C 414.523438 93.6875 414.574219 95.386719 415.59375 99.304688 C 417.359375 106.109375 418.539062 108.832031 421.695312 113.367188 C 426.722656 120.597656 437.257812 126.847656 446.3125 127.980469 C 448.414062 128.242188 449.027344 128.179688 448.746094 127.726562 C 448.460938 127.265625 450.308594 127.1875 456.472656 127.402344 C 469.238281 127.84375 470.382812 127.792969 473.890625 126.660156 C 478.027344 125.324219 483.445312 122.78125 484.265625 121.792969 C 484.609375 121.375 485.175781 121.035156 485.519531 121.035156 C 486.339844 121.035156 491.265625 115.828125 493.40625 112.695312 C 495.75 109.265625 497.886719 104.371094 499.199219 99.421875 C 500.285156 95.324219 500.320312 94.300781 500.488281 59.210938 C 500.628906 30.164062 500.535156 23.125 500 22.777344 C 499.339844 22.34375 478.296875 22.695312 477.558594 23.152344 C 477.34375 23.285156 477.007812 23.132812 476.8125 22.820312 C 476.5625 22.410156 476.332031 22.445312 476.019531 22.9375 C 475.777344 23.320312 475.574219 38.933594 475.566406 57.632812 C 475.550781 93.878906 475.539062 94.078125 473.007812 99.308594 C 471.625 102.160156 468.386719 104.878906 464.761719 106.226562 C 462.042969 107.238281 462.035156 107.246094 464.058594 107.03125 L 466.105469 106.816406 L 464.570312 107.511719 C 462.785156 108.324219 460.917969 108.453125 460.511719 107.792969 C 460.226562 107.332031 453.585938 107.507812 451.984375 108.015625 C 451.519531 108.164062 449.855469 107.804688 448.28125 107.214844 C 446.125 106.40625 444.867188 105.488281 443.179688 103.492188 C 440.796875 100.671875 438.507812 95.597656 437.933594 91.855469 C 437.445312 88.691406 437.984375 89.472656 439.003906 93.414062 C 439.855469 96.703125 440.710938 98.792969 441.0625 98.441406 C 441.164062 98.339844 440.757812 96.882812 440.160156 95.203125 C 439.105469 92.226562 439.070312 91.238281 438.875 57.632812 C 438.757812 37.441406 438.476562 22.917969 438.199219 22.636719 C 437.902344 22.328125 437.726562 22.328125 437.726562 22.636719 M 522.988281 23.054688 C 522.144531 23.703125 522.09375 26.761719 522.09375 74.425781 L 522.09375 125.109375 L 523.242188 125.386719 C 523.875 125.542969 529.28125 125.71875 535.253906 125.78125 C 543.90625 125.871094 546.167969 125.753906 546.375 125.214844 C 546.742188 124.261719 546.691406 24.90625 546.324219 23.539062 C 546.027344 22.441406 545.882812 22.425781 534.953125 22.394531 C 526.417969 22.375 523.679688 22.523438 522.988281 23.054688 M 380.460938 28.65625 C 380.460938 28.78125 381.898438 29.941406 383.65625 31.234375 C 385.414062 32.527344 387.636719 34.738281 388.59375 36.152344 C 390.582031 39.082031 391.097656 39.460938 389.871094 37.089844 C 388.910156 35.226562 384.335938 30.71875 382.023438 29.355469 C 381.164062 28.847656 380.460938 28.53125 380.460938 28.65625 M 343.902344 41.785156 L 340.320312 42.039062 L 340.1875 55.542969 L 340.050781 69.042969 L 349.199219 68.726562 C 357.335938 68.445312 358.738281 68.265625 361.859375 67.089844 C 367.941406 64.800781 369.804688 62.078125 369.914062 55.332031 C 369.984375 50.769531 369.234375 48.574219 366.816406 46.3125 C 365.144531 44.746094 361.441406 42.796875 359.539062 42.476562 C 355.378906 41.777344 348.339844 41.464844 343.902344 41.785156 M 392.539062 43.574219 C 392.71875 44.417969 393.070312 45.453125 393.320312 45.875 C 393.605469 46.363281 393.648438 46.089844 393.4375 45.105469 C 393.253906 44.261719 392.902344 43.226562 392.65625 42.804688 C 392.367188 42.316406 392.324219 42.589844 392.539062 43.574219 M 71.660156 50.09375 C 71.410156 50.726562 70.699219 52.625 70.078125 54.3125 C 69.460938 55.996094 68.1875 59.335938 67.257812 61.726562 C 64.710938 68.242188 63.175781 72.351562 61.90625 76.042969 C 61.277344 77.871094 60.589844 79.59375 60.382812 79.875 C 60.171875 80.15625 59.851562 81.222656 59.667969 82.246094 C 59.40625 83.691406 59.515625 84.171875 60.152344 84.417969 C 60.605469 84.59375 66.59375 84.734375 73.460938 84.734375 L 85.945312 84.734375 L 85.933594 83.582031 C 85.921875 82.511719 84.152344 77.226562 81.179688 69.394531 C 80.484375 67.566406 78.875 63.308594 77.601562 59.933594 C 73.300781 48.542969 72.679688 47.519531 71.660156 50.09375 M 338.632812 56.867188 C 338.644531 57.710938 338.757812 57.992188 338.886719 57.496094 C 339.015625 57 339.007812 56.308594 338.867188 55.960938 C 338.726562 55.617188 338.621094 56.023438 338.632812 56.867188 M 361.03125 68.117188 C 360.046875 68.496094 359.585938 68.8125 360.007812 68.820312 C 360.429688 68.828125 361.464844 68.519531 362.308594 68.132812 C 364.285156 67.230469 363.363281 67.21875 361.03125 68.117188 M 389.375 72.335938 C 387.785156 74.761719 383.421875 78.570312 380.089844 80.433594 C 376.007812 82.714844 375.875 83.285156 379.929688 81.125 C 383.402344 79.273438 388.453125 74.878906 389.820312 72.519531 C 390.960938 70.554688 390.628906 70.414062 389.375 72.335938 M 377.421875 87.460938 C 378.378906 88.820312 379.371094 90.0625 379.628906 90.21875 C 380.488281 90.75 378.175781 87.246094 376.917969 86.109375 C 375.96875 85.25 376.085938 85.566406 377.421875 87.460938 M 381.238281 92.691406 C 381.714844 93.554688 382.558594 94.820312 383.113281 95.503906 L 384.125 96.75 L 383.261719 95.183594 C 382.785156 94.320312 381.941406 93.054688 381.386719 92.371094 L 380.375 91.125 Z M 415.859375 95.472656 C 415.859375 96.457031 415.964844 96.859375 416.09375 96.367188 C 416.222656 95.875 416.222656 95.070312 416.09375 94.578125 C 415.964844 94.082031 415.859375 94.488281 415.859375 95.472656 M 475.605469 94.863281 C 475.492188 96.714844 472.527344 101.429688 470.050781 103.695312 C 468.539062 105.078125 467.558594 106.207031 467.878906 106.207031 C 469.925781 106.207031 476.648438 96.671875 475.902344 94.824219 C 475.707031 94.347656 475.636719 94.359375 475.605469 94.863281 M 498.652344 95.472656 C 498.652344 96.175781 498.769531 96.460938 498.910156 96.109375 C 499.054688 95.757812 499.054688 95.183594 498.910156 94.832031 C 498.769531 94.480469 498.652344 94.769531 498.652344 95.472656 M 338.699219 99.816406 C 338.703125 101.785156 338.796875 102.527344 338.90625 101.46875 C 339.015625 100.40625 339.015625 98.796875 338.902344 97.886719 C 338.789062 96.980469 338.699219 97.847656 338.699219 99.816406 M 385.0625 98.539062 C 385.664062 99.382812 386.269531 100.074219 386.410156 100.074219 C 386.550781 100.074219 386.175781 99.382812 385.574219 98.539062 C 384.972656 97.695312 384.367188 97.003906 384.226562 97.003906 C 384.085938 97.003906 384.460938 97.695312 385.0625 98.539062 M 441.304688 99.226562 C 441.304688 100.519531 444.574219 104.675781 445.59375 104.675781 C 445.875 104.675781 445.40625 103.925781 444.550781 103.011719 C 443.695312 102.097656 442.613281 100.78125 442.148438 100.085938 C 441.6875 99.390625 441.304688 99.003906 441.304688 99.226562 M 387.554688 102.46875 C 388.144531 103.644531 388.902344 104.777344 389.242188 104.984375 C 389.582031 105.195312 389.316406 104.464844 388.65625 103.359375 C 386.929688 100.472656 386.300781 99.964844 387.554688 102.46875 M 417.316406 102.417969 C 417.339844 103.011719 417.460938 103.132812 417.625 102.726562 C 417.773438 102.355469 417.753906 101.914062 417.582031 101.746094 C 417.414062 101.574219 417.292969 101.878906 417.316406 102.417969 M 496.507812 103.726562 C 496.183594 104.953125 495.789062 106.183594 495.632812 106.464844 C 495.449219 106.804688 495.535156 106.804688 495.894531 106.464844 C 496.492188 105.898438 497.644531 102.042969 497.316406 101.710938 C 497.199219 101.597656 496.835938 102.503906 496.507812 103.726562 M 570.15625 102.644531 C 570.15625 102.917969 570.5 103.140625 570.921875 103.140625 C 571.34375 103.140625 571.691406 103.050781 571.691406 102.941406 C 571.691406 102.828125 571.34375 102.605469 570.921875 102.445312 C 570.5 102.28125 570.15625 102.375 570.15625 102.644531 M 418.066406 104.800781 C 418.257812 105.433594 418.621094 106.179688 418.878906 106.453125 C 419.136719 106.726562 419.089844 106.210938 418.773438 105.300781 C 418.125 103.445312 417.527344 103.023438 418.066406 104.800781 M 363.585938 105.699219 C 363.886719 106.261719 364.25 106.71875 364.390625 106.71875 C 364.53125 106.71875 364.398438 106.261719 364.097656 105.699219 C 363.796875 105.136719 363.4375 104.675781 363.296875 104.675781 C 363.15625 104.675781 363.285156 105.136719 363.585938 105.699219 M 390.429688 107.230469 C 390.867188 108.074219 391.339844 108.765625 391.480469 108.765625 C 391.621094 108.765625 391.378906 108.074219 390.941406 107.230469 C 390.507812 106.386719 390.035156 105.699219 389.894531 105.699219 C 389.753906 105.699219 389.996094 106.386719 390.429688 107.230469 M 447.953125 106.464844 C 448.65625 106.867188 449.808594 107.1875 450.511719 107.175781 C 451.632812 107.15625 451.574219 107.070312 450 106.464844 C 447.617188 105.546875 446.347656 105.546875 447.953125 106.464844 M 419.320312 107.390625 C 419.320312 109.066406 424.253906 115.960938 427.5 118.828125 C 431.378906 122.25 442.695312 127.207031 446.417969 127.113281 C 447.9375 127.078125 447.746094 126.960938 445.140625 126.335938 C 438.242188 124.6875 434.683594 123.097656 429.800781 119.492188 C 425.964844 116.65625 423.367188 113.855469 421.238281 110.246094 C 420.183594 108.460938 419.320312 107.175781 419.320312 107.390625 M 493.058594 110.902344 C 491.855469 112.867188 491.09375 114.332031 491.367188 114.164062 C 491.996094 113.773438 495.679688 107.742188 495.433594 107.507812 C 495.332031 107.414062 494.265625 108.941406 493.058594 110.902344 M 392.476562 110.808594 C 392.914062 111.652344 393.382812 112.34375 393.523438 112.34375 C 393.664062 112.34375 393.421875 111.652344 392.988281 110.808594 C 392.550781 109.96875 392.078125 109.277344 391.9375 109.277344 C 391.796875 109.277344 392.039062 109.96875 392.476562 110.808594 M 394.265625 113.554688 C 394.265625 114.109375 396.808594 118.992188 397.09375 118.992188 C 397.234375 118.992188 396.742188 117.785156 396.003906 116.308594 C 394.574219 113.46875 394.265625 112.976562 394.265625 113.554688 M 488.644531 116.835938 L 487.664062 118.222656 L 489.027344 116.984375 C 490.460938 115.683594 490.636719 115.402344 490.007812 115.429688 C 489.796875 115.4375 489.183594 116.070312 488.644531 116.835938 M 479.367188 123.367188 C 478.433594 124.117188 478.449219 124.125 479.65625 123.550781 C 481.21875 122.808594 481.507812 122.570312 480.859375 122.570312 C 480.585938 122.570312 479.914062 122.929688 479.367188 123.367188 M 373.8125 123.5625 C 373.8125 123.828125 374.039062 124.183594 374.320312 124.355469 C 374.609375 124.535156 374.695312 124.332031 374.519531 123.875 C 374.179688 122.988281 373.8125 122.828125 373.8125 123.5625 M 326.390625 126.011719 C 327.445312 126.121094 329.167969 126.121094 330.222656 126.011719 C 331.277344 125.902344 330.414062 125.808594 328.304688 125.808594 C 326.195312 125.808594 325.335938 125.902344 326.390625 126.011719 M 335.371094 125.988281 C 335.738281 126.136719 336.179688 126.117188 336.347656 125.949219 C 336.519531 125.777344 336.21875 125.65625 335.679688 125.679688 C 335.082031 125.703125 334.960938 125.824219 335.371094 125.988281 M 470.449219 126.148438 C 469.746094 126.375 468.195312 126.582031 467 126.609375 C 465.804688 126.636719 464.828125 126.851562 464.828125 127.082031 C 464.828125 127.59375 470.71875 126.925781 472.496094 126.214844 C 473.546875 125.792969 473.59375 125.707031 472.75 125.722656 C 472.1875 125.730469 471.152344 125.925781 470.449219 126.148438 M 379.328125 126.527344 C 381.097656 126.628906 383.859375 126.628906 385.464844 126.527344 C 387.070312 126.425781 385.625 126.34375 382.25 126.34375 C 378.875 126.347656 377.5625 126.429688 379.328125 126.527344 M 392.367188 126.527344 C 393.992188 126.628906 396.523438 126.628906 397.992188 126.527344 C 399.457031 126.421875 398.125 126.339844 395.03125 126.339844 C 391.9375 126.34375 390.738281 126.425781 392.367188 126.527344 M 524.011719 126.488281 C 524.363281 126.628906 524.9375 126.628906 525.289062 126.488281 C 525.640625 126.347656 525.351562 126.230469 524.648438 126.230469 C 523.945312 126.230469 523.660156 126.347656 524.011719 126.488281 M 538.597656 126.527344 C 539.941406 126.632812 542.011719 126.628906 543.199219 126.523438 C 544.386719 126.417969 543.289062 126.328125 540.757812 126.332031 C 538.226562 126.332031 537.253906 126.421875 538.597656 126.527344 M 662.703125 152.246094 C 657.105469 152.734375 653.617188 153.699219 648.316406 156.230469 C 641.347656 159.554688 637.511719 163.644531 634.554688 170.890625 C 633.425781 173.660156 633.308594 174.648438 633.339844 181.117188 C 633.378906 189.078125 633.875 190.859375 637.449219 195.832031 C 642.019531 202.191406 646.089844 204.621094 663.3125 211.257812 C 671.507812 214.414062 675.851562 216.933594 677.285156 219.359375 C 678.558594 221.519531 678.570312 226.117188 677.308594 228.234375 C 675.003906 232.097656 667.6875 233.667969 656.980469 232.597656 C 652.03125 232.101562 649.761719 231.570312 644.527344 229.671875 C 639.25 227.757812 638.007812 227.46875 637.457031 228.019531 C 636.800781 228.675781 635.367188 232.34375 632.628906 240.347656 L 631.257812 244.359375 L 632.734375 245.535156 C 636.4375 248.492188 646.78125 251.253906 656.839844 251.972656 C 668.96875 252.84375 680.796875 251.292969 686.992188 248.023438 C 693.902344 244.375 698.25 239.550781 700.3125 233.242188 C 702.019531 228 702.113281 218.492188 700.5 213.578125 C 697.984375 205.917969 691.980469 199.957031 682.644531 195.851562 C 681.378906 195.292969 679.425781 194.425781 678.300781 193.925781 C 676.164062 192.972656 667.289062 189.667969 665.515625 189.167969 C 663.886719 188.707031 659.519531 185.742188 657.847656 183.960938 C 656.476562 182.5 656.3125 181.984375 656.3125 179.078125 C 656.3125 175.125 657.367188 173.730469 661.527344 172.171875 C 664.917969 170.90625 672.164062 170.78125 677.492188 171.902344 C 679.472656 172.320312 681.820312 172.789062 682.710938 172.945312 C 683.597656 173.101562 685.332031 173.691406 686.566406 174.253906 C 689.675781 175.667969 690.996094 174.945312 692.714844 170.890625 C 693.429688 169.203125 694.429688 166.902344 694.941406 165.777344 C 696.738281 161.820312 697.21875 159.90625 696.644531 159 C 695.058594 156.480469 684.308594 152.992188 675.742188 152.214844 C 670.054688 151.699219 668.949219 151.699219 662.703125 152.246094 M 314.757812 153.550781 C 305.710938 154.253906 302.71875 154.761719 301.449219 155.816406 C 300.316406 156.757812 300.3125 247.910156 301.441406 248.847656 C 301.851562 249.1875 303.957031 249.542969 306.117188 249.636719 C 308.484375 249.742188 310.199219 250.058594 310.433594 250.433594 C 311.066406 251.457031 328.671875 251.976562 338.277344 251.253906 C 347.761719 250.539062 353.949219 248.886719 362.054688 244.898438 C 366.199219 242.855469 367.621094 241.792969 371.769531 237.632812 C 376.984375 232.398438 379.480469 228.628906 381.890625 222.34375 C 384.398438 215.804688 384.726562 213.824219 384.945312 203.777344 C 385.183594 193.003906 384.53125 188.171875 381.914062 181.296875 C 380.335938 177.152344 376.695312 171.050781 375.929688 171.269531 C 375.679688 171.34375 374.015625 169.933594 372.234375 168.144531 C 370.453125 166.351562 368.125 164.335938 367.058594 163.664062 C 365.992188 162.988281 365.121094 162.300781 365.121094 162.132812 C 365.121094 161.71875 367.445312 163.246094 370.105469 165.410156 C 371.300781 166.382812 372.28125 166.957031 372.28125 166.691406 C 372.28125 165.519531 364.746094 160.457031 359.632812 158.191406 C 348.625 153.3125 335.417969 151.949219 314.757812 153.550781 M 419.433594 153.117188 C 417.949219 153.21875 416.867188 153.515625 417.023438 153.769531 C 417.195312 154.046875 415.933594 154.109375 413.953125 153.921875 C 412.011719 153.742188 409.789062 153.847656 408.691406 154.171875 C 407.648438 154.480469 406.132812 154.871094 405.328125 155.039062 C 404.519531 155.207031 403.992188 155.476562 404.15625 155.640625 C 404.320312 155.804688 405.523438 155.667969 406.835938 155.335938 C 408.144531 155.007812 409.324219 154.84375 409.449219 154.96875 C 409.578125 155.097656 408.34375 155.488281 406.703125 155.839844 C 405.066406 156.1875 403.378906 156.792969 402.957031 157.179688 C 402.289062 157.796875 402.183594 163.542969 402.136719 202.480469 C 402.109375 227.007812 402.183594 247.570312 402.308594 248.179688 C 402.53125 249.269531 402.664062 249.28125 412.84375 249.199219 L 423.15625 249.121094 L 423.472656 247.332031 L 423.789062 245.539062 L 423.863281 247.585938 C 423.917969 249.109375 424.0625 249.4375 424.433594 248.863281 C 425.082031 247.859375 425.109375 224.996094 424.460938 224.59375 C 424.191406 224.429688 423.894531 225.378906 423.785156 226.738281 C 423.679688 228.082031 423.554688 226.460938 423.503906 223.140625 C 423.445312 219.484375 423.601562 217.21875 423.890625 217.398438 C 424.15625 217.5625 424.566406 217.347656 424.804688 216.921875 C 425.117188 216.359375 426.519531 216.054688 429.878906 215.816406 L 434.523438 215.484375 L 436.707031 218.242188 C 437.90625 219.757812 439.492188 221.898438 440.226562 222.996094 L 442.328125 226.144531 C 442.75 226.773438 444.34375 229.324219 445.871094 231.8125 C 448.507812 236.109375 449.53125 237.898438 453.953125 245.949219 C 455.003906 247.859375 455.933594 249.207031 456.023438 248.945312 C 456.109375 248.6875 455.566406 247.351562 454.8125 245.984375 C 449.105469 235.59375 447.289062 232.503906 443.546875 226.824219 C 441.214844 223.277344 438.488281 219.402344 437.492188 218.210938 C 436.496094 217.019531 435.683594 215.910156 435.683594 215.746094 C 435.683594 214.984375 438.578125 218.308594 440.929688 221.765625 C 442.363281 223.875 444.300781 226.691406 445.234375 228.023438 C 446.167969 229.355469 446.929688 230.585938 446.929688 230.757812 C 446.929688 230.925781 447.359375 231.675781 447.878906 232.421875 C 449.039062 234.078125 450.964844 237.492188 453.984375 243.238281 C 455.242188 245.628906 456.53125 247.871094 456.851562 248.214844 C 457.25 248.652344 460.644531 248.953125 467.851562 249.195312 C 477.558594 249.519531 478.316406 249.480469 478.949219 248.613281 C 479.566406 247.769531 479.65625 247.761719 479.949219 248.53125 C 480.128906 248.996094 480.472656 249.375 480.714844 249.375 C 482.363281 249.375 463.691406 217.75 460.488281 215.117188 C 459.976562 214.695312 461.488281 217.234375 463.851562 220.753906 C 469.261719 228.816406 471.066406 231.6875 472.445312 234.421875 C 474.03125 237.566406 473.382812 237.089844 471.472656 233.699219 C 469.097656 229.492188 464.617188 222.707031 460.632812 217.289062 C 456.894531 212.203125 456.363281 211.152344 458.523438 213.113281 L 459.886719 214.351562 L 459.035156 213.085938 C 458.5625 212.390625 458.179688 211.664062 458.179688 211.46875 C 458.179688 211.273438 459.667969 210.28125 461.488281 209.265625 C 467.761719 205.757812 473.324219 198.855469 474.675781 192.902344 C 474.933594 191.761719 475.265625 188.902344 475.410156 186.542969 C 476.183594 174.03125 470.148438 163.285156 459.644531 158.476562 C 452.269531 155.097656 441.765625 152.6875 441.222656 154.25 C 441.117188 154.550781 440.070312 154.574219 438.496094 154.308594 L 435.9375 153.878906 L 438.238281 153.753906 L 440.539062 153.625 L 437.984375 153.226562 C 435.421875 152.828125 424.5 152.761719 419.433594 153.117188 M 813.03125 153.535156 C 809.796875 153.894531 806.6875 154.3125 806.125 154.457031 C 805.566406 154.601562 804.488281 154.851562 803.734375 155.007812 C 800.558594 155.675781 800.757812 152.453125 800.757812 202.917969 C 800.757812 233.65625 800.933594 249.261719 801.289062 249.921875 C 801.78125 250.84375 802.445312 250.910156 811.050781 250.910156 C 822.851562 250.910156 823 250.84375 823.507812 245.40625 C 823.703125 243.3125 823.789062 236.003906 823.695312 229.164062 C 823.601562 222.324219 823.707031 216.539062 823.933594 216.3125 C 824.160156 216.085938 826.34375 215.960938 828.785156 216.027344 C 833.207031 216.15625 833.234375 216.164062 834.9375 218.066406 C 836.40625 219.703125 838.640625 222.960938 844.484375 231.992188 C 845.121094 232.976562 846.277344 234.929688 847.054688 236.335938 C 847.832031 237.742188 848.722656 239.355469 849.035156 239.917969 C 851.378906 244.136719 854.167969 248.394531 855.265625 249.425781 C 856.539062 250.621094 856.828125 250.65625 866.5625 250.820312 C 878.3125 251.019531 878.988281 250.917969 878.988281 248.953125 C 878.988281 246.96875 874.628906 238.515625 868.542969 228.6875 C 867.679688 227.292969 866.742188 225.753906 866.460938 225.269531 C 864.535156 221.945312 862.703125 219.1875 860.300781 215.988281 C 858.777344 213.960938 857.527344 212.042969 857.523438 211.726562 C 857.519531 211.40625 859.09375 210.203125 861.027344 209.058594 C 867.117188 205.4375 871.328125 199.972656 873.410156 192.976562 C 874.3125 189.945312 874.453125 188.421875 874.257812 183.699219 C 873.898438 174.886719 871.511719 168.949219 866.289062 163.855469 C 862.039062 159.714844 858.003906 157.65625 849.078125 155.085938 C 840.941406 152.738281 825.933594 152.09375 813.03125 153.535156 M 20.878906 154.472656 C 20.039062 155.109375 19.984375 157.992188 19.984375 202.183594 C 19.984375 247.101562 20.027344 249.253906 20.921875 250.0625 C 21.71875 250.785156 23.230469 250.910156 31.304688 250.910156 C 38.664062 250.910156 40.972656 250.75 41.746094 250.183594 C 42.695312 249.488281 42.742188 248.644531 42.792969 230.824219 C 42.820312 220.578125 43.007812 211.929688 43.207031 211.609375 C 43.464844 211.191406 48.589844 211.027344 61.332031 211.027344 C 74.464844 211.027344 79.253906 210.867188 79.707031 210.414062 C 80.132812 209.988281 80.320312 207.285156 80.320312 201.546875 C 80.320312 194.222656 80.214844 193.195312 79.394531 192.449219 C 78.578125 191.710938 76.34375 191.59375 60.859375 191.476562 L 43.25 191.34375 L 42.933594 182.648438 C 42.757812 177.867188 42.714844 173.785156 42.835938 173.574219 C 42.957031 173.363281 52.09375 173.191406 63.144531 173.191406 C 82.101562 173.191406 83.277344 173.136719 84.09375 172.234375 C 84.816406 171.4375 84.976562 169.976562 85.066406 163.371094 C 85.152344 157.289062 85.015625 155.261719 84.476562 154.609375 C 83.835938 153.835938 81.046875 153.761719 52.773438 153.777344 C 27.808594 153.789062 21.601562 153.925781 20.878906 154.472656 M 98.519531 154.730469 C 97.703125 155.636719 97.652344 158.085938 97.835938 189.375 C 98.03125 222.597656 98.050781 223.089844 99.183594 226.621094 C 101.417969 233.589844 103.742188 237.558594 108.164062 241.96875 C 114.203125 247.984375 120.136719 250.722656 129.917969 252 C 135.949219 252.785156 137.03125 252.789062 143.832031 252.015625 C 158.949219 250.292969 169.4375 242.894531 174.042969 230.714844 C 174.574219 229.308594 175.4375 226.085938 175.964844 223.554688 C 176.84375 219.347656 176.925781 216.222656 176.941406 187.203125 C 176.957031 157.082031 176.910156 155.410156 176.023438 154.605469 C 175.226562 153.882812 173.722656 153.761719 165.773438 153.761719 C 156.566406 153.761719 156.445312 153.773438 155.203125 155.015625 L 153.949219 156.269531 L 153.949219 187.398438 C 153.949219 217.625 153.917969 218.625 152.878906 221.808594 C 150.707031 228.449219 145.984375 231.898438 138.414062 232.371094 C 130.730469 232.851562 125.238281 229.992188 122.546875 224.109375 C 120.519531 219.679688 120.207031 214.355469 120.203125 184.378906 C 120.203125 156.90625 120.1875 156.433594 119.144531 155.109375 L 118.082031 153.761719 L 108.742188 153.761719 C 100.210938 153.761719 99.320312 153.84375 98.519531 154.730469 M 197.183594 154.898438 C 196.476562 155.90625 196.386719 161.164062 196.386719 201.363281 C 196.386719 226.292969 196.53125 247.398438 196.703125 248.257812 C 197.15625 250.523438 198.835938 250.910156 208.242188 250.910156 C 214.859375 250.910156 216.597656 250.757812 217.625 250.085938 L 218.886719 249.257812 L 218.886719 219.660156 C 218.886719 201.449219 219.070312 190.0625 219.367188 190.0625 C 219.953125 190.0625 227.140625 198.832031 231.730469 205.148438 C 241.730469 218.90625 247.835938 228.230469 256.710938 243.285156 C 257.480469 244.609375 258.238281 245.933594 258.988281 247.269531 C 259.859375 248.8125 260.753906 249.824219 261.125 249.679688 C 261.476562 249.546875 262.035156 249.769531 262.371094 250.171875 C 262.847656 250.746094 264.480469 250.910156 269.722656 250.910156 C 277.4375 250.910156 279.003906 250.457031 279.398438 248.105469 C 279.539062 247.257812 279.617188 226.007812 279.566406 200.886719 C 279.476562 156.320312 279.453125 155.195312 278.484375 154.484375 C 277.097656 153.472656 259.460938 153.460938 258.128906 154.472656 C 257.296875 155.101562 257.234375 156.984375 257.234375 181.015625 C 257.234375 196.0625 257.039062 206.996094 256.765625 207.164062 C 256.511719 207.324219 253.933594 204.058594 251.046875 199.910156 C 248.15625 195.757812 245.261719 191.675781 244.621094 190.832031 C 243.976562 189.988281 241.664062 186.851562 239.476562 183.863281 C 233.507812 175.699219 223.28125 163.277344 218.378906 158.234375 L 214.027344 153.761719 L 206.003906 153.761719 C 198.292969 153.761719 197.949219 153.804688 197.183594 154.898438 M 523.210938 154.203125 C 522.839844 154.4375 522.1875 155.296875 521.757812 156.113281 C 519.433594 160.539062 512.886719 175.480469 508.558594 186.230469 C 505.839844 192.976562 503.304688 199.191406 502.925781 200.035156 C 501.722656 202.703125 499.074219 209.515625 496.464844 216.652344 C 495.074219 220.449219 493.386719 225.050781 492.714844 226.878906 C 489.484375 235.671875 487.207031 242.058594 486.972656 242.984375 C 486.828125 243.546875 486.273438 244.984375 485.738281 246.175781 C 484.550781 248.824219 484.464844 249.75 485.488281 248.902344 C 485.984375 248.492188 486.316406 248.472656 486.542969 248.839844 C 486.753906 249.183594 490.34375 249.375 496.527344 249.375 C 505.953125 249.375 506.203125 249.347656 507.027344 248.226562 L 507.871094 247.074219 L 507.535156 248.226562 C 507.347656 248.859375 507.394531 249.375 507.640625 249.375 C 507.886719 249.375 508.574219 247.824219 509.171875 245.925781 C 509.773438 244.027344 511.257812 239.65625 512.472656 236.210938 L 514.679688 229.949219 L 532.976562 229.949219 C 547.160156 229.945312 551.316406 230.089844 551.480469 230.585938 C 551.59375 230.9375 552.949219 234.789062 554.492188 239.148438 C 556.03125 243.507812 557.371094 247.535156 557.464844 248.097656 C 557.605469 248.929688 558.164062 249.175781 560.445312 249.421875 C 562.921875 249.683594 563.011719 249.730469 561.207031 249.8125 C 559.679688 249.878906 559.359375 250.027344 559.929688 250.398438 C 561.09375 251.152344 580.03125 251.058594 580.792969 250.296875 C 581.503906 249.582031 581.617188 247.011719 580.953125 246.601562 C 580.703125 246.445312 580.390625 245.683594 580.257812 244.90625 C 579.96875 243.238281 577.269531 235.703125 569.460938 214.769531 C 562.828125 196.984375 553.453125 174.464844 546.992188 160.792969 C 544.765625 156.085938 543.859375 154.675781 542.804688 154.273438 C 541.183594 153.65625 524.167969 153.597656 523.210938 154.203125 M 594.523438 154.695312 C 593.75 155.550781 593.675781 159.617188 593.675781 202.65625 C 593.675781 238.550781 593.820312 249.828125 594.289062 250.296875 C 594.722656 250.730469 597.722656 250.910156 604.515625 250.910156 C 613.472656 250.910156 614.199219 250.839844 615.160156 249.878906 C 616.179688 248.859375 616.1875 248.378906 616.054688 202.03125 C 615.921875 156.359375 615.894531 155.195312 614.925781 154.484375 C 614.15625 153.921875 611.859375 153.761719 604.652344 153.761719 C 596.308594 153.761719 595.285156 153.855469 594.523438 154.695312 M 718.308594 154.3125 C 717.46875 154.804688 717.414062 157.632812 717.414062 202.273438 L 717.414062 249.714844 L 718.566406 250.328125 C 720.265625 251.230469 784.585938 250.925781 785.5 250.007812 C 786.140625 249.367188 786.601562 235.722656 786.070312 233.175781 C 785.640625 231.125 783.925781 230.992188 761.617188 231.269531 C 749.960938 231.414062 740.410156 231.460938 740.390625 231.378906 C 740.132812 230.148438 739.894531 211.671875 740.125 210.753906 L 740.441406 209.492188 L 758.523438 209.492188 C 773.214844 209.492188 776.710938 209.363281 777.183594 208.792969 C 777.550781 208.347656 777.808594 205.125 777.886719 199.996094 L 778.003906 191.898438 L 776.726562 191.246094 C 775.761719 190.75 771.148438 190.589844 757.9375 190.582031 L 740.421875 190.574219 L 740.371094 187.890625 C 740.339844 186.414062 740.222656 183.019531 740.105469 180.347656 C 739.988281 177.675781 740.019531 174.972656 740.167969 174.339844 L 740.441406 173.191406 L 760.789062 173.191406 C 777.542969 173.191406 781.308594 173.0625 782.125 172.464844 C 783.019531 171.8125 783.132812 170.957031 783.289062 163.816406 C 783.453125 156.34375 783.402344 155.835938 782.394531 154.828125 C 781.335938 153.769531 781.09375 153.761719 750.265625 153.777344 C 730.121094 153.785156 718.890625 153.976562 718.308594 154.3125 M 451.386719 156.59375 C 466.792969 161.742188 472.042969 167.65625 474.273438 182.394531 C 474.957031 186.894531 474.992188 186.988281 474.773438 183.671875 C 474.042969 172.53125 470.507812 165.816406 462.871094 161.054688 C 459.226562 158.785156 450.40625 155.257812 448.542969 155.328125 C 448.078125 155.34375 449.359375 155.914062 451.386719 156.59375 M 518.582031 164.449219 C 517.078125 167.953125 517.261719 168.460938 518.804688 165.058594 C 519.496094 163.539062 519.972656 162.207031 519.867188 162.101562 C 519.761719 161.996094 519.183594 163.054688 518.582031 164.449219 M 373.875 169.101562 C 374.777344 170.222656 375.625 171.039062 375.753906 170.90625 C 376.046875 170.617188 373.207031 167.144531 372.636719 167.089844 C 372.414062 167.070312 372.96875 167.976562 373.875 169.101562 M 516.703125 168.621094 C 516.519531 168.921875 516.476562 169.277344 516.609375 169.410156 C 516.742188 169.546875 516.988281 169.300781 517.15625 168.867188 C 517.503906 167.964844 517.207031 167.808594 516.703125 168.621094 M 326.914062 171.523438 C 328.261719 171.628906 330.332031 171.625 331.515625 171.519531 C 332.703125 171.410156 331.605469 171.324219 329.074219 171.328125 C 326.542969 171.328125 325.570312 171.417969 326.914062 171.523438 M 428.523438 171.65625 L 431.847656 171.992188 L 429.128906 172.078125 C 424.226562 172.238281 424.433594 171.730469 424.433594 183.625 C 424.433594 189.347656 424.570312 194.722656 424.742188 195.574219 C 425.136719 197.554688 425.820312 197.65625 435.242188 197.132812 C 440.867188 196.820312 443.21875 196.46875 445.285156 195.628906 C 448.34375 194.386719 451.203125 191.429688 451.796875 188.890625 C 452.042969 187.832031 452.253906 187.554688 452.398438 188.109375 C 452.640625 189.066406 450.980469 192.617188 449.84375 193.558594 C 449.4375 193.898438 447.867188 194.855469 446.355469 195.6875 C 444.828125 196.53125 444.027344 197.207031 444.550781 197.210938 C 447.710938 197.242188 452.019531 192.832031 453.371094 188.179688 C 455.136719 182.105469 451.800781 174.5 446.777344 173.148438 C 445.679688 172.851562 444.679688 172.714844 444.554688 172.839844 C 444.429688 172.964844 444.945312 173.222656 445.699219 173.410156 C 447.75 173.925781 450.460938 176.195312 451.492188 178.261719 C 452.539062 180.355469 453.273438 183.605469 452.605469 183.191406 C 452.359375 183.039062 452 182.050781 451.804688 180.992188 C 451.125 177.34375 447.894531 174.449219 443.351562 173.421875 C 441.609375 173.027344 441.59375 173.007812 442.839844 172.601562 C 443.75 172.300781 443.445312 172.246094 441.78125 172.410156 C 440.496094 172.53125 437.734375 172.472656 435.644531 172.273438 L 431.847656 171.910156 L 435.9375 171.621094 C 439.066406 171.402344 438.285156 171.332031 432.613281 171.328125 C 427.261719 171.324219 426.125 171.414062 428.523438 171.65625 M 324.726562 172.625 L 323.449219 172.980469 L 323.449219 231.734375 L 329.585938 231.886719 C 339.558594 232.132812 347.074219 230.242188 351.898438 226.273438 C 354.546875 224.09375 355.550781 223.726562 354.089844 225.472656 C 353.558594 226.105469 353.984375 225.828125 355.03125 224.859375 C 356.082031 223.890625 356.941406 222.992188 356.941406 222.863281 C 356.941406 222.734375 356.480469 223.046875 355.917969 223.554688 C 354.46875 224.863281 354.648438 223.996094 356.203125 222.144531 C 362.960938 214.113281 364.050781 195.054688 358.335938 184.886719 C 356.554688 181.722656 352.894531 177.753906 350.292969 176.171875 C 345.769531 173.417969 329.824219 171.207031 324.726562 172.625 M 376.929688 173.925781 C 377.519531 174.925781 378.101562 175.746094 378.222656 175.746094 C 378.585938 175.746094 376.925781 172.765625 376.371094 172.425781 C 376.089844 172.25 376.339844 172.925781 376.929688 173.925781 M 514.742188 172.953125 C 514.25 174.238281 514.394531 174.570312 514.996094 173.535156 C 515.296875 173.023438 515.433594 172.496094 515.300781 172.363281 C 515.167969 172.230469 514.917969 172.496094 514.742188 172.953125 M 825.300781 172.636719 L 824.023438 172.980469 L 824.023438 196.964844 L 828.113281 197.125 C 834.492188 197.378906 841.429688 196.394531 844.71875 194.773438 C 849.101562 192.613281 851.257812 188.429688 850.714844 183.132812 C 850.464844 180.707031 848.960938 177.214844 847.625 175.953125 C 846.066406 174.488281 840.71875 173.230469 834.761719 172.925781 C 831.386719 172.757812 828.164062 172.542969 827.601562 172.457031 C 827.039062 172.367188 826.003906 172.449219 825.300781 172.636719 M 512.1875 179.089844 C 511.691406 180.375 511.839844 180.707031 512.441406 179.671875 C 512.738281 179.15625 512.875 178.628906 512.742188 178.5 C 512.613281 178.367188 512.359375 178.632812 512.1875 179.089844 M 531.386719 181.5 C 530.734375 183.257812 529.882812 185.5 529.492188 186.484375 C 528.683594 188.539062 525.589844 196.777344 522.96875 203.867188 C 521.980469 206.539062 521.03125 209.359375 520.855469 210.132812 L 520.539062 211.539062 L 532.734375 211.539062 C 539.445312 211.539062 545.074219 211.398438 545.246094 211.226562 C 545.515625 210.957031 544.410156 207.351562 543.070312 204.125 C 542.835938 203.5625 542.128906 201.605469 541.5 199.777344 C 540.867188 197.949219 540.0625 195.765625 539.707031 194.921875 C 539.351562 194.078125 537.746094 189.992188 536.136719 185.84375 C 534.527344 181.699219 533.066406 178.304688 532.890625 178.304688 C 532.714844 178.304688 532.035156 179.742188 531.386719 181.5 M 510.925781 182.160156 C 510.070312 184.039062 510.234375 184.441406 511.160156 182.734375 C 511.59375 181.933594 511.851562 181.183594 511.734375 181.066406 C 511.617188 180.953125 511.253906 181.441406 510.925781 182.160156 M 381.523438 183.714844 C 381.546875 184.308594 381.667969 184.429688 381.832031 184.023438 C 381.980469 183.65625 381.960938 183.214844 381.792969 183.042969 C 381.621094 182.875 381.5 183.175781 381.523438 183.714844 M 474.128906 188.785156 C 474.140625 189.628906 474.253906 189.914062 474.382812 189.414062 C 474.515625 188.917969 474.507812 188.226562 474.367188 187.878906 C 474.226562 187.535156 474.121094 187.941406 474.128906 188.785156 M 507.074219 191.585938 C 505.921875 194.46875 506.097656 194.898438 507.3125 192.160156 C 507.859375 190.925781 508.21875 189.824219 508.105469 189.710938 C 507.996094 189.601562 507.53125 190.445312 507.074219 191.585938 M 473.320312 192.847656 C 472.246094 198.304688 467.117188 204.554688 460.609375 208.34375 C 458.429688 209.613281 456.648438 210.910156 456.652344 211.222656 C 456.660156 211.628906 456.769531 211.632812 457.035156 211.242188 C 457.242188 210.9375 458.859375 209.921875 460.632812 208.984375 C 464.507812 206.933594 467.695312 204.203125 470.195312 200.800781 C 472.15625 198.132812 474.207031 193.074219 473.902344 191.664062 C 473.800781 191.207031 473.542969 191.738281 473.320312 192.847656 M 504.382812 198.335938 C 502.570312 202.957031 502.449219 203.347656 503.214844 202.132812 C 504.066406 200.769531 506.277344 195.039062 506.039062 194.804688 C 505.933594 194.695312 505.1875 196.285156 504.382812 198.335938 M 439.515625 197.734375 L 437.472656 198.097656 L 439.261719 198.121094 C 440.246094 198.132812 441.625 197.957031 442.328125 197.734375 C 443.972656 197.207031 442.457031 197.207031 439.515625 197.734375 M 594.328125 202.335938 C 594.328125 203.601562 594.425781 204.117188 594.550781 203.484375 C 594.671875 202.851562 594.671875 201.816406 594.550781 201.183594 C 594.425781 200.550781 594.328125 201.070312 594.328125 202.335938 M 498.890625 212.324219 C 498.398438 213.609375 498.542969 213.941406 499.148438 212.90625 C 499.445312 212.394531 499.582031 211.867188 499.449219 211.734375 C 499.320312 211.601562 499.066406 211.867188 498.890625 212.324219 M 594.269531 213.074219 C 594.269531 213.777344 594.386719 214.0625 594.527344 213.710938 C 594.667969 213.359375 594.667969 212.785156 594.527344 212.433594 C 594.386719 212.082031 594.269531 212.371094 594.269531 213.074219 M 383.097656 214.09375 C 383.097656 214.796875 383.214844 215.085938 383.355469 214.734375 C 383.496094 214.382812 383.496094 213.808594 383.355469 213.457031 C 383.214844 213.105469 383.097656 213.390625 383.097656 214.09375 M 496.925781 217.554688 C 494.414062 224.097656 491.84375 231.570312 492.042969 231.765625 C 492.214844 231.941406 494.296875 226.53125 497.636719 217.230469 C 499.074219 213.234375 498.480469 213.5 496.925781 217.554688 M 594.390625 221.765625 C 594.390625 225.5625 594.46875 227.113281 594.566406 225.214844 C 594.667969 223.316406 594.664062 220.210938 594.566406 218.3125 C 594.46875 216.414062 594.390625 217.96875 594.390625 221.765625 M 382.546875 216.4375 C 382.570312 217.035156 382.691406 217.15625 382.855469 216.746094 C 383.003906 216.378906 382.984375 215.9375 382.8125 215.769531 C 382.644531 215.597656 382.523438 215.898438 382.546875 216.4375 M 424.515625 219.71875 C 424.515625 220.421875 424.628906 220.710938 424.773438 220.359375 C 424.914062 220.007812 424.914062 219.433594 424.773438 219.082031 C 424.628906 218.730469 424.515625 219.015625 424.515625 219.71875 M 379.214844 225.707031 C 378.9375 226.433594 378.996094 226.492188 379.5 225.992188 C 379.851562 225.644531 380.007812 225.230469 379.851562 225.074219 C 379.691406 224.917969 379.40625 225.203125 379.214844 225.707031 M 375.851562 231.351562 C 374.90625 232.6875 374.578125 233.394531 375.125 232.921875 C 376.078125 232.09375 378.167969 228.921875 377.761719 228.921875 C 377.65625 228.921875 376.792969 230.015625 375.851562 231.351562 M 513.636719 229.46875 C 513.449219 229.769531 513.410156 230.125 513.542969 230.257812 C 513.675781 230.390625 513.921875 230.144531 514.089844 229.710938 C 514.433594 228.8125 514.140625 228.652344 513.636719 229.46875 M 423.511719 230.714844 C 423.519531 231.558594 423.636719 231.839844 423.765625 231.34375 C 423.894531 230.84375 423.886719 230.15625 423.746094 229.808594 C 423.605469 229.460938 423.5 229.871094 423.511719 230.714844 M 512.699219 231.753906 C 512.203125 233.039062 512.347656 233.371094 512.953125 232.335938 C 513.25 231.824219 513.386719 231.296875 513.253906 231.164062 C 513.125 231.03125 512.871094 231.296875 512.699219 231.753906 M 594.367188 236.082031 C 594.367188 238.472656 594.457031 239.449219 594.5625 238.253906 C 594.671875 237.058594 594.671875 235.105469 594.5625 233.910156 C 594.457031 232.714844 594.367188 233.691406 594.367188 236.082031 M 490.960938 234.09375 C 490.644531 234.996094 490.476562 235.824219 490.585938 235.933594 C 490.695312 236.042969 491.042969 235.394531 491.359375 234.492188 C 491.671875 233.585938 491.839844 232.757812 491.730469 232.648438 C 491.621094 232.539062 491.273438 233.191406 490.960938 234.09375 M 372.75 235.441406 L 371.511719 236.847656 L 372.917969 235.609375 C 374.234375 234.449219 374.558594 234.035156 374.15625 234.035156 C 374.066406 234.035156 373.433594 234.667969 372.75 235.441406 M 369.683594 238.496094 C 368.773438 239.515625 368.714844 239.683594 369.464844 239.132812 C 371.09375 237.933594 371.878906 237.105469 371.382812 237.105469 C 371.128906 237.105469 370.367188 237.730469 369.683594 238.496094 M 476.15625 242.0625 C 477.644531 244.929688 478.945312 247.191406 479.046875 247.085938 C 479.289062 246.84375 475.257812 239.082031 474.230469 237.8125 C 473.804688 237.28125 474.667969 239.195312 476.15625 242.0625 M 489.175781 238.914062 C 488.683594 240.199219 488.828125 240.53125 489.433594 239.496094 C 489.730469 238.980469 489.867188 238.453125 489.734375 238.324219 C 489.605469 238.191406 489.351562 238.457031 489.175781 238.914062 M 358.472656 245.285156 C 358.050781 245.558594 357.9375 245.78125 358.21875 245.78125 C 358.5 245.78125 359.074219 245.558594 359.496094 245.285156 C 359.917969 245.011719 360.035156 244.789062 359.753906 244.789062 C 359.472656 244.789062 358.894531 245.011719 358.472656 245.285156 M 580.199219 249.121094 C 580.035156 249.542969 580.125 249.886719 580.398438 249.886719 C 580.671875 249.886719 580.894531 249.542969 580.894531 249.121094 C 580.894531 248.699219 580.804688 248.351562 580.691406 248.351562 C 580.582031 248.351562 580.359375 248.699219 580.199219 249.121094 M 347.128906 249.214844 C 347.496094 249.363281 347.9375 249.34375 348.109375 249.171875 C 348.277344 249.003906 347.976562 248.882812 347.4375 248.90625 C 346.84375 248.929688 346.722656 249.050781 347.128906 249.214844 M 344.292969 249.730469 C 344.792969 249.859375 345.480469 249.851562 345.828125 249.710938 C 346.175781 249.570312 345.769531 249.464844 344.925781 249.476562 C 344.082031 249.484375 343.796875 249.601562 344.292969 249.730469 M 566.449219 249.75 C 567.644531 249.859375 569.601562 249.859375 570.796875 249.75 C 571.992188 249.644531 571.011719 249.554688 568.621094 249.554688 C 566.230469 249.554688 565.253906 249.644531 566.449219 249.75 M 403.46875 250.398438 C 404.5 251.066406 422.230469 251.066406 422.644531 250.398438 C 422.851562 250.0625 419.453125 249.890625 412.832031 249.894531 C 406.101562 249.898438 402.960938 250.070312 403.46875 250.398438 M 460.480469 250.40625 C 461.8125 250.988281 479.292969 250.941406 480.222656 250.351562 C 480.644531 250.085938 476.574219 249.914062 470.195312 249.929688 C 463.59375 249.949219 459.851562 250.132812 460.480469 250.40625 M 486.046875 250.398438 C 486.429688 251.019531 501.992188 251.042969 504.964844 250.425781 C 506.320312 250.148438 503.433594 249.984375 496.371094 249.945312 C 489.390625 249.90625 485.839844 250.0625 486.046875 250.398438 " fill-opacity="1" fill-rule="evenodd"/></svg>